<svg xmlns="http://www.w3.org/2000/svg" width="199.343" height="312.496" viewBox="0 0 199.343 312.496"><defs><style>.a{fill:#ffc699;}.b{fill:#3bfa95;}.c{fill:#a3a3a3;opacity:0.14;}.d{fill:#3ff093;}.e{fill:#8c8c8c;}.f{fill:#fff070;}.g{fill:#efbc94;}.h{fill:#f89e46;}.i{fill:#707070;stroke:#707070;}.j{fill:#b66051;}.k{fill:#ff4b7c;}.l{fill:#bb8e62;}.m{stroke:none;}.n{fill:none;}</style></defs><g transform="translate(2628.606 -24580)"><rect class="a" width="20" height="21" rx="2" transform="translate(-2462.859 24755.998) rotate(-135)"/><path class="b" d="M.5,0h19a.5.5,0,0,1,.5.5V51a0,0,0,0,1,0,0H0a0,0,0,0,1,0,0V.5A.5.5,0,0,1,.5,0Z" transform="translate(-2491.85 24784.988) rotate(-135)"/><path class="c" d="M5927.16,12736.313h5.889v-61.89h-5.889Z" transform="translate(-7262.625 37937.93) rotate(-135)"/><path class="b" d="M5817.156,12674.633h64.926v17.078h-64.926Z" transform="translate(-8375.367 12143.96)"/><rect class="b" width="70" height="62" rx="1" transform="translate(-2562 24759)"/><path class="d" d="M5927.16,12741.194h8.508v-66.773h-8.508Z" transform="translate(-8488.906 12079.805)"/><path class="e" d="M5810.2,12680.359h70v-6.7h-70Z" transform="translate(-8372.203 12137.84)"/><rect class="f" width="11" transform="translate(-2521 24821)"/><rect class="f" width="11" height="12" rx="1" transform="translate(-2528 24809)"/><g transform="translate(-1096 47)"><path class="a" d="M20.49,0H112.7c11.316,0,20.49,8.894,20.49,19.864v99.322c0,10.971-9.174,19.864-20.49,19.864H20.49C9.174,139.051,0,130.157,0,119.187V19.864C0,8.894,9.174,0,20.49,0Z" transform="translate(-1500.658 24573.176)"/><path class="g" d="M20.49,0h8.555V143.423H20.49A20.49,20.49,0,0,1,0,122.934V20.489A20.49,20.49,0,0,1,20.49,0Z" transform="translate(-1500.658 24568.803)"/><rect class="h" width="41" height="10" rx="1" transform="translate(-1464 24606)"/><path class="b" d="M11.867,2.774,187.085,0c6.451-.1,11.6,5.356,11.5,12.191s-5.415,12.459-11.866,12.561L11.5,27.526C5.047,27.628-.1,22.17,0,15.334S5.416,2.876,11.867,2.774Z" transform="translate(-1532.606 24612.119) rotate(-14)"/><path class="b" d="M23.38,0H93.521A23.38,23.38,0,0,1,116.9,23.38V46.759a23.379,23.379,0,0,1-23.38,23.379H23.381A23.38,23.38,0,0,1,0,46.758V23.379A23.379,23.379,0,0,1,23.38,0Z" transform="translate(-1510.031 24561.281) rotate(-14)"/><path class="e" d="M5864.977,12687.813l111.57-33.57,5.219,13.477-115.039,29.758Z" transform="translate(-7365.929 11909.019)"/><path class="f" d="M3.507,0H8.183A3.507,3.507,0,0,1,11.69,3.507V19.872a3.507,3.507,0,0,1-3.507,3.507H3.507A3.507,3.507,0,0,1,0,19.872V3.507A3.507,3.507,0,0,1,3.507,0Z" transform="translate(-1421.304 24561.875) rotate(-13)"/><rect class="h" width="41" height="10" rx="1.5" transform="translate(-1404 24606)"/><path class="h" d="M23.816.9V45.779l94.764.47V.9h14.607V53.616c0,5.823-9.174,10.543-20.49,10.543H20.49C9.174,64.159,0,59.439,0,53.616V.9Z" transform="translate(-1500.658 24648.066)"/><rect class="h" width="24.666" height="23.379" rx="0.5" transform="translate(-1500.658 24642.09)"/><rect class="h" width="15.197" height="33.899" rx="0.3" transform="translate(-1382.594 24642.09)"/><rect class="h" width="33.434" height="23.379" rx="0.5" transform="translate(-1439.868 24688.848)"/><g class="i" transform="translate(-1435 24635)"><ellipse class="m" cx="5" cy="10.5" rx="5" ry="10.5"/><ellipse class="n" cx="5" cy="10.5" rx="4.5" ry="10"/></g><g class="i" transform="translate(-1404 24635)"><ellipse class="m" cx="5" cy="10.5" rx="5" ry="10.5"/><ellipse class="n" cx="5" cy="10.5" rx="4.5" ry="10"/></g><g transform="matrix(0.998, 0.07, -0.07, 0.998, 1636.252, 150.472)"><path class="j" d="M0,0C2.794-2.081,11.609,1.165,21.22,2.421c8.2,1.071,17.266-.06,19.584,2.4C45.673,10,38.222,20.936,19.476,20.709S-5.332,3.971,0,0Z" transform="translate(-1354.985 24672.428) rotate(-11)"/><path class="k" d="M-1.724,3.5S6.928-.351,15.778.509s17.9,6.43,17.9,6.43-5.433,4.843-18.188,4.52S-1.724,3.5-1.724,3.5Z" transform="translate(-1349.867 24680.816) rotate(-11)"/></g></g><path class="b" d="M0,0,28.864-3.213,28,54H0Z" transform="translate(-2546.657 24817.98) rotate(42)"/><path class="d" d="M5927.16,12690.748h8.508v-16.326h-8.508Z" transform="translate(-8487.41 12144.252)"/><path class="b" d="M0,0H28V54H3.839L0,50.4Z" transform="translate(-2467.85 24856.109) rotate(138)"/><path class="d" d="M5922.694,12710.121l7.657,1.048,5.02-37.358-8.21.592Z" transform="matrix(0.819, 0.574, -0.574, 0.819, -144.294, 11048.752)"/><rect class="l" width="35.07" height="18.703" rx="3" transform="matrix(0.719, 0.695, -0.695, 0.719, -2583.171, 24854.68)"/><rect class="l" width="35.07" height="18.703" rx="3" transform="matrix(0.788, -0.616, 0.616, 0.788, -2492.054, 24873.014)"/><rect class="a" width="21" height="21" rx="2" transform="matrix(-0.891, 0.454, -0.454, -0.891, -2561.031, 24734.873)"/><path class="b" d="M.5,0h20a.5.5,0,0,1,.5.5V51a0,0,0,0,1,0,0H0a0,0,0,0,1,0,0V.5A.5.5,0,0,1,.5,0Z" transform="matrix(-0.891, 0.454, -0.454, -0.891, -2542.027, 24772.17)"/><path class="c" d="M5927.16,12737.693s6.926-.152,7.913-.954.595-62.317.595-62.317h-8.508Z" transform="matrix(-0.891, 0.454, -0.454, -0.891, 8481.962, 33380.137)"/></g></svg>