<svg xmlns="http://www.w3.org/2000/svg" xmlns:xlink="http://www.w3.org/1999/xlink" width="271.85" height="320.48" viewBox="0 0 271.85 320.48"><defs><style>.a{fill:none;}.b{isolation:isolate;clip-path:url(#a);}.c{fill:#35e287;}.d{fill:#2ec977;}.e{fill:#3bfa95;}.f{fill:#6e6e6e;}.g{fill:#ff4b7c;}.h{fill:#fff;}.i{fill:#5fafff;}</style><clipPath id="a"><rect class="a" x="41" y="68" width="271.85" height="320.48"/></clipPath></defs><g class="b" transform="translate(-41 -68)"><g transform="translate(-90.635 -22626.205)"><rect class="c" width="40" height="68" rx="2" transform="translate(322 22919)"/><rect class="c" width="42.852" height="95.228" rx="12" transform="translate(249.33 22919.457)"/><rect class="c" width="42.852" height="95.228" rx="12" transform="translate(179.814 22919.457)"/><rect class="c" width="42.852" height="95.228" rx="12" transform="translate(322.655 22919.457)"/><path class="d" d="M0,0H42.852a0,0,0,0,1,0,0V16.568a12,12,0,0,1-12,12H12a12,12,0,0,1-12-12V0A0,0,0,0,1,0,0Z" transform="translate(249.329 22986.115)"/><path class="d" d="M0,0H42.852a0,0,0,0,1,0,0V16.568a12,12,0,0,1-12,12H12a12,12,0,0,1-12-12V0A0,0,0,0,1,0,0Z" transform="translate(179.814 22986.115)"/><path class="d" d="M0,0H42.852a0,0,0,0,1,0,0V16.568a12,12,0,0,1-12,12H12a12,12,0,0,1-12-12V0A0,0,0,0,1,0,0Z" transform="translate(322.655 22986.115)"/><path class="e" d="M118.475,107.911c26.791-47.433,95.109-47.433,121.9,0l59.494,105.332c26.356,46.664-7.357,104.426-60.95,104.426H119.931c-53.592,0-87.306-57.762-60.95-104.426Z" transform="translate(90.635 22626.205)"/><path class="f" d="M0,0,135.093,15.977s-8.547,53.34-70.612,52.587S0,0,0,0Z" transform="matrix(0.998, -0.07, 0.07, 0.998, 201.089, 22856.096)"/><path class="g" d="M0,7.934S23.222-.487,46.654.022a63.429,63.429,0,0,1,6.48.57c24.11,3.3,50,20.54,50,20.54S88.951,39.072,51.277,37.94,0,7.934,0,7.934Z" transform="matrix(0.998, -0.07, 0.07, 0.998, 214.522, 22885.725)"/><circle class="h" cx="38" cy="38" r="38" transform="translate(228 22766)"/><circle class="i" cx="14.5" cy="14.5" r="14.5" transform="translate(246 22776)"/><path class="f" d="M0,0,135.093,15.977s-8.547,53.34-70.612,52.587S0,0,0,0Z" transform="matrix(0.998, -0.07, 0.07, 0.998, 201.089, 22856.096)"/><path class="g" d="M0,7.934S23.222-.487,46.654.022a63.429,63.429,0,0,1,6.48.57c24.11,3.3,50,20.54,50,20.54S88.951,39.072,51.277,37.94,0,7.934,0,7.934Z" transform="matrix(0.998, -0.07, 0.07, 0.998, 214.522, 22885.725)"/><circle class="h" cx="38" cy="38" r="38" transform="translate(228 22766)"/><circle class="i" cx="14.5" cy="14.5" r="14.5" transform="translate(252 22790)"/></g></g></svg>