<svg xmlns="http://www.w3.org/2000/svg" width="87.72" height="95.541" viewBox="0 0 87.72 95.541"><defs><style>.a{fill:#ff4b7c;}.b{fill:#fff;}.c{fill:#6890ff;}</style></defs><path class="a" d="M7637.8-1059.859c-3.686-6.956,0-56.7,0-56.7s3.709-37.344,42.072-37.065,44,37.065,44,37.065.208,54.164-1.525,57.694c-3.139,2.066-6.039-3.452-10.255-6.93a13.264,13.264,0,0,0-5.442-2.85,31.44,31.44,0,0,0-5.022,4.106c-2.341,2.331-4.916,5.841-7.323,5.674-2.386-.164-5.461-4.519-8.581-6.93a14.721,14.721,0,0,0-6.174-2.85,12.121,12.121,0,0,0-4.4,2.85c-2.328,2.171-5.247,6.125-7.719,6.93-4.892,1.6-5.251-9.78-12.66-9.78S7641.49-1052.9,7637.8-1059.859Z" transform="translate(-7636.165 1153.625)"/><ellipse class="b" cx="11.925" cy="11.924" rx="11.925" ry="11.924" transform="translate(27.098 29.033)"/><ellipse class="b" cx="11.925" cy="11.924" rx="11.925" ry="11.924" transform="translate(58.589 29.033)"/><circle class="c" cx="5.875" cy="5.875" r="5.875" transform="translate(70.104 35.83)"/><circle class="c" cx="5.875" cy="5.875" r="5.875" transform="translate(38.052 35.83)"/></svg>