<svg xmlns="http://www.w3.org/2000/svg" xmlns:xlink="http://www.w3.org/1999/xlink" width="21" height="18" viewBox="0 0 21 18"><defs><style>.a{fill:none;}.b{clip-path:url(#a);}.c{fill:#2699fb;}</style><clipPath id="a"><rect class="a" width="21" height="18"/></clipPath></defs><g class="b"><path class="c" d="M2.437,2.437A7.373,7.373,0,0,1,8.122,0a7.373,7.373,0,0,1,5.685,2.437,7.373,7.373,0,0,1,2.437,5.685,7.373,7.373,0,0,1-2.437,5.685,7.373,7.373,0,0,1-5.685,2.437,7.373,7.373,0,0,1-5.685-2.437A8.105,8.105,0,0,1,0,8.122,7.373,7.373,0,0,1,2.437,2.437ZM9.2,14.619a3.326,3.326,0,0,0,2.03-1.218,5.912,5.912,0,0,0,.948-2.843,2.242,2.242,0,0,0-.677-1.624,2.383,2.383,0,0,0-1.76-.812H8.392a3.952,3.952,0,0,1-1.218-.271A1.229,1.229,0,0,1,6.768,6.9a.7.7,0,0,1,.271-.541,1.026,1.026,0,0,1,.541-.271.924.924,0,0,1,.677.406c.271.135.406.271.541.271a.814.814,0,0,0,.541-.135.814.814,0,0,0,.135-.541A2.154,2.154,0,0,0,8.8,4.738a5.6,5.6,0,0,0,.677-2.572A.291.291,0,0,0,9.2,1.9a4.184,4.184,0,0,0-1.083-.271A6.771,6.771,0,0,0,4.6,2.707,3.408,3.408,0,0,0,3.384,5.414,3.466,3.466,0,0,0,4.467,7.986,3.7,3.7,0,0,0,7.039,9.069h0v.541a1.738,1.738,0,0,0,.541,1.354,1.971,1.971,0,0,0,1.218.812v2.437c0,.135,0,.135.135.271S9.069,14.619,9.2,14.619Z"/></g></svg>