<svg xmlns="http://www.w3.org/2000/svg" width="89" height="81.648" viewBox="0 0 89 81.648"><defs><style>.a{fill:#909af9;}.b{fill:#ff4b7c;}.c{fill:#ffa068;}.d{fill:#f89d68;}.e{fill:#e4864d;}.f{fill:#8a8383;}.g{fill:#817a7a;}.h{fill:#fff070;}.i{fill:#fee159;}.j{fill:#f6c538;}</style></defs><g transform="translate(-7019 -17248.352)"><rect class="a" width="28" height="20" transform="translate(7080 17310)"/><rect class="b" width="24" height="27" transform="translate(7019 17303)"/><rect class="c" width="37" height="37" transform="translate(7043 17293)"/><rect class="d" width="16" height="37" transform="translate(7064 17293)"/><path class="e" d="M3524.019,4257.6H3518.8v4.99h15.5v-4.99h-5.1v-10.285h-10.4v5.029h5.219Z" transform="translate(3536.624 13056.59)"/><path class="f" d="M-10214.225-4865.176a13.762,13.762,0,0,0,10.638,4.04c6.737-.4,9.978-3.694,9.978-3.694l-.635-6.471-8.908,3.905a1.674,1.674,0,0,1-.714.211,1.338,1.338,0,0,1-.654-.221l-9.02-4.4Z" transform="translate(17266.75 22145.74)"/><path class="f" d="M-10229.445-4903.633l20.279-10.087-20.279-7.782-19.879,8.021Z" transform="translate(17292.551 22181.615)"/><path class="g" d="M-10378.421-4865.148v5.8a30.5,30.5,0,0,0,6.24-1.237,10.772,10.772,0,0,0,3.942-2.378l-.662-6.237Z" transform="translate(17441.258 22143.848)"/><path class="g" d="M-10377.525-4904.985l-.143-17.752,20.095,7.845Z" transform="translate(17440.707 22182.785)"/><path class="h" d="M-10212.376-4891.622l-12.455,3.333s-.035,3.3.047,5.9.279,4.494.279,4.494a3.122,3.122,0,0,1-1.458,0,1.116,1.116,0,0,1-.838-.7s.389-2.539.7-5.1.337-5.254.337-5.254l12.817-3.572Z" transform="translate(17273.947 22159.693)"/><ellipse class="h" cx="2.5" cy="1.5" rx="2.5" ry="1.5" transform="translate(7060 17266)"/><path class="i" d="M9017.46,2610.806l2.014,5.828,2.277-5.828,6.357-2.066-6.357-2.438-2.277-5.934-2.014,6.252-6.04,2.119Z" transform="translate(-1935.913 14672.56)"/><path class="j" d="M9180.152,2675.987l5.84,2.038,2.031,5.834,2.26-5.834,6.283-2.083-6.445,1.581-2.164,4.953-1.56-4.953Z" transform="translate(-2104.456 14605.312)"/><path class="i" d="M9014.319,2605.381l.966,2.8,1.095-2.8,3.055-.992-3.055-1.17-1.095-2.849-.966,3-2.9,1.018Z" transform="translate(-1949.727 14647.983)"/><path class="j" d="M9180.152,2675.963l2.8.979.977,2.8,1.085-2.8,3.015-1-3.094.759-1.038,2.379-.75-2.379Z" transform="translate(-2118.367 14576.408)"/></g></svg>