<svg xmlns="http://www.w3.org/2000/svg" xmlns:xlink="http://www.w3.org/1999/xlink" width="75" height="63.209" viewBox="0 0 75 63.209"><defs><style>.a{fill:#f65b85;}.b,.f{fill:#fff;}.b,.d,.e{stroke:#d8d8d8;}.b{stroke-linecap:round;}.c,.d,.e,.g{fill:none;}.c{stroke:#d9d9d9;}.d{stroke-width:0.7px;}.e{stroke-width:1.2px;}.g{stroke:#979797;stroke-width:0.1px;}.h{fill:#ff4b7c;}.i{fill:#6890ff;}.j{fill:#d8d8d8;}.k{fill:#979797;opacity:0.24;}.l{filter:url(#a);}</style><filter id="a" x="28.167" y="0.332" width="18.1" height="62.877" filterUnits="userSpaceOnUse"><feOffset dy="3" input="SourceAlpha"/><feGaussianBlur stdDeviation="3" result="b"/><feFlood flood-opacity="0.161"/><feComposite operator="in" in2="b"/><feComposite in="SourceGraphic"/></filter></defs><g transform="translate(-7020 -16991.791)"><rect class="a" width="75" height="51" rx="3" transform="translate(7020 16996)"/><path class="b" d="M-408.155,7513.8h34.938v-46.1h-69.876v46.1Z" transform="translate(7465.372 9530.418)"/><path class="c" d="M-439.453,7468.2l.124,45.475" transform="translate(7463.886 9530.23)"/><path class="d" d="M-441.385,7514.78v-41.723" transform="translate(7464.671 9528.22)"/><path class="e" d="M-329.487,7513.6l-.011-45.316" transform="translate(7418.792 9530.178)"/><path class="d" d="M-327.088,7472.7v41.63" transform="translate(7417.804 9528.365)"/><path class="f" d="M-404.409,7509.091a31.955,31.955,0,0,1,11.914-4.92c7.289-1.454,17.241-.9,17.241-.9v-46.082s-9.528-.839-16.937.772a35.321,35.321,0,0,0-12.7,5.673,40.772,40.772,0,0,0-13.248-5.673c-7.454-1.611-16.57-.772-16.57-.772v45.976s10.565-.479,18.139,1A32.123,32.123,0,0,1-404.409,7509.091Z" transform="translate(7461.934 9534.814)"/><g class="l" transform="matrix(1, 0, 0, 1, 7020, 16991.79)"><path class="g" d="M-383.872,7512.588V7467.71" transform="translate(421.09 -7461.38)"/></g><path class="h" d="M1.052-6.12a75.971,75.971,0,0,1,11.559.689A72.374,72.374,0,0,1,23.7-2.731V4.522A106.836,106.836,0,0,0,12.611,2a65.56,65.56,0,0,0-11.559-.7Z" transform="translate(7030.623 17002.252)"/><path class="h" d="M23.7-6.12a75.97,75.97,0,0,0-11.559.689,72.374,72.374,0,0,0-11.087,2.7V4.522A106.836,106.836,0,0,1,12.139,2a65.559,65.559,0,0,1,11.559-.7Z" transform="translate(7059.224 17004.469)"/><path class="i" d="M23.7-6.117a60.127,60.127,0,0,0-11.559.873A60.322,60.322,0,0,0,1.052-1.821V7.373a88.361,88.361,0,0,1,11.087-3.2A51.9,51.9,0,0,1,23.7,3.28Z" transform="translate(7059.224 17021.031)"/><path class="f" d="M19.238-6.114A34.886,34.886,0,0,0,9.726-5.086,46.814,46.814,0,0,1,.045-3.7L.6-3.352V9.766A57.494,57.494,0,0,1,9.726,6a30.137,30.137,0,0,1,9.511-1.048Z" transform="translate(7069.656 17019.205)"/><path class="j" d="M0,.175V3.4s2.165-1.717,10.487-1.54S22.753,3.4,22.753,3.4l-.394-1.515A58.38,58.38,0,0,0,11.668.149,108.487,108.487,0,0,0,0,.175Z" transform="matrix(0.995, 0.105, -0.105, 0.995, 7031.607, 17025.168)"/><path class="j" d="M0,.175V3.4s2.165-1.717,10.487-1.54S22.753,3.4,22.753,3.4l-.394-1.515A58.38,58.38,0,0,0,11.668.149,108.487,108.487,0,0,0,0,.175Z" transform="matrix(0.995, 0.105, -0.105, 0.995, 7031.607, 17021.285)"/><path class="j" d="M0,.175V3.4s2.165-1.717,10.487-1.54S22.753,3.4,22.753,3.4l-.394-1.515A58.38,58.38,0,0,0,11.668.149,108.487,108.487,0,0,0,0,.175Z" transform="matrix(0.995, 0.105, -0.105, 0.995, 7031.607, 17016.293)"/><path class="j" d="M0,.175V3.4s2.165-1.717,10.487-1.54S22.753,3.4,22.753,3.4l-.394-1.515A58.38,58.38,0,0,0,11.668.149,108.487,108.487,0,0,0,0,.175Z" transform="matrix(0.995, 0.105, -0.105, 0.995, 7032.162, 17010.746)"/><path class="j" d="M0,.175V3.4s2.165-1.717,10.487-1.54S22.753,3.4,22.753,3.4l-.394-1.515A58.38,58.38,0,0,0,11.668.149,108.487,108.487,0,0,0,0,.175Z" transform="matrix(0.995, 0.105, -0.105, 0.995, 7032.162, 17005.756)"/><path class="j" d="M0,3.227V0S2.165,1.717,10.487,1.54,22.753,0,22.753,0l-.394,1.515A58.367,58.367,0,0,1,11.668,3.254,108.525,108.525,0,0,1,0,3.227Z" transform="matrix(-0.995, 0.105, -0.105, -0.995, 7083.076, 17010.248)"/><path class="j" d="M0,3.227V0S2.165,1.717,10.487,1.54,22.753,0,22.753,0l-.394,1.515A58.367,58.367,0,0,1,11.668,3.254,108.525,108.525,0,0,1,0,3.227Z" transform="matrix(-0.995, 0.105, -0.105, -0.995, 7083.076, 17013.576)"/><path class="j" d="M0,3.227V0S2.165,1.717,10.487,1.54,22.753,0,22.753,0l-.394,1.515A58.367,58.367,0,0,1,11.668,3.254,108.525,108.525,0,0,1,0,3.227Z" transform="matrix(-0.995, 0.105, -0.105, -0.995, 7083.349, 17030.77)"/><path class="j" d="M0,2.406V0S1.18,1.053,5.4.922A19.42,19.42,0,0,0,11.551,0l-.2,1.129a21.267,21.267,0,0,1-5.428,1.3A37.593,37.593,0,0,1,0,2.406Z" transform="matrix(-0.995, 0.105, -0.105, -0.995, 7082.79, 17016.867)"/><path class="j" d="M0,2.406V0S1.18,1.053,5.4.922A19.42,19.42,0,0,0,11.551,0l-.2,1.129a21.267,21.267,0,0,1-5.428,1.3A37.593,37.593,0,0,1,0,2.406Z" transform="matrix(-0.995, 0.105, -0.105, -0.995, 7082.79, 17020.75)"/><path class="j" d="M0,2.406V0S1.18,1.053,5.4.922A19.42,19.42,0,0,0,11.551,0l-.2,1.129a21.267,21.267,0,0,1-5.428,1.3A37.593,37.593,0,0,1,0,2.406Z" transform="matrix(-0.998, 0.07, -0.07, -0.998, 7082.763, 17025.391)"/><path class="j" d="M0,.175V3.4s2.165-1.717,10.487-1.54S22.753,3.4,22.753,3.4l-.394-1.515A58.38,58.38,0,0,0,11.668.149,108.487,108.487,0,0,0,0,.175Z" transform="matrix(0.995, 0.105, -0.105, 0.995, 7031.607, 17029.604)"/><path class="j" d="M0,3.227V0S2.165,1.717,10.487,1.54,22.753,0,22.753,0l-.394,1.515A58.367,58.367,0,0,1,11.668,3.254,108.525,108.525,0,0,1,0,3.227Z" transform="matrix(-0.995, 0.105, -0.105, -0.995, 7083.349, 17035.205)"/><path class="k" d="M-276.758,5804.136l27.971-2.46,1.281-3.464a64.988,64.988,0,0,0-14.528.516A38.492,38.492,0,0,0-276.758,5804.136Z" transform="translate(7334.052 11239.777)"/><path class="k" d="M-245.725,5804.136l-29.675-2.46-1.359-3.464a73.119,73.119,0,0,1,15.414.516A42.3,42.3,0,0,1-245.725,5804.136Z" transform="translate(7303.984 11239.777)"/></g></svg>