<svg xmlns="http://www.w3.org/2000/svg" width="66.757" height="74.086" viewBox="0 0 66.757 74.086"><defs><style>.a{fill:#fecabc;}.b{fill:#9964f7;}.c{fill:#9f68ff;}.d{fill:#ffcd5d;}.e{fill:#ffdb70;}.f{fill:#ff4b7c;}.g{fill:#f5c0b2;}.h{fill:#a5704e;}.i{fill:#92694e;}</style></defs><g transform="translate(-7159.066 -17041.328)"><path class="a" d="M3692.129,7405.866l9.482,10.18,9.784-10.18a2.868,2.868,0,0,1-.433-1.263,11.8,11.8,0,0,1,0-2.051s-4.929,3.314-9.351,3.314-8.521-3.775-8.521-3.775a11.946,11.946,0,0,1-.374,2.512A6.064,6.064,0,0,1,3692.129,7405.866Z" transform="translate(3490.555 9674.76)"/><path class="b" d="M3710.092,7416.75v12.61h33.471s.781-9.962-5.21-15.676-18.408-7.043-18.408-7.043Z" transform="translate(3482.226 9674.025)"/><path class="c" d="M3743.6,7416.75v12.61h-33.471s-.781-9.962,5.21-15.676,18.408-7.043,18.408-7.043Z" transform="translate(3448.974 9674.025)"/><circle class="d" cx="9" cy="9" r="9" transform="translate(7201 17091)"/><circle class="e" cx="6" cy="6" r="6" transform="translate(7204 17094)"/><path class="f" d="M2976.615,8391.248c-.165.3-3.226,6.188-3.16,6.318s4.673-.493,4.673-.493l2.4,4.278,3.258-5.858,3.093,5.858,2.37-4.278,4.871.493-3.225-6.318a10.018,10.018,0,0,1-7.108,3.554C2979.412,8394.869,2976.615,8391.248,2976.615,8391.248Z" transform="translate(4226.03 8714.063)"/><ellipse class="a" cx="15" cy="19" rx="15" ry="19" transform="translate(7178 17044)"/><path class="g" d="M3889,7386.736V7348.2s15.154-.961,14.6,18.553S3889,7386.736,3889,7386.736Z" transform="translate(3303.805 9695.764)"/><path class="h" d="M3041.968,8082.161s.189-5.2,2.867-7.457,7.832-.976,12.434-2.284,5.733-2.672,5.733-2.672a5.945,5.945,0,0,1,4.061,3.2c1.668,2.927,2.611,8.51,2.611,8.51s3.143-10.263,1.707-15.063-7.448-4.133-7.448-4.133a9.17,9.17,0,0,0-4.612-3.772c-3.241-1.291-8.561-1.463-14.008,1.942C3034.441,8067.229,3041.968,8082.161,3041.968,8082.161Z" transform="translate(4137.407 8983.692)"/><path class="g" d="M3693.689,7401.926s4.521,7.289,9.011,7.431,8.972-6.957,8.972-6.957-4.154,3.624-8.644,3.482S3693.689,7401.926,3693.689,7401.926Z" transform="translate(3489.832 9676.212)"/><path class="i" d="M3069.272,8072.913s1.176-.208,1.834-.4c4.6-1.307,5.733-2.672,5.733-2.672a5.947,5.947,0,0,1,4.061,3.2c1.668,2.927,2.611,8.51,2.611,8.51s3.143-10.264,1.707-15.063-7.448-4.133-7.448-4.133a9.172,9.172,0,0,0-4.612-3.772,23.109,23.109,0,0,0-3.885-.742Z" transform="translate(4123.57 8983.596)"/></g></svg>