<svg xmlns="http://www.w3.org/2000/svg" width="91.497" height="59.334" viewBox="0 0 91.497 59.334"><defs><style>.a{fill:#4bb0ff;stroke:#127ed3;}.b{fill:#5fffaa;}.c{fill:rgba(141,148,153,0.5);}.d{fill:#636363;}.e{fill:#fff283;}.f{fill:#ff4b7c;}.g{fill:#6890ff;}.h{fill:#aeaeae;}.i,.j,.l,.n{fill:none;}.i{stroke:#a9a9a9;}.i,.k{stroke-width:4px;}.j{stroke:#969696;stroke-linecap:round;stroke-width:7px;}.k{fill:#5fafff;stroke:#707070;opacity:0.33;}.l{stroke:rgba(255,255,255,0.54);stroke-width:6px;}.m{stroke:none;}</style></defs><g transform="translate(-6879 -17173.998)"><g class="a" transform="translate(6879 17174)"><circle class="m" cx="27.5" cy="27.5" r="27.5"/><circle class="n" cx="27.5" cy="27.5" r="27"/></g><path class="b" d="M-430.31,4504.182a14.113,14.113,0,0,1,1.333,2.709c.333,1.125-.2,1.032,0,1.984s.981,1.191.806,1.83c-.563,2.066-2.112,4.414-1.831,7a13.105,13.105,0,0,0,3.051,6.8c1.221,1.177,3.718-2.143,5.162-1.926s3.369,1.457,3.033,6.643-.433,7.8-.433,7.8.814.119,2.049-5.02a27.9,27.9,0,0,0-2.338-16.955,31.088,31.088,0,0,0-3-4.712c-.1-.142-.087-.777-.253-1.01a14.045,14.045,0,0,0-2.564-2.439c-.09-.079-.553.138-.722,0A19.946,19.946,0,0,0-430.31,4504.182Z" transform="translate(7347.282 12674.521)"/><path class="b" d="M-507.14,4546.762a33.124,33.124,0,0,0,3.714-3.295c1.285-1.444,1.069-1.813,1.667-2.815s.974-1.159,2.479-2.458c1.615-1.392,3.833-3.056,4.21-4.424.223-.808-1.238-2.139-3.139-2.833-1.586-.582-2.621-.361-4.928-1.387s-3.376-2.993-6.175-4.963-4.112-.133-5.933-.17a10.424,10.424,0,0,1-5.108-1.432c-2.369-1.13-2.951-1.749-3.411-2.569s.016-2.146-.345-3.232-1.841-2.019-1.529-3.9a5.086,5.086,0,0,1,2.776-3.608,2.627,2.627,0,0,1,2.332.494,5.885,5.885,0,0,1,1.468,1.89,7.805,7.805,0,0,1,1.15-3.066c.859-1.091,2.1-1.06,2.445-1.408a29.274,29.274,0,0,1,2.108-2.89c1.076-1.124,1.967-1.187,2.22-1.586s.122-1.943.862-2.386,2.226-.209,3.368-.889a2.45,2.45,0,0,0,1.2-1.841l.086-2.118a31.544,31.544,0,0,0-13.441,4.849,26.987,26.987,0,0,0-8.533,10.027,10.9,10.9,0,0,0-.9,3.938,7.993,7.993,0,0,0,.7,4.09c.576,1.21.9,1.949,3.418,3.923s5.454,2.619,6.357,4.246-.651,2.818.309,5.886,4.428,1.825,6.083,5.164.538,8.2.538,8.2" transform="translate(7409.881 12681.813)"/><path class="c" d="M26.278,90.55C46.407,89.725,52.557,69.98,52.557,69.98v.455A26.278,26.278,0,0,1,0,70.435v-.384S6.149,91.375,26.278,90.55Z" transform="translate(6879.025 17132.492)"/><path class="d" d="M-2715.406,7534.3a6.863,6.863,0,0,1,5.3.944c4.753,2.914,11.642,8.626,15.868,7.147,7.433-4.86-.381-19.143-5.623-25.73-2.375-2.985-7.384-1.426-9.721-.287a15.847,15.847,0,0,1-4.9,1.555Z" transform="translate(9633.075 9670.139)"/><path class="d" d="M-2693.551,7529.924a15.273,15.273,0,0,1-3.878,3.318c-4.284,2.626-10.492,7.773-14.3,6.441-6.7-4.38.344-17.252,5.068-23.189,1.414-1.777,3.866-1.767,6.2-1.2a24.761,24.761,0,0,0,3.283.244l2.935-.306Z" transform="translate(9612.838 9672.869)"/><circle class="e" cx="2" cy="2" r="2" transform="translate(6929 17192)"/><circle class="f" cx="2" cy="2" r="2" transform="translate(6933 17196)"/><circle class="b" cx="2" cy="2" r="2" transform="translate(6929 17200)"/><circle class="g" cx="2" cy="2" r="2" transform="translate(6925 17196)"/><path class="h" d="M-2367.189,7574.764h2.756v-2.639h2.6v-2.677h-2.7v-2.581h-2.658v2.581h-2.658v2.677h2.658Z" transform="translate(9274.957 9627.902)"/><circle class="i" cx="21" cy="21" r="21" transform="translate(6913 17175.998)"/><path class="j" d="M-2108.773,6956.217l15.569,16.124" transform="translate(9058.752 10256.043)"/><circle class="k" cx="21" cy="21" r="21" transform="translate(6913 17175.998)"/><path class="l" d="M0,.044A8.078,8.078,0,0,1,6.588,2.427,7.7,7.7,0,0,1,8.916,8.483" transform="matrix(0.995, -0.105, 0.105, 0.995, 6936.432, 17183.797)"/></g></svg>