<svg xmlns="http://www.w3.org/2000/svg" width="75.234" height="88.111" viewBox="0 0 75.234 88.111"><defs><style>.a,.m{fill:none;}.a{stroke:#acacac;stroke-width:2px;}.b{fill:#4bb0ff;stroke:#127ed3;}.c{fill:#5fffaa;}.d{fill:rgba(141,148,153,0.5);}.e{fill:#6d6d6d;}.f{fill:#27e497;}.g{fill:#9781ff;}.h{fill:#7dedff;}.i{fill:#ff4b7c;}.j{fill:#fff070;}.k{fill:#dadada;}.l{stroke:none;}</style></defs><g transform="translate(-69.599 -86)"><path class="a" d="M-651.93,4493.613h23.238a5,5,0,0,1,3.791,5.081,5.039,5.039,0,0,1-3.791,5.071h-64.636s-4.6-.076-4.8,5.133,4.8,5.164,4.8,5.164h32.89v11.011" transform="translate(768.733 -4379.863)"/><g class="b" transform="translate(75 86)"><ellipse class="l" cx="22" cy="21.5" rx="22" ry="21.5"/><ellipse class="m" cx="22" cy="21.5" rx="21.5" ry="21"/></g><path class="c" d="M-430.31,4504.182a11.223,11.223,0,0,1,1.06,2.154c.265.9-.16.82,0,1.578s.78.947.641,1.456c-.448,1.643-1.68,3.51-1.456,5.563a10.419,10.419,0,0,0,2.426,5.411c.971.936,2.956-1.7,4.1-1.531s2.679,1.159,2.412,5.283-.345,6.205-.345,6.205.648.094,1.629-3.992a22.183,22.183,0,0,0-1.859-13.482,24.669,24.669,0,0,0-2.383-3.748c-.08-.112-.069-.617-.2-.8a11.165,11.165,0,0,0-2.039-1.939c-.072-.062-.439.109-.574,0A15.917,15.917,0,0,0-430.31,4504.182Z" transform="translate(535.496 -4413.727)"/><path class="c" d="M-511.515,4536.342a26.348,26.348,0,0,0,2.954-2.621,7.594,7.594,0,0,0,1.326-2.238c.476-.8.774-.922,1.971-1.954,1.284-1.107,3.048-2.43,3.347-3.519.177-.642-.985-1.7-2.5-2.252-1.261-.463-2.084-.287-3.919-1.1s-2.685-2.381-4.91-3.947-3.27-.1-4.718-.135a8.3,8.3,0,0,1-4.062-1.138c-1.884-.9-2.347-1.392-2.713-2.044s.013-1.707-.274-2.569-1.464-1.605-1.216-3.1a4.048,4.048,0,0,1,2.207-2.87,2.092,2.092,0,0,1,1.854.393,4.689,4.689,0,0,1,1.167,1.5,6.206,6.206,0,0,1,.915-2.437c.683-.868,1.674-.844,1.944-1.12a23.347,23.347,0,0,1,1.676-2.3c.856-.895,1.564-.944,1.765-1.262s.1-1.545.685-1.9,1.77-.167,2.678-.708a1.946,1.946,0,0,0,.955-1.464l.068-1.685A25.083,25.083,0,0,0-521,4499.737a21.457,21.457,0,0,0-6.785,7.973,8.665,8.665,0,0,0-.717,3.13,6.36,6.36,0,0,0,.555,3.254c.458.962.713,1.55,2.718,3.119s4.337,2.083,5.055,3.377-.517,2.24.246,4.68,3.521,1.451,4.837,4.106.427,6.52.427,6.52" transform="translate(605.385 -4407.816)"/><path class="d" d="M20.9,86.189c16.006-.656,20.9-16.356,20.9-16.356v.362A20.9,20.9,0,0,1,0,70.195v-.306S4.89,86.845,20.9,86.189Z" transform="translate(75.011 37.936)"/><g transform="translate(-792 -254.09)"><path class="e" d="M-5898.474,6783.521c4.733,3.229,9.051.245,14.392-3.579,3.248-2.326,6.75-6.138,12.007-6.138,5.322,0,9.733,4.746,13.857,7.212,5.613,3.358,10.219,5,13.675,1.72,5.448-4.844-2.291-23.127-8.306-30.144s-11.239.5-18.561.5-12.888-7.3-18.329-1.861S-5906.349,6778.151-5898.474,6783.521Z" transform="translate(6771.197 -6356.692)"/><path class="f" d="M0,0H0A0,0,0,0,1,0,0V2.647a0,0,0,0,1,0,0H0a0,0,0,0,1,0,0V0A0,0,0,0,1,0,0Z" transform="translate(897.498 409.724)"/><ellipse class="g" cx="2.059" cy="2.059" rx="2.059" ry="2.059" transform="translate(909.933 409.724)"/><ellipse class="h" cx="2.059" cy="2.059" rx="2.059" ry="2.059" transform="translate(914.346 405.606)"/><ellipse class="i" cx="2.059" cy="2.059" rx="2.059" ry="2.059" transform="translate(905.521 405.606)"/><ellipse class="j" cx="2.059" cy="2.059" rx="2.059" ry="2.059" transform="translate(909.933 401.194)"/><rect class="k" width="3.53" height="11.178" rx="1.765" transform="translate(884.341 402.37)"/><rect class="k" width="3.623" height="11.272" rx="1.812" transform="translate(891.642 406.195) rotate(90)"/></g></g></svg>