<svg xmlns="http://www.w3.org/2000/svg" xmlns:xlink="http://www.w3.org/1999/xlink" width="82.127" height="82.164" viewBox="0 0 82.127 82.164"><defs><style>.a,.c{fill:#fff;}.b{fill:#d8d8d8;}.c{stroke:#d8d8d8;stroke-width:1.5px;}.d,.k,.l,.n{fill:none;}.d{stroke:#5fffaa;stroke-linecap:round;stroke-width:3px;}.e{fill:#8a8a8a;}.f{fill:#f2cd9b;}.g{fill:#979797;opacity:0.24;}.h{fill:#ff4b7c;}.i{fill:#ffee59;}.j{fill:#b9b5b5;}.k{stroke:#f1e156;}.l{stroke:#dcd16b;}.m{stroke:none;}.o{filter:url(#c);}.p{filter:url(#a);}</style><filter id="a" x="0" y="9.715" width="60.5" height="72.449" filterUnits="userSpaceOnUse"><feOffset dy="3" input="SourceAlpha"/><feGaussianBlur stdDeviation="3" result="b"/><feFlood flood-opacity="0.161"/><feComposite operator="in" in2="b"/><feComposite in="SourceGraphic"/></filter><filter id="c" x="24.611" y="9.715" width="33.382" height="33.383" filterUnits="userSpaceOnUse"><feOffset dy="3" input="SourceAlpha"/><feGaussianBlur stdDeviation="3" result="d"/><feFlood flood-opacity="0.161"/><feComposite operator="in" in2="d"/><feComposite in="SourceGraphic"/></filter></defs><g transform="translate(-171.699 30.426)"><g transform="translate(180.699 -14.711)"><g class="p" transform="matrix(1, 0, 0, 1, -9, -15.71)"><path class="a" d="M-440.946,5583.777h-26.37v54.45h42.5v-40Z" transform="translate(476.32 -5568.06)"/></g><rect class="b" width="22" transform="translate(11.301 16.71)"/><rect class="b" width="22" height="2" rx="0.7" transform="translate(11.301 26.71)"/><rect class="b" width="22" height="2" rx="0.7" transform="translate(11.301 37.71)"/><rect class="b" width="22" transform="translate(11.301 24.71)"/><g class="o" transform="matrix(1, 0, 0, 1, -9, -15.71)"><path class="a" d="M-446.251,5584.491l-1.594,15.382,15.382-2.812Z" transform="translate(481.46 -5568.78)"/></g><g class="c" transform="translate(4.301 14.71)"><rect class="m" width="5" height="4" rx="1.5"/><rect class="n" x="0.75" y="0.75" width="3.5" height="2.5" rx="0.75"/></g><g class="c" transform="translate(4.301 26.71)"><rect class="m" width="5" height="2" rx="1"/><rect class="n" x="0.75" y="0.75" width="3.5" height="0.5" rx="0.25"/></g><g class="c" transform="translate(4.301 30.71)"><rect class="m" width="5" height="2" rx="1"/><rect class="n" x="0.75" y="0.75" width="3.5" height="0.5" rx="0.25"/></g><g class="c" transform="translate(4.301 37.71)"><rect class="m" width="5" height="3" rx="1.5"/><rect class="n" x="0.75" y="0.75" width="3.5" height="1.5" rx="0.75"/></g><path class="d" d="M-624.947,5748.388l1.794,1.355,4.249-4.342" transform="translate(630.855 -5732.124)"/><path class="d" d="M-624.947,5748.388l1.794,1.355,4.249-4.342" transform="translate(630.335 -5717.055)"/><rect class="b" width="22" height="2" rx="0.7" transform="translate(11.301 15.711)"/></g><g transform="translate(205.337 -30.426)"><path class="e" d="M-454.431,5612.355l-2.034,5.957,6.7-1.719Z" transform="translate(456.466 -5571.295)"/><path class="f" d="M-451.124,5603.442l-4.208,10.761,4.208,3.724,10.395-4.395Z" transform="translate(457.031 -5572.412)"/><path class="g" d="M-444.469,5610.37c-3.154,1.422-10.226,5.081-10.226,5.081l2.616,2.215,10.621-4.359S-441.315,5608.945-444.469,5610.37Z" transform="translate(457.76 -5571.976)"/><path class="h" d="M12,5.474,7.813,1.288a3.9,3.9,0,0,0-5.8,0L0,3.488,9.66,13.47,12,10.948a4.081,4.081,0,0,0,1.288-2.9A3.975,3.975,0,0,0,12,5.474Z" transform="matrix(1, -0.017, 0.017, 1, 32.777, 0.233)"/><rect class="i" width="15.619" height="34.841" rx="1" transform="matrix(0.719, 0.695, -0.695, 0.719, 29.646, 5.712)"/><rect class="j" width="15.619" height="4.064" rx="1" transform="matrix(0.719, 0.695, -0.695, 0.719, 32.485, 3.129)"/><path class="g" d="M.5,0A3.193,3.193,0,0,1,3.2,1.718c.6,1.212.52,3.188.57,4.454.009.3-.031.63.129.664.549.118.716-.156.9.248a4.694,4.694,0,0,1,.077,1.544s.057,1.07.052,1.6a.656.656,0,0,1-.347.658l.083.2-.147,33.83a.6.6,0,0,1-.5.66c-3.788,0-3.935.881-3.909-1.084S0,.66,0,.66A.6.6,0,0,1,.5,0Z" transform="matrix(0.719, 0.695, -0.695, 0.719, 44.943, 5.652)"/><line class="k" y1="24.723" x2="24.218" transform="translate(8.462 8.987)"/><line class="l" y1="24.723" x2="24.218" transform="translate(14.012 14.537)"/></g></g></svg>