<svg xmlns="http://www.w3.org/2000/svg" width="14.044" height="14" viewBox="0 0 14.044 14"><defs><style>.a{fill:#4bb0ff;}.b{fill:#5fffaa;}.c{fill:rgba(141,148,153,0.5);}</style></defs><g transform="translate(-54.956 -319.502)"><circle class="a" cx="7" cy="7" r="7" transform="translate(55 319.502)"/><path class="b" d="M-430.31,4504.182a3.684,3.684,0,0,1,.349.709c.087.295-.053.27,0,.52s.257.312.211.479a4.861,4.861,0,0,0-.479,1.832,3.429,3.429,0,0,0,.8,1.781c.32.308.973-.561,1.351-.5s.882.381.794,1.739-.113,2.042-.113,2.042.213.031.536-1.314a7.3,7.3,0,0,0-.612-4.438,8.127,8.127,0,0,0-.785-1.234c-.026-.037-.023-.2-.066-.264a3.7,3.7,0,0,0-.671-.639c-.024-.021-.145.036-.189,0A5.207,5.207,0,0,0-430.31,4504.182Z" transform="translate(495.199 -4182.653)"/><path class="b" d="M-522.908,4509.2a8.664,8.664,0,0,0,.972-.862,2.5,2.5,0,0,0,.436-.737c.156-.263.255-.3.649-.644.423-.364,1-.8,1.1-1.158.058-.211-.324-.56-.822-.741a9.807,9.807,0,0,1-1.29-.363c-.6-.269-.884-.784-1.616-1.3s-1.076-.035-1.553-.045a2.723,2.723,0,0,1-1.337-.375c-.62-.3-.773-.458-.893-.672s0-.562-.09-.846-.482-.528-.4-1.02a1.332,1.332,0,0,1,.727-.945.689.689,0,0,1,.61.129,1.543,1.543,0,0,1,.384.5,2.047,2.047,0,0,1,.3-.8c.225-.285.551-.277.64-.369a7.76,7.76,0,0,1,.552-.756c.282-.294.515-.31.581-.415s.032-.509.226-.625.583-.055.882-.233a.64.64,0,0,0,.314-.481l.022-.555a8.255,8.255,0,0,0-3.518,1.269,7.068,7.068,0,0,0-2.234,2.625,2.857,2.857,0,0,0-.236,1.031,2.1,2.1,0,0,0,.183,1.071,2.329,2.329,0,0,0,.895,1.026c.66.517,1.428.686,1.664,1.112s-.17.738.081,1.541,1.159.478,1.592,1.352a3.791,3.791,0,0,1,.141,2.146" transform="translate(584.072 -4176.14)"/><path class="c" d="M7.022,74.834c5.379-.216,7.022-5.384,7.022-5.384v.119a6.762,6.762,0,0,1-.712,3.022,7.027,7.027,0,0,1-6.31,3.857A6.951,6.951,0,0,1,0,69.568v-.1S1.643,75.05,7.022,74.834Z" transform="translate(54.956 256.778)"/></g></svg>