<svg xmlns="http://www.w3.org/2000/svg" width="17" height="18.5" viewBox="0 0 17 18.5"><defs><style>.a{fill:#bdc3c7;}.b{fill:#eff0f1;}.c{fill:#ff4b7c;}.d{fill:#ea4270;}.e{fill:#95a5a7;}.f{fill:#828282;font-size:8px;font-family:Roboto-Medium, Roboto;font-weight:500;}</style></defs><g transform="translate(0.063 -0.967)"><rect class="a" width="17" height="17" rx="3" transform="translate(-0.063 2.467)"/><rect class="b" width="17" height="15" rx="7.5" transform="translate(-0.063 2.467)"/><rect class="b" width="17" height="15" rx="3" transform="translate(-0.063 2.467)"/><path class="c" d="M3,0H14a3,3,0,0,1,3,3V4a0,0,0,0,1,0,0H0A0,0,0,0,1,0,4V3A3,3,0,0,1,3,0Z" transform="translate(-0.063 2.467)"/><circle class="d" cx="1.5" cy="1.5" r="1.5" transform="translate(1.937 3.467)"/><circle class="d" cx="1.5" cy="1.5" r="1.5" transform="translate(11.937 3.467)"/><rect class="a" width="2" height="4" rx="1" transform="translate(12.437 0.967)"/><path class="e" d="M0,0H2A0,0,0,0,1,2,0V0A1,1,0,0,1,1,1H1A1,1,0,0,1,0,0V0A0,0,0,0,1,0,0Z" transform="translate(12.437 3.967)"/><text class="f" transform="translate(5.937 14.469)"><tspan x="0" y="0">2</tspan></text><circle class="d" cx="1.5" cy="1.5" r="1.5" transform="translate(6.937 3.467)"/><rect class="a" width="2" height="4" rx="1" transform="translate(7.437 0.969)"/><path class="e" d="M0,0H2A0,0,0,0,1,2,0V0A1,1,0,0,1,1,1H1A1,1,0,0,1,0,0V0A0,0,0,0,1,0,0Z" transform="translate(7.437 3.969)"/><rect class="a" width="2" height="4" rx="1" transform="translate(2.437 0.969)"/><path class="e" d="M0,0H2A0,0,0,0,1,2,0V0A1,1,0,0,1,1,1H1A1,1,0,0,1,0,0V0A0,0,0,0,1,0,0Z" transform="translate(2.437 3.969)"/></g></svg>