<svg xmlns="http://www.w3.org/2000/svg" width="18.156" height="16.162" viewBox="0 0 18.156 16.162"><defs><style>.a{fill:#fecabc;}.b{fill:#f19d6b;}.c{fill:#ffa068;}.d{fill:#f5c0b2;}</style></defs><g transform="translate(0 0)"><path class="a" d="M3692.129,7403.116l2.579,2.769,2.661-2.769a.782.782,0,0,1-.117-.344,3.211,3.211,0,0,1,0-.557,5.538,5.538,0,0,1-2.543.9,4.043,4.043,0,0,1-2.317-1.025,3.251,3.251,0,0,1-.1.682A1.682,1.682,0,0,1,3692.129,7403.116Z" transform="translate(-3685.706 -7393.145)"/><path class="b" d="M3710.092,7409.389v3.429h9.1a5.914,5.914,0,0,0-1.417-4.263c-1.629-1.553-5.006-1.917-5.006-1.917Z" transform="translate(-3701.049 -7396.656)"/><path class="c" d="M3719.2,7409.389v3.429h-9.1a5.915,5.915,0,0,1,1.417-4.263c1.63-1.553,5.006-1.917,5.006-1.917Z" transform="translate(-3710.092 -7396.656)"/><ellipse class="a" cx="4" cy="5.24" rx="4" ry="5.24" transform="translate(4.795 0)"/><path class="d" d="M3889,7358.672v-10.481s4.122-.261,3.971,5.045S3889,7358.672,3889,7358.672Z" transform="translate(-3879.824 -7348.189)"/><path class="d" d="M3693.689,7401.925s1.23,1.984,2.45,2.022,2.44-1.894,2.44-1.894a3.985,3.985,0,0,1-2.352.949A5.3,5.3,0,0,1,3693.689,7401.925Z" transform="translate(-3687.039 -7392.629)"/></g></svg>