<svg xmlns="http://www.w3.org/2000/svg" width="16.079" height="10.547" viewBox="0 0 16.079 10.547"><defs><style>.a{fill:#fdbf00;}.b{fill:#5a5a5a;}.c{fill:#6e6e6e;}.d{fill:#292929;}.e{fill:#444;}</style></defs><g transform="translate(-203 -237.684)"><path class="a" d="M1363.5,16198.748v3.85h.938v-3.85Z" transform="translate(-1160.185 -15957.292)"/><circle class="a" cx="0.75" cy="0.75" r="0.75" transform="translate(203 245)"/><path class="b" d="M1705.5,16043.879v-6.831l7.658,3.093a.5.5,0,0,1,.315.423.538.538,0,0,1-.264.444Z" transform="translate(-1494.394 -15799.363)"/><path class="c" d="M1713.473,16043.879v-6.831l-7.657,3.093a.5.5,0,0,0-.315.423.539.539,0,0,0,.264.444Z" transform="translate(-1502.372 -15799.363)"/><path class="d" d="M1705.5,16251.992v-3.727l5.2-1.939-.057,3.242a1.87,1.87,0,0,1-.395,1,3.092,3.092,0,0,1-1.723.965A16.319,16.319,0,0,1,1705.5,16251.992Z" transform="translate(-1494.394 -16003.761)"/><path class="e" d="M1710.7,16251.992v-3.727l-5.2-1.939.057,3.242a1.871,1.871,0,0,0,.395,1,3.091,3.091,0,0,0,1.723.965A16.321,16.321,0,0,0,1710.7,16251.992Z" transform="translate(-1499.596 -16003.761)"/></g></svg>