<svg xmlns="http://www.w3.org/2000/svg" width="368.545" height="204.951" viewBox="0 0 368.545 204.951"><defs><style>.a,.b,.e{fill:none;}.b{stroke:#fff;stroke-width:40px;}.c,.d{stroke:none;}.d{fill:#fff;}</style></defs><g transform="translate(9046.773 5038.525)"><g class="a"><path class="c" d="M-9046.773-4929.081s54.184,93.879,184,95.489,184.54-108.9,184.54-108.9-53.646-94.953-187.759-96.025S-9046.773-4929.081-9046.773-4929.081Z"/><path class="d" d="M -8859.9521484375 -4863.57421875 C -8778.4599609375 -4863.57421875 -8732.2666015625 -4915.13037109375 -8714.1220703125 -4941.19775390625 C -8733.021484375 -4964.00341796875 -8780.45703125 -5007.83203125 -8866.2265625 -5008.51806640625 L -8867.9248046875 -5008.52490234375 C -8952.5048828125 -5008.52490234375 -8995.4228515625 -4956.92333984375 -9011.5029296875 -4931.33740234375 C -8993 -4908.90625 -8945.9619140625 -4864.6259765625 -8862.3955078125 -4863.58935546875 L -8859.9521484375 -4863.57421875 M -8859.9638671875 -4833.57421875 C -8860.8916015625 -4833.57421875 -8861.833984375 -4833.580078125 -8862.7685546875 -4833.591796875 C -8992.58984375 -4835.20166015625 -9046.7734375 -4929.08056640625 -9046.7734375 -4929.08056640625 C -9046.7734375 -4929.08056640625 -9000.552734375 -5038.52490234375 -8867.9248046875 -5038.52490234375 C -8867.2822265625 -5038.52490234375 -8866.6337890625 -5038.5224609375 -8865.9873046875 -5038.51708984375 C -8731.8740234375 -5037.4443359375 -8678.228515625 -4942.49169921875 -8678.228515625 -4942.49169921875 C -8678.228515625 -4942.49169921875 -8732.150390625 -4833.56787109375 -8859.9638671875 -4833.57421875 Z"/></g><g class="b" transform="translate(-8941 -5030)"><circle class="c" cx="79.5" cy="79.5" r="79.5"/><circle class="e" cx="79.5" cy="79.5" r="59.5"/></g></g></svg>