<svg xmlns="http://www.w3.org/2000/svg" xmlns:xlink="http://www.w3.org/1999/xlink" width="168" height="131.156" viewBox="0 0 168 131.156"><defs><style>.a{fill:#f65b85;}.b,.f{fill:#fff;}.b,.d,.e{stroke:#d8d8d8;}.b{stroke-linecap:round;}.c,.d,.e,.g{fill:none;}.c{stroke:#d9d9d9;}.d{stroke-width:0.7px;}.e{stroke-width:1.2px;}.g{stroke:#979797;stroke-width:0.1px;}.h{fill:#b9b5b5;}.i{fill:#5fafff;}.j{fill:#d8d8d8;}.k{fill:#979797;opacity:0.24;}.l{filter:url(#a);}</style><filter id="a" x="74.314" y="8.185" width="18.1" height="118.525" filterUnits="userSpaceOnUse"><feOffset dy="3" input="SourceAlpha"/><feGaussianBlur stdDeviation="3" result="b"/><feFlood flood-opacity="0.161"/><feComposite operator="in" in2="b"/><feComposite in="SourceGraphic"/></filter></defs><g transform="translate(-535 -465.844)"><path class="a" d="M3,0H165a3.054,3.054,0,0,1,3,3.105V114.895A3.054,3.054,0,0,1,165,118s-43.032-3.105-63.059-3.105S84.893,118,84.893,118s-5.382-3.105-25.855-3.105S3,118,3,118a3.054,3.054,0,0,1-3-3.105V3.105A3.054,3.054,0,0,1,3,0Z" transform="translate(535 476)"/><path class="b" d="M-364.833,7570.972h78.261V7467.7H-443.093v103.273Z" transform="translate(983.197 -6987.686)"/><path class="c" d="M-439.453,7468.2l.277,101.865" transform="translate(982.385 -6987.484)"/><path class="d" d="M-441.385,7566.517v-93.459" transform="translate(987.746 -6985.962)"/><path class="e" d="M-329.473,7569.791l-.025-101.509" transform="translate(1019.717 -6987.499)"/><path class="d" d="M-327.088,7472.7v93.252" transform="translate(1020.492 -6986.079)"/><path class="f" d="M-366.838,7573.714a71.575,71.575,0,0,1,26.686-11.021c16.327-3.257,38.62-2.006,38.62-2.006V7457.467s-21.343-1.881-37.939,1.729a79.132,79.132,0,0,0-28.447,12.709,91.346,91.346,0,0,0-29.675-12.709c-16.7-3.609-37.116-1.729-37.116-1.729v102.985s23.665-1.073,40.632,2.241S-366.838,7573.714-366.838,7573.714Z" transform="translate(985.893 -6991.133)"/><g class="l" transform="matrix(1, 0, 0, 1, 535, 465.84)"><path class="g" d="M-383.872,7568.237V7467.711" transform="translate(467.24 -7453.53)"/></g><path class="h" d="M1.052-6.106A170.175,170.175,0,0,1,26.945-4.562,162.119,162.119,0,0,1,51.781,1.486V17.733a239.314,239.314,0,0,0-24.836-5.66A146.854,146.854,0,0,0,1.052,10.5Z" transform="translate(560.102 481.671)"/><path class="h" d="M51.781-6.106A170.174,170.174,0,0,0,25.888-4.562,162.118,162.118,0,0,0,1.052,1.486V17.733a239.313,239.313,0,0,1,24.836-5.66A146.854,146.854,0,0,1,51.781,10.5Z" transform="translate(624.168 486.641)"/><path class="i" d="M51.781-6.1A134.684,134.684,0,0,0,25.888-4.143,135.121,135.121,0,0,0,1.052,3.524V24.118a197.93,197.93,0,0,1,24.836-7.174A116.261,116.261,0,0,1,51.781,14.95Z" transform="translate(624.168 523.738)"/><path class="f" d="M43.037-6.093a78.144,78.144,0,0,0-21.305,2.3A104.864,104.864,0,0,1,.045-.684L1.3.095V29.48a128.787,128.787,0,0,1,20.436-8.445,67.507,67.507,0,0,1,21.305-2.348Z" transform="translate(646.286 519.648)"/><path class="j" d="M0,.393V7.622S4.849,3.776,23.492,4.172,50.968,7.622,50.968,7.622l-.882-3.393A130.772,130.772,0,0,0,26.136.333,243.012,243.012,0,0,0,0,.393Z" transform="matrix(0.995, 0.105, -0.105, 0.995, 561, 540.606)"/><path class="j" d="M0,.393V7.622S4.849,3.776,23.492,4.172,50.968,7.622,50.968,7.622l-.882-3.393A130.772,130.772,0,0,0,26.136.333,243.012,243.012,0,0,0,0,.393Z" transform="matrix(0.995, 0.105, -0.105, 0.995, 561, 531.91)"/><path class="j" d="M0,.393V7.622S4.849,3.776,23.492,4.172,50.968,7.622,50.968,7.622l-.882-3.393A130.772,130.772,0,0,0,26.136.333,243.012,243.012,0,0,0,0,.393Z" transform="matrix(0.995, 0.105, -0.105, 0.995, 561, 520.729)"/><path class="j" d="M0,.393V7.622S4.849,3.776,23.492,4.172,50.968,7.622,50.968,7.622l-.882-3.393A130.772,130.772,0,0,0,26.136.333,243.012,243.012,0,0,0,0,.393Z" transform="matrix(0.995, 0.105, -0.105, 0.995, 562.242, 508.305)"/><path class="j" d="M0,.393V7.622S4.849,3.776,23.492,4.172,50.968,7.622,50.968,7.622l-.882-3.393A130.772,130.772,0,0,0,26.136.333,243.012,243.012,0,0,0,0,.393Z" transform="matrix(0.995, 0.105, -0.105, 0.995, 562.242, 497.124)"/><path class="j" d="M0,7.229V0S4.849,3.845,23.492,3.45,50.967,0,50.967,0l-.882,3.393a130.742,130.742,0,0,1-23.949,3.9A243.1,243.1,0,0,1,0,7.229Z" transform="matrix(-0.995, 0.105, -0.105, -0.995, 676.291, 507.189)"/><path class="j" d="M0,7.229V0S4.849,3.845,23.492,3.45,50.967,0,50.967,0l-.882,3.393a130.742,130.742,0,0,1-23.949,3.9A243.1,243.1,0,0,1,0,7.229Z" transform="matrix(-0.995, 0.105, -0.105, -0.995, 676.291, 514.643)"/><path class="j" d="M0,7.229V0S4.849,3.845,23.492,3.45,50.967,0,50.967,0l-.882,3.393a130.742,130.742,0,0,1-23.949,3.9A243.1,243.1,0,0,1,0,7.229Z" transform="matrix(-0.995, 0.105, -0.105, -0.995, 676.9, 553.156)"/><path class="j" d="M0,5.39V0S2.642,2.359,12.107,2.064,25.875,0,25.875,0l-.448,2.529a47.638,47.638,0,0,1-12.158,2.9A84.208,84.208,0,0,1,0,5.39Z" transform="matrix(-0.995, 0.105, -0.105, -0.995, 675.649, 522.014)"/><path class="j" d="M0,5.39V0S2.642,2.359,12.107,2.064,25.875,0,25.875,0l-.448,2.529a47.638,47.638,0,0,1-12.158,2.9A84.208,84.208,0,0,1,0,5.39Z" transform="matrix(-0.995, 0.105, -0.105, -0.995, 675.649, 530.711)"/><path class="j" d="M0,5.39V0S2.642,2.359,12.107,2.064,25.875,0,25.875,0l-.448,2.529a47.638,47.638,0,0,1-12.158,2.9A84.208,84.208,0,0,1,0,5.39Z" transform="matrix(-0.998, 0.07, -0.07, -0.998, 675.589, 541.108)"/><path class="j" d="M0,.393V7.622S4.849,3.776,23.492,4.172,50.968,7.622,50.968,7.622l-.882-3.393A130.772,130.772,0,0,0,26.136.333,243.012,243.012,0,0,0,0,.393Z" transform="matrix(0.995, 0.105, -0.105, 0.995, 561, 550.545)"/><path class="j" d="M0,7.229V0S4.849,3.845,23.492,3.45,50.967,0,50.967,0l-.882,3.393a130.742,130.742,0,0,1-23.949,3.9A243.1,243.1,0,0,1,0,7.229Z" transform="matrix(-0.995, 0.105, -0.105, -0.995, 676.9, 563.095)"/><path class="k" d="M-276.758,5811.714l62.654-5.51,2.868-7.762s-13.576-1.486-32.543,1.156A86.206,86.206,0,0,0-276.758,5811.714Z" transform="translate(896.297 -5229.113)"/><path class="k" d="M-207.243,5811.714l-66.472-5.51-3.043-7.762s14.4-1.486,34.527,1.156A94.728,94.728,0,0,1-207.243,5811.714Z" transform="translate(827.943 -5229.113)"/><path class="a" d="M0,0H21a0,0,0,0,1,0,0V0A10,10,0,0,1,11,10H10A10,10,0,0,1,0,0V0A0,0,0,0,1,0,0Z" transform="translate(607 587)"/></g></svg>