<svg xmlns="http://www.w3.org/2000/svg" xmlns:xlink="http://www.w3.org/1999/xlink" width="117.111" height="130.156" viewBox="0 0 117.111 130.156"><defs><style>.a,.c{fill:#fff;}.b{fill:#d8d8d8;}.c{stroke:#d8d8d8;stroke-width:1.5px;}.d,.k,.l,.n,.p{fill:none;}.d{stroke:#5fffaa;stroke-width:3px;}.d,.n{stroke-linecap:round;}.e{fill:#8a8a8a;}.f{fill:#f2cd9b;}.g{fill:#979797;opacity:0.24;}.h{fill:#ff4b7c;}.i{fill:#ffee59;}.j{fill:#b9b5b5;}.k{stroke:#f1e156;}.l{stroke:#dcd16b;}.m{fill:#3bfa95;}.n{stroke:#fff;stroke-width:5px;}.o{stroke:none;}.q{filter:url(#c);}.r{filter:url(#a);}</style><filter id="a" x="0" y="6.325" width="100.011" height="123.07" filterUnits="userSpaceOnUse"><feOffset dy="3" input="SourceAlpha"/><feGaussianBlur stdDeviation="3" result="b"/><feFlood flood-opacity="0.161"/><feComposite operator="in" in2="b"/><feComposite in="SourceGraphic"/></filter><filter id="c" x="47.491" y="6.325" width="47.683" height="47.682" filterUnits="userSpaceOnUse"><feOffset dy="3" input="SourceAlpha"/><feGaussianBlur stdDeviation="3" result="d"/><feFlood flood-opacity="0.161"/><feComposite operator="in" in2="d"/><feComposite in="SourceGraphic"/></filter></defs><g transform="translate(-1352.684 -462.844)"><g transform="translate(1361.684 475.168)"><g class="r" transform="matrix(1, 0, 0, 1, -9, -12.32)"><path class="a" d="M-416.43,5583.777h-50.886v105.07h82.011v-77.194Z" transform="translate(476.32 -5571.45)"/></g><rect class="b" width="42" height="2" rx="0.7" transform="translate(23.317 30.832)"/><rect class="b" width="42" height="3" rx="0.7" transform="translate(23.317 59.832)"/><rect class="b" width="42" height="3" rx="0.7" transform="translate(23.317 73.832)"/><rect class="b" width="42" height="1" rx="0.5" transform="translate(23.317 47.832)"/><g class="q" transform="matrix(1, 0, 0, 1, -9, -12.32)"><path class="a" d="M-444.769,5584.491l-3.077,29.682,29.683-5.428Z" transform="translate(504.34 -5572.17)"/></g><g class="c" transform="translate(9.317 28.832)"><rect class="o" width="8" height="7" rx="1.5"/><rect class="p" x="0.75" y="0.75" width="6.5" height="5.5" rx="0.75"/></g><g class="c" transform="translate(9.317 43.832)"><rect class="o" width="8" height="7" rx="1.5"/><rect class="p" x="0.75" y="0.75" width="6.5" height="5.5" rx="0.75"/></g><g class="c" transform="translate(9.317 57.832)"><rect class="o" width="8" height="7" rx="1.5"/><rect class="p" x="0.75" y="0.75" width="6.5" height="5.5" rx="0.75"/></g><g class="c" transform="translate(9.317 71.832)"><rect class="o" width="8" height="7" rx="1.5"/><rect class="p" x="0.75" y="0.75" width="6.5" height="5.5" rx="0.75"/></g><path class="d" d="M-624.947,5751.167l3.461,2.614,8.2-8.38" transform="translate(636.347 -5719.779)"/><path class="d" d="M-624.947,5751.167l3.461,2.614,8.2-8.38" transform="translate(635.344 -5690.702)"/></g><g transform="translate(226 104)"><path class="e" d="M-452.54,5612.355l-3.926,11.5,12.922-3.317Z" transform="translate(1606.692 -5174.28)"/><path class="f" d="M-447.211,5603.442l-8.121,20.766,8.121,7.186,20.058-8.48Z" transform="translate(1608.838 -5184.72)"/><path class="g" d="M-434.961,5610.636c-6.086,2.747-19.734,9.8-19.734,9.8l5.048,4.274,20.495-8.414S-428.875,5607.886-434.961,5610.636Z" transform="translate(1610.836 -5177.705)"/><path class="h" d="M23.155,10.563,15.077,2.485a7.534,7.534,0,0,0-11.184,0L0,6.732,18.641,25.994l4.514-4.867a7.876,7.876,0,0,0,2.485-5.592A7.671,7.671,0,0,0,23.155,10.563Z" transform="matrix(1, -0.017, 0.017, 1, 1213.476, 359.291)"/><rect class="i" width="30.139" height="67.233" rx="1" transform="matrix(0.719, 0.695, -0.695, 0.719, 1207.435, 369.865)"/><rect class="j" width="30.139" height="7.843" rx="1" transform="matrix(0.719, 0.695, -0.695, 0.719, 1212.912, 364.879)"/><path class="g" d="M.974,0a6.162,6.162,0,0,1,5.2,3.315c1.161,2.338,1,6.151,1.1,8.6.018.571-.059,1.216.249,1.282,1.059.227,1.381-.3,1.737.478a9.058,9.058,0,0,1,.149,2.979s.11,2.065.1,3.089a1.265,1.265,0,0,1-.669,1.269L9,21.393,8.72,86.675a1.154,1.154,0,0,1-.974,1.274c-7.31,0-7.593,1.7-7.542-2.092S0,1.274,0,1.274A1.154,1.154,0,0,1,.974,0Z" transform="matrix(0.719, 0.695, -0.695, 0.719, 1236.953, 369.748)"/><line class="k" y1="47.707" x2="46.733" transform="translate(1166.555 376.184)"/><line class="l" y1="47.707" x2="46.733" transform="translate(1177.265 386.894)"/></g><circle class="m" cx="22.5" cy="22.5" r="22.5" transform="translate(1414 548)"/><g transform="translate(1428.692 563.11)"><path class="n" d="M0,15.458V0" transform="translate(15.458 7.728) rotate(90)"/><path class="n" d="M0,15.458V0" transform="translate(7.729 0)"/></g></g></svg>