<svg xmlns="http://www.w3.org/2000/svg" width="146.198" height="85.101" viewBox="0 0 146.198 85.101"><defs><style>.a{fill:#d3d3d3;}.b{fill:#ececec;}.c{fill:#b1b1b1;}.d{fill:#ff4b7c;}.e{fill:#5fffaa;}.f{fill:#ffee59;}.g{fill:#6890ff;}.h{fill:#3bfa95;}.i{fill:none;stroke:#fff;stroke-linecap:round;stroke-width:5px;}</style></defs><g transform="translate(-978.802 -781.764)"><path class="a" d="M-5895.007,6827.2c10.759,7.336,20.573.556,32.713-8.137,7.382-5.287,15.345-13.953,27.294-13.953,12.1,0,22.125,10.79,31.5,16.4,12.76,7.632,23.229,11.375,31.085,3.906,12.384-11.01-5.208-52.569-18.88-68.518s-25.549,1.137-42.19,1.137-29.3-16.6-41.664-4.231S-5912.909,6814.993-5895.007,6827.2Z" transform="translate(6880 -5963.454)"/><path class="b" d="M-5895.007,6827.2c10.759,7.336,20.573.556,32.713-8.137,7.382-5.287,15.345-13.953,27.294-13.953,12.1,0,22.125,10.79,31.5,16.4,12.76,7.632,23.229,11.375,31.085,3.906,12.384-11.01-5.208-52.569-18.88-68.518s-25.549,1.137-42.19,1.137-29.3-16.6-41.664-4.231S-5912.909,6814.993-5895.007,6827.2Z" transform="translate(6880 -5967.454)"/><path class="c" d="M-2361.859,7590.6h8.282v-7.933h7.813v-8.046h-8.106v-7.754h-7.989v7.754h-7.989v8.046h7.989Z" transform="translate(3370.115 -6760.685)"/><circle class="d" cx="5.5" cy="5.5" r="5.5" transform="translate(1074 800)"/><circle class="e" cx="5.5" cy="5.5" r="5.5" transform="translate(1085 813)"/><circle class="f" cx="5.5" cy="5.5" r="5.5" transform="translate(1074 824)"/><circle class="g" cx="5.5" cy="5.5" r="5.5" transform="translate(1062 813)"/><circle class="h" cx="22.5" cy="22.5" r="22.5" transform="translate(1080 821)"/><g transform="translate(1094.692 836.11)"><path class="i" d="M0,15.458V0" transform="translate(15.458 7.728) rotate(90)"/><path class="i" d="M0,15.458V0" transform="translate(7.729 0)"/></g></g></svg>