<svg xmlns="http://www.w3.org/2000/svg" width="124.471" height="134.707" viewBox="0 0 124.471 134.707"><defs><style>.a{fill:#597ee4;}.b{fill:#6890ff;}.c{fill:#fff;}.d{fill:#3f5fb8;}.e{fill:#a5704e;}.f{fill:#fecabc;}.g{fill:#f5c0b2;}.h{fill:#92694e;}.i{fill:#547ae3;}.j{fill:#f3f3f3;}.k{fill:#ff4b7c;}.l{fill:#f34d7b;}.m{fill:#4d71d5;}.n{fill:#f0f0f0;}.o{fill:#e2dede;}</style></defs><g transform="translate(-977.092 -460.293)"><path class="a" d="M3710.092,7425.489V7449H3772.5s1.457-18.573-9.714-29.228-34.323-13.132-34.323-13.132Z" transform="translate(-2671 -6869)"/><path class="b" d="M3772.563,7425.489V7449h-62.408s-1.457-18.573,9.714-29.228,34.323-13.132,34.323-13.132Z" transform="translate(-2733 -6869)"/><path class="c" d="M21.932,0,43.864,49.028a123.051,123.051,0,0,1-21.932,2.289A123.051,123.051,0,0,1,0,49.028Z" transform="translate(1060.83 586.433) rotate(180)"/><path class="d" d="M-7210.775,6841.09a90.825,90.825,0,0,1,21.661-2.774,105.921,105.921,0,0,1,21.5,2.774l-.53,2.228a110.319,110.319,0,0,0-20.974-2.228,104.585,104.585,0,0,0-20.6,2.5Z" transform="translate(8227.741 -6305.674)"/><g transform="translate(7549 -6539)"><path class="e" d="M3044.161,8103.364s.352-9.694,5.346-13.9,14.6-1.819,23.184-4.258,10.69-4.981,10.69-4.981,4.461.509,7.572,5.968,4.868,15.866,4.868,15.866,5.859-19.136,3.183-28.085-13.888-7.707-13.888-7.707a17.1,17.1,0,0,0-8.6-7.033c-6.043-2.407-15.962-2.728-26.117,3.621C3030.128,8075.521,3044.161,8103.364,3044.161,8103.364Z" transform="translate(-9578.203 -1058.343)"/><path class="f" d="M3692.017,7413.072l17.792,11.726,18.561-12.35s-.923-4.129-1.125-5.674a22.006,22.006,0,0,1,0-3.825s-9.191,6.18-17.436,6.18-15.887-7.038-15.887-7.038a22.283,22.283,0,0,1-.7,4.683A53.511,53.511,0,0,0,3692.017,7413.072Z" transform="translate(-10220 -336.563)"/><path class="g" d="M3693.689,7401.926s8.43,13.589,16.8,13.854,16.728-12.971,16.728-12.971-7.746,6.757-16.118,6.492S3693.689,7401.926,3693.689,7401.926Z" transform="translate(-10220 -334)"/><ellipse class="f" cx="28" cy="35.5" rx="28" ry="35.5" transform="translate(-6537 7004)"/><path class="g" d="M3889,7420.061v-71.855s28.256-1.793,27.227,34.592S3889,7420.061,3889,7420.061Z" transform="translate(-10398 -344)"/><path class="e" d="M3044.161,8103.364s.352-9.694,5.346-13.9,14.6-1.819,23.184-4.258,10.69-4.981,10.69-4.981,4.461.509,7.572,5.968,4.868,15.866,4.868,15.866,5.859-19.136,3.183-28.085-13.888-7.707-13.888-7.707a17.1,17.1,0,0,0-8.6-7.033c-6.043-2.407-15.962-2.728-26.117,3.621C3030.128,8075.521,3044.161,8103.364,3044.161,8103.364Z" transform="translate(-9578.203 -1058.343)"/><path class="h" d="M3069.272,8085.938s2.192-.388,3.419-.736c8.581-2.437,10.69-4.981,10.69-4.981s4.461.509,7.572,5.968,4.868,15.866,4.868,15.866,5.859-19.136,3.183-28.085-13.888-7.707-13.888-7.707a17.1,17.1,0,0,0-8.6-7.033,42.962,42.962,0,0,0-7.244-1.384Z" transform="translate(-9578.203 -1058.343)"/><ellipse class="f" cx="28" cy="35.5" rx="28" ry="35.5" transform="translate(-6537 7004)"/><path class="g" d="M3889,7420.061v-71.855s28.256-1.793,27.227,34.592S3889,7420.061,3889,7420.061Z" transform="translate(-10398 -344)"/><path class="h" d="M3069.272,8085.938s2.192-.388,3.419-.736c8.581-2.437,10.69-4.981,10.69-4.981s4.461.509,7.572,5.968,4.868,15.866,4.868,15.866,5.859-19.136,3.183-28.085-13.888-7.707-13.888-7.707a17.1,17.1,0,0,0-8.6-7.033,42.962,42.962,0,0,0-7.244-1.384Z" transform="translate(-9578.203 -1058.343)"/><ellipse class="f" cx="28" cy="35.5" rx="28" ry="35.5" transform="translate(-6537 7004)"/><path class="g" d="M3889,7420.061v-71.855s28.256-1.793,27.227,34.592S3889,7420.061,3889,7420.061Z" transform="translate(-10398 -344)"/><path class="e" d="M3044.161,8103.364s.352-9.694,5.346-13.9,14.6-1.819,23.184-4.258,10.69-4.981,10.69-4.981,4.461.509,7.572,5.968,4.868,15.866,4.868,15.866,5.859-19.136,3.183-28.085-13.888-7.707-13.888-7.707a17.1,17.1,0,0,0-8.6-7.033c-6.043-2.407-15.962-2.728-26.117,3.621C3030.128,8075.521,3044.161,8103.364,3044.161,8103.364Z" transform="translate(-9578.203 -1058.343)"/><path class="h" d="M3069.272,8085.938s2.192-.388,3.419-.736c8.581-2.437,10.69-4.981,10.69-4.981s4.461.509,7.572,5.968,4.868,15.866,4.868,15.866,5.859-19.136,3.183-28.085-13.888-7.707-13.888-7.707a17.1,17.1,0,0,0-8.6-7.033,42.962,42.962,0,0,0-7.244-1.384Z" transform="translate(-9578.203 -1058.343)"/></g><path class="i" d="M-6571.353,6976.563c.652.266,11.487,1.931,11.487,1.931l-4.087-33.275-2.918-.263-21.327,50.714-21.078-51.879h-2.708s-4.634,34.792-4.279,34.7,11.1-.8,11.1-.8l-.711,7.726,17.674,13.047,17.852-13.047Z" transform="translate(7627 -6408.478)"/><path class="j" d="M21.932,0V44.167L0,42.2Z" transform="translate(1060.83 586.434) rotate(180)"/><path class="k" d="M-6590.255,6958.139c.291.4,5.694,6.792,5.694,6.792l5.443-6.792-5.443-6.543Z" transform="translate(7623.656 -6410.083)"/><path class="k" d="M-6587.688,6961.834c-.054.871-2.568,26.22-2.568,26.22l4.916,16,6.268-16.936-2.366-24.429Z" transform="translate(7623.656 -6410.856)"/><path class="l" d="M-6585.475,7004.056l5.864-16.936-2.378-25.341-3.144.689Z" transform="translate(7624.193 -6410.856)"/><path class="m" d="M-6571.215,6976.638c.652.266,11.349,1.856,11.349,1.856l-4.038-34.332-2.918-.263-21.376,51.771v2.8l17.852-13.047Z" transform="translate(7627 -6408.478)"/><path class="l" d="M.007,14.306,5.576,7.669.238,1.09Z" transform="matrix(1, -0.017, 0.017, 1, 1038.814, 540.491)"/><path class="n" d="M-7626.991,6848.928l-13.266,16.6-8.562-20.508s7.17-2.154,9.44-1.812S-7626.991,6848.928-7626.991,6848.928Z" transform="translate(8667.08 -6307.396)"/><rect class="c" width="54" height="15" transform="translate(1018 580)"/><path class="o" d="M-7648.818,6848.928l13.266,16.6,8.562-20.508s-7.17-2.154-9.44-1.812S-7648.818,6848.928-7648.818,6848.928Z" transform="translate(8686.08 -6307.396)"/></g></svg>