<svg xmlns="http://www.w3.org/2000/svg" width="1328.391" height="188.949" viewBox="0 0 1328.391 188.949"><defs><style>.a{fill:#5c5c5c;}.b,.d{fill:#c371f9;}.c,.d{stroke:none;}</style></defs><g transform="translate(433 -22654.965)"><g class="a" transform="translate(-433 22674.422)"><path class="c" d="M 1275.46728515625 168.9930725097656 L 52.92401123046875 168.9930725097656 C 38.81034469604492 168.9930725097656 25.54501152038574 168.2085723876953 15.57184505462646 166.7842407226563 C 10.74151229858398 166.09423828125 6.955678939819336 165.2930755615234 4.31901216506958 164.4027404785156 C 0.8721787333488464 163.2389068603516 0.5000120401382446 162.2887420654297 0.5000120401382446 161.9342346191406 L 0.5000120401382446 10.50007438659668 L 1327.891357421875 10.50007438659668 L 1327.891357421875 161.9342346191406 C 1327.891357421875 162.2887420654297 1327.519165039063 163.2389068603516 1324.072387695313 164.4027404785156 C 1321.435668945313 165.2930755615234 1317.64990234375 166.09423828125 1312.819458007813 166.7842407226563 C 1302.846313476563 168.2085723876953 1289.5810546875 168.9930725097656 1275.46728515625 168.9930725097656 Z"/><path class="d" d="M 1 11.00007629394531 L 1 161.9342346191406 C 1 161.9424133300781 1.0947265625 162.7862396240234 4.47900390625 163.9290771484375 C 7.086669921875 164.8095703125 10.842529296875 165.6037445068359 15.6424560546875 166.2892456054688 C 25.593017578125 167.7104034423828 38.8333740234375 168.4930725097656 52.924072265625 168.4930725097656 L 1275.46728515625 168.4930725097656 C 1289.557983398438 168.4930725097656 1302.79833984375 167.7104034423828 1312.748901367188 166.2892456054688 C 1317.548828125 165.6037445068359 1321.3046875 164.8095703125 1323.912353515625 163.9290771484375 C 1327.296630859375 162.7862396240234 1327.391357421875 161.9424133300781 1327.391357421875 161.9342346191406 L 1327.391357421875 11.00007629394531 L 1 11.00007629394531 M 0 10.00007629394531 L 1328.391357421875 10.00007629394531 L 1328.391357421875 161.9342346191406 C 1328.391357421875 166.1089019775391 1304.696533203125 169.4930725097656 1275.46728515625 169.4930725097656 L 52.924072265625 169.4930725097656 C 23.69482421875 169.4930725097656 0 166.1089019775391 0 161.9342346191406 L 0 10.00007629394531 Z"/></g><path class="b" d="M52.924,0H1275.467c29.229,0,52.924,5.747,52.924,12.836V62.895H0V12.836C0,5.747,23.695,0,52.924,0Z" transform="translate(-433 22654.965)"/></g></svg>