<svg xmlns="http://www.w3.org/2000/svg" width="283" height="586.404" viewBox="0 0 283 586.404"><defs><style>.a,.e{fill:#c371f9;}.b{fill:#fff;font-size:20px;font-family:SegoeUI-Bold, Segoe UI;font-weight:700;}.c{fill:none;}.d,.e{stroke:none;}</style></defs><g transform="translate(-1626 212.844)"><path class="a" d="M11.275,0h260.45C277.952,0,283,4.477,283,10V49H0V10C0,4.477,5.048,0,11.275,0Z" transform="translate(1626 -212.844)"/><text class="b" transform="translate(1760 -180)"><tspan x="-39.458" y="0">Palabras</tspan></text><g class="c" transform="translate(1626 -176.844)"><path class="d" d="M283,10V524.793c0,14.145-5.048,25.612-11.275,25.612H11.275C5.048,550.4,0,538.938,0,524.793V10Z"/><path class="e" d="M 1 11 L 1 524.792724609375 C 1 531.4981689453125 2.142669677734375 537.7867431640625 4.21759033203125 542.5 C 5.20013427734375 544.73193359375 6.3310546875 546.4715576171875 7.579010009765625 547.6705932617188 C 8.776397705078125 548.821044921875 10.01986694335938 549.4043579101563 11.27487182617188 549.4043579101563 L 271.7250671386719 549.4043579101563 C 272.9800720214844 549.4043579101563 274.2235412597656 548.821044921875 275.4209289550781 547.6705932617188 C 276.6688537597656 546.4715576171875 277.7998657226563 544.73193359375 278.7824096679688 542.5 C 280.8573303222656 537.7867431640625 282 531.4981689453125 282 524.792724609375 L 282 11 L 1 11 M 0 10 L 283 10 L 283 524.792724609375 C 283 538.9375610351563 277.9520568847656 550.4043579101563 271.7250671386719 550.4043579101563 L 11.27487182617188 550.4043579101563 C 5.047943115234375 550.4043579101563 0 538.9375610351563 0 524.792724609375 L 0 10 Z"/></g></g></svg>