<svg xmlns="http://www.w3.org/2000/svg" width="1360" height="844" viewBox="0 0 1360 844"><defs><style>.a{fill:#5c5c5c;stroke:#707070;}.b{fill:#6e6e6e;}.c{fill:#686868;}.d{fill:#616161;}.e{fill:#706f6f;}.f,.g,.h,.j{fill:none;}.g{stroke:#3ada69;stroke-width:2px;}.h{stroke:#dd457d;stroke-width:1.2px;}.i,.k,.l{stroke:none;}.k{fill:#60ccd8;}.l{fill:#f5ff60;}</style></defs><g transform="translate(3044 -21993)"><g class="a" transform="translate(-3044 21993)"><rect class="i" width="1360" height="844"/><rect class="j" x="0.5" y="0.5" width="1359" height="843"/></g><rect class="b" width="86" height="22" rx="6" transform="translate(-2709 22384)"/><rect class="c" width="82" height="20" rx="6" transform="translate(-2754 22403)"/><path class="b" d="M0,0H76a0,0,0,0,1,0,0V5a5,5,0,0,1-5,5H5A5,5,0,0,1,0,5V0A0,0,0,0,1,0,0Z" transform="translate(-2748 22403)"/><rect class="c" width="33" height="8" rx="2" transform="translate(-2647 22415)"/><path class="c" d="M6,0H210.27l-.427,20H6c-3.313,0-6-2.239-6-5V5C0,2.239,2.686,0,6,0Z" transform="translate(-1895.585 22072)"/><path class="b" d="M0,0H199a0,0,0,0,1,0,0V12a0,0,0,0,1,0,0H5A5,5,0,0,1,0,7V0A0,0,0,0,1,0,0Z" transform="translate(-1884 22072)"/><rect class="b" width="170" height="24" rx="7" transform="translate(-1871 22049)"/><rect class="b" width="129" height="24" rx="7" transform="translate(-1850 22033)"/><path class="c" d="M5,0H130a0,0,0,0,1,0,0V17a0,0,0,0,1,0,0H5a5,5,0,0,1-5-5V5A5,5,0,0,1,5,0Z" transform="translate(-1816 22096)"/><path class="b" d="M0,0H121a0,0,0,0,1,0,0V9a0,0,0,0,1,0,0H3A3,3,0,0,1,0,6V0A0,0,0,0,1,0,0Z" transform="translate(-1807 22096)"/><path class="d" d="M-1544.992,21206.516s5.476.15,8.929,1.857c3.162,1.561,4.31,4.691,4.59,4.65.3-.045,2.694-3.8,6.344-5.219,3.467-1.344,8.2-.338,8.2-.338s-3.165-2.863-6.8-2.2-7.745,4.855-7.745,4.855-2.156-3.615-5.535-4.518S-1544.992,21206.516-1544.992,21206.516Z" transform="translate(-1339.66 1503.275)"/><path class="e" d="M0,0H98a7,7,0,0,1,7,7V26a7,7,0,0,1-7,7H0a0,0,0,0,1,0,0V0A0,0,0,0,1,0,0Z" transform="translate(-3044 22672)"/><path class="e" d="M0,0H61a7,7,0,0,1,7,7V18a7,7,0,0,1-7,7H0a0,0,0,0,1,0,0V0A0,0,0,0,1,0,0Z" transform="translate(-3044 22655)"/><path class="c" d="M0,0H179a7,7,0,0,1,7,7V25a7,7,0,0,1-7,7H0a0,0,0,0,1,0,0V0A0,0,0,0,1,0,0Z" transform="translate(-3044 22700)"/><path class="e" d="M0,0H168a0,0,0,0,1,0,0V16a7,7,0,0,1-7,7H0a0,0,0,0,1,0,0V0A0,0,0,0,1,0,0Z" transform="translate(-3044 22700)"/><path class="c" d="M0,0H130a5,5,0,0,1,5,5V16a5,5,0,0,1-5,5H0a0,0,0,0,1,0,0V0A0,0,0,0,1,0,0Z" transform="translate(-3044 22743)"/><path class="e" d="M0,0H119a0,0,0,0,1,0,0V9a5,5,0,0,1-5,5H0a0,0,0,0,1,0,0V0A0,0,0,0,1,0,0Z" transform="translate(-3044 22743)"/><path class="c" d="M3.895.14,140.536,0V16.166L3,16.026c-1.657,0-3-1.794-3-4.006V4.006A4.173,4.173,0,0,1,3.895.14Z" transform="translate(-1825.585 22639)"/><path class="b" d="M0,0H134a0,0,0,0,1,0,0V11a0,0,0,0,1,0,0H4A4,4,0,0,1,0,7V0A0,0,0,0,1,0,0Z" transform="translate(-1819 22639)"/><path class="c" d="M5.388,0H192.724l-.037,23.285H5.388A5.617,5.617,0,0,1,0,17.464V5.821A5.617,5.617,0,0,1,5.388,0Z" transform="translate(-1878.447 22610)"/><path class="b" d="M0,0H171a0,0,0,0,1,0,0V12a0,0,0,0,1,0,0H5A5,5,0,0,1,0,7V0A0,0,0,0,1,0,0Z" transform="translate(-1856 22610)"/><rect class="b" width="133" height="22" rx="7" transform="translate(-1832 22592)"/><rect class="b" width="83" height="15" rx="7" transform="translate(-1809 22583)"/><rect class="b" width="51" height="11" rx="4" transform="translate(-1929 22594)"/><path class="b" d="M0,0H341a8,8,0,0,1,8,8V35a8,8,0,0,1-8,8H0a0,0,0,0,1,0,0V0A0,0,0,0,1,0,0Z" transform="translate(-3044 22023)"/><path class="c" d="M0,0H235a8,8,0,0,1,8,8V29a8,8,0,0,1-8,8H0a0,0,0,0,1,0,0V0A0,0,0,0,1,0,0Z" transform="translate(-3044 22065)"/><path class="b" d="M0,0H226a0,0,0,0,1,0,0V19a8,8,0,0,1-8,8H0a0,0,0,0,1,0,0V0A0,0,0,0,1,0,0Z" transform="translate(-3044 22063)"/><rect class="b" width="146" height="24" rx="7" transform="translate(-2771 22084)"/><rect class="b" width="124" height="28" rx="8" transform="translate(-2213 22736)"/><rect class="c" width="139" height="28" rx="8" transform="translate(-2175 22755)"/><path class="b" d="M0,0H130a0,0,0,0,1,0,0V11a7,7,0,0,1-7,7H7a7,7,0,0,1-7-7V0A0,0,0,0,1,0,0Z" transform="translate(-2175 22755)"/><rect class="b" width="40" height="12" rx="4" transform="translate(-2230 22771)"/><rect class="b" width="152" height="36" rx="8" transform="translate(-2064 22340)"/><rect class="c" width="157" height="32" rx="8" transform="translate(-2131 22371)"/><path class="b" d="M0,0H131a0,0,0,0,1,0,0V11a8,8,0,0,1-8,8H8a8,8,0,0,1-8-8V0A0,0,0,0,1,0,0Z" transform="translate(-2105 22371)"/><rect class="b" width="52" height="19" rx="7" transform="translate(-1942 22389)"/><g transform="translate(-2798.275 22779.264)"><g class="f" transform="matrix(0.966, 0.259, -0.259, 0.966, 6.184, 0)"><path class="i" d="M13.653,0,27.307,23.893H0Z"/><path class="k" d="M 13.65328121185303 4.031139373779297 L 3.446365356445313 21.89324188232422 L 23.86019706726074 21.89324188232422 L 13.65328121185303 4.031139373779297 M 13.65328121185303 0 L 27.30656051635742 23.89324188232422 L 1.9073486328125e-06 23.89324188232422 L 13.65328121185303 0 Z"/></g><g class="f" transform="translate(763.108 9.971) rotate(-22)"><path class="i" d="M10.21,0,20.42,18.742H0Z"/><path class="l" d="M 10.20984649658203 4.180809020996094 L 3.366998672485352 16.74223709106445 L 17.05269432067871 16.74223709106445 L 10.20984649658203 4.180809020996094 M 10.20984649658203 -1.9073486328125e-06 L 20.41969680786133 18.74223709106445 L -3.814697265625e-06 18.74223709106445 L 10.20984649658203 -1.9073486328125e-06 Z"/></g><g class="g" transform="translate(538.275 15.737)"><ellipse class="i" cx="13" cy="13.5" rx="13" ry="13.5"/><ellipse class="j" cx="13" cy="13.5" rx="12" ry="12.5"/></g></g><g transform="translate(-2980.256 22000)"><g class="h" transform="translate(67.256 271.001)"><rect class="i" width="12" height="12"/><rect class="j" x="0.6" y="0.6" width="10.8" height="10.8"/></g><g class="h" transform="translate(4.206 0) rotate(22)"><rect class="i" width="11.228" height="11.228"/><rect class="j" x="0.6" y="0.6" width="10.028" height="10.028"/></g></g></g></svg>