<svg xmlns="http://www.w3.org/2000/svg" width="112.482" height="172.066" viewBox="0 0 112.482 172.066"><defs><style>.a{fill:#ffc699;}.b{fill:#efbc94;}.c{fill:#3bfa95;}.d{fill:#3ff093;}.e{fill:#f89e46;}.f{fill:#bb8e62;}.g{fill:#8c8c8c;}.h{fill:#fff070;}.i{fill:#707070;}.i,.j{stroke:#707070;}.j,.l{fill:none;}.j{stroke-linecap:round;}.k{stroke:none;}</style></defs><g transform="translate(0 -0.002)"><rect class="a" width="13" height="13" rx="0.3" transform="translate(70.733 121.082)"/><path class="a" d="M11.562,0H63.59A11.39,11.39,0,0,1,75.152,11.209V67.254A11.39,11.39,0,0,1,63.59,78.463H11.562A11.39,11.39,0,0,1,0,67.254V11.209A11.39,11.39,0,0,1,11.562,0Z" transform="translate(18.027 22.67)"/><path class="b" d="M11.562,0h4.827V80.93H11.562A11.562,11.562,0,0,1,0,69.369V11.561A11.562,11.562,0,0,1,11.562,0Z" transform="translate(18.027 20.203)"/><path class="c" d="M5817.156,12674.641h36.635v32.588h-14.467v-22.953h-6.415v22.953h-15.753Z" transform="translate(-5777.433 -12538.318)"/><path class="d" d="M5927.16,12709.226h4.8v-34.8h-4.8Z" transform="translate(-5888.023 -12540.315)"/><rect class="e" width="20" height="7" rx="0.2" transform="translate(37.732 42.082)"/><rect class="c" width="40" height="33" rx="0.5" transform="translate(37.732 101.082)"/><rect class="f" width="19.789" height="10.554" rx="3" transform="translate(37.815 161.516)"/><rect class="f" width="19.789" height="10.554" rx="3" transform="translate(59.582 161.516)"/><path class="c" d="M6.7,1.565,105.565,0a6.549,6.549,0,0,1,6.487,6.879,7.054,7.054,0,0,1-6.7,7.088L6.488,15.532A6.549,6.549,0,0,1,0,8.653,7.054,7.054,0,0,1,6.7,1.565Z" transform="translate(0 44.645) rotate(-14)"/><path class="c" d="M13.192,0H52.77A13.193,13.193,0,0,1,65.963,13.193V26.385A13.192,13.192,0,0,1,52.771,39.577H13.193A13.193,13.193,0,0,1,0,26.384V13.192A13.192,13.192,0,0,1,13.192,0Z" transform="translate(12.738 15.958) rotate(-14)"/><path class="g" d="M5864.976,12673.194l62.955-18.944,2.947,7.6-64.913,16.792Z" transform="translate(-5847.113 -12637.178)"/><path class="h" d="M1.979,0H4.617A1.979,1.979,0,0,1,6.6,1.979v9.235a1.979,1.979,0,0,1-1.979,1.979H1.979A1.979,1.979,0,0,1,0,11.213V1.979A1.979,1.979,0,0,1,1.979,0Z" transform="translate(62.804 16.293) rotate(-13)"/><path class="d" d="M5927.16,12706.983h4.8v-32.554h-4.8Z" transform="translate(-5886.045 -12573.296)"/><path class="c" d="M.5,0h12a.5.5,0,0,1,.5.5V27a0,0,0,0,1,0,0H0a0,0,0,0,1,0,0V.5A.5.5,0,0,1,.5,0Z" transform="translate(70.733 101.082)"/><path class="g" d="M5810.2,12677.445h38.259v-3.781H5810.2Z" transform="translate(-5771.07 -12540.208)"/><rect class="a" width="14" height="13" rx="0.5" transform="translate(30.732 121.082)"/><path class="c" d="M.5,0h13a.5.5,0,0,1,.5.5V27a0,0,0,0,1,0,0H0a0,0,0,0,1,0,0V.5A.5.5,0,0,1,.5,0Z" transform="translate(30.732 101.082)"/><path class="d" d="M5927.16,12697.072h1.225v-22.65h-1.225Z" transform="translate(-5849.763 -12569.553)"/><path class="d" d="M5927.16,12700.81h4.8v-26.38h-4.8Z" transform="translate(-5895.94 -12573.296)"/><rect class="h" width="6" height="7" rx="0.3" transform="translate(57.733 134.082)"/><rect class="e" width="20" height="7" rx="0.2" transform="translate(70.733 42.082)"/><path class="e" d="M13.438.9V26.225l53.472.265V.9h8.242V30.647c0,3.286-5.176,5.949-11.562,5.949H11.562C5.176,36.6,0,33.933,0,30.647V.9Z" transform="translate(18.027 64.536)"/><rect class="e" width="13.918" height="13.192" rx="0.5" transform="translate(18.027 61.557)"/><rect class="e" width="8.575" height="19.129" rx="0.3" transform="translate(84.647 61.557)"/><rect class="e" width="18.865" height="13.192" rx="0.5" transform="translate(52.329 87.941)"/><g class="i" transform="translate(50.733 55.082)"><ellipse class="k" cx="3.5" cy="6.5" rx="3.5" ry="6.5"/><ellipse class="l" cx="3.5" cy="6.5" rx="3" ry="6"/></g><g class="i" transform="translate(70.733 55.082)"><ellipse class="k" cx="3.5" cy="6.5" rx="3.5" ry="6.5"/><ellipse class="l" cx="3.5" cy="6.5" rx="3" ry="6"/></g><path class="j" d="M5829.2,12664.816h23.09" transform="translate(-5776.87 -12584.682)"/></g></svg>