<svg xmlns="http://www.w3.org/2000/svg" width="318.889" height="805.619" viewBox="0 0 318.889 805.619"><defs><style>.a,.e{fill:#c371f9;}.b{fill:#fff;font-size:20px;font-family:SegoeUI-Bold, Segoe UI;font-weight:700;}.c{fill:none;}.d,.e{stroke:none;}</style></defs><g transform="translate(-7842 -13542.156)"><g transform="translate(7842 13542.156)"><path class="a" d="M12.7,0h293.48c7.017,0,12.7,4.477,12.7,10V49H0V10C0,4.477,5.688,0,12.7,0Z" transform="translate(0 0)"/><text class="b" transform="translate(151 32.844)"><tspan x="-39.458" y="0">Palabras</tspan></text><g class="c" transform="translate(0 36)"><path class="d" d="M318.889,10V733.618c0,19.883-5.688,36-12.7,36H12.7c-7.017,0-12.7-16.118-12.7-36V10Z"/><path class="e" d="M 0.999969482421875 11 L 0.999969482421875 733.6181640625 C 0.999969482421875 743.1239013671875 2.30126953125 752.04638671875 4.664093017578125 758.7418823242188 C 6.8792724609375 765.01904296875 9.810089111328125 768.619140625 12.70477294921875 768.619140625 L 306.1843872070313 768.619140625 C 309.0790710449219 768.619140625 312.0098876953125 765.01904296875 314.2250671386719 758.7418823242188 C 316.587890625 752.04638671875 317.8891906738281 743.1239013671875 317.8891906738281 733.6181640625 L 317.8891906738281 11 L 0.999969482421875 11 M -3.0517578125e-05 10 L 318.8891906738281 10 L 318.8891906738281 733.6181640625 C 318.8891906738281 753.5008544921875 313.2010803222656 769.619140625 306.1843872070313 769.619140625 L 12.70477294921875 769.619140625 C 5.688079833984375 769.619140625 -3.0517578125e-05 753.5008544921875 -3.0517578125e-05 733.6181640625 L -3.0517578125e-05 10 Z"/></g></g></g></svg>