<svg xmlns="http://www.w3.org/2000/svg" width="62.147" height="57.772" viewBox="0 0 62.147 57.772"><g transform="translate(-118.643 -397.427)"><path d="M3692.129,7405.6l8.828,9.477,9.108-9.477a2.672,2.672,0,0,1-.4-1.176,10.946,10.946,0,0,1,0-1.91s-4.589,3.085-8.706,3.085-7.932-3.514-7.932-3.514a11.123,11.123,0,0,1-.348,2.338A5.678,5.678,0,0,1,3692.129,7405.6Z" transform="translate(-3551.499 -6971.594)" fill="#fecabc"/><path d="M3710.092,7416.052v11.739h31.16s.727-9.273-4.85-14.593-17.137-6.557-17.137-6.557Z" transform="translate(-3560.493 -6972.592)" fill="#9964f7"/><path d="M3741.283,7416.052v11.739h-31.16s-.728-9.273,4.85-14.593,17.137-6.557,17.137-6.557Z" transform="translate(-3591.449 -6972.592)" fill="#9f68ff"/><ellipse cx="14" cy="17.5" rx="14" ry="17.5" transform="translate(136 400)" fill="#fecabc"/><path d="M3889,7384.075V7348.2s14.108-.9,13.594,17.271S3889,7384.075,3889,7384.075Z" transform="translate(-3738.947 -6948.319)" fill="#f5c0b2"/><path d="M3041.792,8080.468s.176-4.84,2.669-6.942,7.291-.908,11.576-2.126,5.337-2.487,5.337-2.487a5.534,5.534,0,0,1,3.78,2.979c1.553,2.726,2.431,7.922,2.431,7.922s2.925-9.555,1.589-14.023-6.934-3.848-6.934-3.848a8.537,8.537,0,0,0-4.294-3.512c-3.017-1.2-7.969-1.362-13.04,1.808C3034.785,8066.566,3041.792,8080.468,3041.792,8080.468Z" transform="translate(-2904.243 -7660.209)" fill="#a5704e"/><path d="M3693.689,7401.926s4.209,6.785,8.389,6.917,8.352-6.477,8.352-6.477-3.867,3.374-8.047,3.242S3693.689,7401.926,3693.689,7401.926Z" transform="translate(-3552.28 -6970.231)" fill="#f5c0b2"/><path d="M3069.272,8071.873s1.094-.194,1.707-.368c4.284-1.217,5.337-2.487,5.337-2.487A5.535,5.535,0,0,1,3080.1,8072c1.553,2.726,2.43,7.922,2.43,7.922s2.926-9.554,1.589-14.022-6.934-3.848-6.934-3.848a8.537,8.537,0,0,0-4.294-3.512,21.464,21.464,0,0,0-3.616-.691Z" transform="translate(-2919.186 -7660.314)" fill="#92694e"/></g></svg>