<svg xmlns="http://www.w3.org/2000/svg" width="132.855" height="83.981" viewBox="0 0 132.855 83.981"><defs><style>.a,.c{fill:#27e497;}.a{stroke:#fff070;stroke-width:8px;}.b,.e{fill:#fff;}.d{fill:#35cc8e;}.e{font-size:13px;font-family:SegoeUI-Semibold, Segoe UI;font-weight:600;letter-spacing:-0.1em;}</style></defs><g transform="translate(-865.861 -388.524)"><path class="a" d="M-5895.4,6822.29c10.083,6.876,19.279.522,30.655-7.624,6.918-4.955,14.38-13.074,25.578-13.074,11.336,0,20.731,10.11,29.516,15.363,11.957,7.153,21.767,10.658,29.129,3.662,11.605-10.317-4.879-49.263-17.691-64.208s-23.941,1.064-39.537,1.064-27.453-15.558-39.042-3.965S-5912.171,6810.853-5895.4,6822.29Z" transform="translate(6771.197 -6356.693)"/><rect class="b" width="20.401" height="4.08" rx="2" transform="translate(949.572 444.418) rotate(34)"/><path class="c" d="M0,0H0A0,0,0,0,1,0,0V5.639a0,0,0,0,1,0,0H0a0,0,0,0,1,0,0V0A0,0,0,0,1,0,0Z" transform="translate(928.573 429.164)"/><ellipse class="d" cx="4.386" cy="4.386" rx="4.386" ry="4.386" transform="translate(955.062 429.164)"/><ellipse class="d" cx="4.386" cy="4.386" rx="4.386" ry="4.386" transform="translate(964.461 420.392)"/><ellipse class="d" cx="4.386" cy="4.386" rx="4.386" ry="4.386" transform="translate(945.663 420.392)"/><ellipse class="d" cx="4.386" cy="4.386" rx="4.386" ry="4.386" transform="translate(955.062 410.993)"/><rect class="d" width="7.519" height="23.811" rx="2" transform="translate(900.548 413.5)"/><rect class="d" width="7.718" height="24.01" rx="2" transform="translate(916.099 421.646) rotate(90)"/><text class="e" transform="translate(931.734 428.126)"><tspan x="-19.618" y="0">Skooldy</tspan></text></g></svg>