<svg xmlns="http://www.w3.org/2000/svg" width="131" height="453.059" viewBox="0 0 131 453.059"><defs><style>.a,.b,.c,.d,.e,.f,.h{fill:none;}.a{stroke:#6872f2;}.a,.b,.c,.e,.f{stroke-width:1.2px;}.b{stroke:#a03ada;}.c{stroke:#45cedd;}.e{stroke:#5fafff;}.f{stroke:#dd457d;}.g,.i{stroke:none;}.i{fill:#f5ff60;}</style></defs><g transform="translate(-812.001 -130.32)"><g class="a" transform="translate(875.046 130.321) rotate(22)"><rect class="g" width="22.226" height="22.226"/><rect class="h" x="0.6" y="0.6" width="21.026" height="21.026"/></g><g class="b" transform="translate(937.001 130.379)"><ellipse class="g" cx="3" cy="2.5" rx="3" ry="2.5"/><ellipse class="h" cx="3" cy="2.5" rx="2.4" ry="1.9"/></g><g class="c" transform="translate(870.014 471.407) rotate(22)"><rect class="g" width="7.968" height="7.968"/><rect class="h" x="0.6" y="0.6" width="6.768" height="6.768"/></g><g class="d" transform="translate(910.449 555.614) rotate(-22)"><path class="g" d="M6.71,0l6.71,11.742H0Z"/><path class="i" d="M 6.709846019744873 2.418674468994141 L 2.067811965942383 10.542236328125 L 11.35188102722168 10.542236328125 L 6.709846019744873 2.418674468994141 M 6.709846019744873 -3.814697265625e-06 L 13.41969585418701 11.74223613739014 L -3.814697265625e-06 11.74223613739014 L 6.709846019744873 -3.814697265625e-06 Z"/></g><g class="e" transform="translate(812.001 561.379)"><ellipse class="g" cx="10.5" cy="11" rx="10.5" ry="11"/><ellipse class="h" cx="10.5" cy="11" rx="9.9" ry="10.4"/></g><g class="f" transform="translate(869.818 301.03) rotate(22)"><rect class="g" width="7.968" height="7.968"/><rect class="h" x="0.6" y="0.6" width="6.768" height="6.768"/></g></g></svg>