<svg xmlns="http://www.w3.org/2000/svg" width="372" height="479.121" viewBox="0 0 372 479.121"><defs><style>.a,.b,.c,.d,.e,.f,.h{fill:none;}.a{stroke:#6872f2;}.a,.b,.d,.e,.f{stroke-width:1.2px;}.b{stroke:#45cedd;}.d{stroke:#3ada69;}.e{stroke:#dd457d;}.f{stroke:#a03ada;}.g,.i,.j{stroke:none;}.i{fill:#f5ff60;}.j{fill:#60ccd8;}</style></defs><g transform="translate(-5691 -18196)"><g transform="translate(4864.998 18108.621)"><g class="a" transform="translate(875.046 130.321) rotate(22)"><rect class="g" width="22.226" height="22.226"/><rect class="h" x="0.6" y="0.6" width="21.026" height="21.026"/></g><g class="b" transform="translate(870.014 471.407) rotate(22)"><rect class="g" width="7.968" height="7.968"/><rect class="h" x="0.6" y="0.6" width="6.768" height="6.768"/></g><g class="c" transform="translate(910.449 555.614) rotate(-22)"><path class="g" d="M6.71,0l6.71,11.742H0Z"/><path class="i" d="M 6.709846019744873 2.418674468994141 L 2.067811965942383 10.542236328125 L 11.35188102722168 10.542236328125 L 6.709846019744873 2.418674468994141 M 6.709846019744873 -3.814697265625e-06 L 13.41969585418701 11.74223613739014 L -3.814697265625e-06 11.74223613739014 L 6.709846019744873 -3.814697265625e-06 Z"/></g><g class="d" transform="translate(826.001 507.379)"><ellipse class="g" cx="10.5" cy="11" rx="10.5" ry="11"/><ellipse class="h" cx="10.5" cy="11" rx="9.9" ry="10.4"/></g><g class="e" transform="translate(869.818 301.03) rotate(22)"><rect class="g" width="7.968" height="7.968"/><rect class="h" x="0.6" y="0.6" width="6.768" height="6.768"/></g></g><g transform="translate(5931.004 18062.971)"><g class="e" transform="translate(124.996 404.03)"><rect class="g" width="7" height="7"/><rect class="h" x="0.6" y="0.6" width="5.8" height="5.8"/></g><g class="c" transform="matrix(0.966, 0.259, -0.259, 0.966, 63.522, 230.102)"><path class="g" d="M9.455,0,18.91,16.546H0Z"/><path class="j" d="M 9.454982757568359 2.418678283691406 L 2.067817687988281 15.34622001647949 L 16.84214782714844 15.34622001647949 L 9.454982757568359 2.418678283691406 M 9.454982757568359 0 L 18.90996360778809 16.54622077941895 L 1.9073486328125e-06 16.54622077941895 L 9.454982757568359 0 Z"/></g><g class="d" transform="translate(74.996 524.03)"><circle class="g" cx="15" cy="15" r="15"/><circle class="h" cx="15" cy="15" r="14.4"/></g><g class="f" transform="translate(121.996 194.03)"><circle class="g" cx="4" cy="4" r="4"/><circle class="h" cx="4" cy="4" r="3.4"/></g><g class="e" transform="translate(61.946 133.03) rotate(22)"><rect class="g" width="11.228" height="11.228"/><rect class="h" x="0.6" y="0.6" width="10.028" height="10.028"/></g></g></g></svg>