<svg xmlns="http://www.w3.org/2000/svg" width="444.752" height="709.973" viewBox="0 0 444.752 709.973"><defs><style>.a,.b,.c,.d,.e,.f,.i{fill:none;}.b{stroke:#6872f2;}.b,.c,.d,.e,.f{stroke-width:3px;}.c{stroke:#a03ada;}.d{stroke:#45cedd;}.e{stroke:#3ada69;}.f{stroke:#dd457d;}.g,.h,.j,.k{stroke:none;}.h{fill:#60ccd8;}.j{fill:#f5ff60;}.k{fill:#d88c60;}</style></defs><g transform="translate(-1434.252 -111.029)"><g class="a" transform="matrix(0.966, 0.259, -0.259, 0.966, 1440.357, 349.78)"><path class="g" d="M13.481,0,26.961,23.591H0Z"/><path class="h" d="M 13.48056125640869 6.046699523925781 L 5.16954231262207 20.59098052978516 L 21.79158020019531 20.59098052978516 L 13.48056125640869 6.046699523925781 M 13.48056125640869 1.9073486328125e-06 L 26.96112060546875 23.59098052978516 L 1.9073486328125e-06 23.59098052978516 L 13.48056125640869 1.9073486328125e-06 Z"/></g><g class="b" transform="translate(1716.857 157.03) rotate(22)"><rect class="g" width="53" height="53"/><rect class="i" x="1.5" y="1.5" width="50" height="50"/></g><g class="c" transform="translate(1865.003 157.002)"><circle class="g" cx="7" cy="7" r="7"/><circle class="i" cx="7" cy="7" r="5.5"/></g><g class="d" transform="translate(1704.857 646.03) rotate(22)"><rect class="g" width="19" height="19"/><rect class="i" x="1.5" y="1.5" width="16" height="16"/></g><g class="a" transform="translate(1801.276 755.745) rotate(-22)"><path class="g" d="M16,0,32,28H0Z"/><path class="j" d="M 15.99999904632568 6.046697616577148 L 5.169540405273438 25 L 26.83045768737793 25 L 15.99999904632568 6.046697616577148 M 15.99999904632568 0 L 32 28 L -1.9073486328125e-06 28 L 15.99999904632568 0 Z"/></g><g class="a" transform="matrix(0.914, -0.407, 0.407, 0.914, 1656.045, 441.45)"><path class="g" d="M16,0,32,28H0Z"/><path class="k" d="M 15.99999904632568 6.046697616577148 L 5.169540405273438 25 L 26.83045768737793 25 L 15.99999904632568 6.046697616577148 M 15.99999904632568 0 L 32 28 L -1.9073486328125e-06 28 L 15.99999904632568 0 Z"/></g><g class="e" transform="translate(1566.003 770.002)"><circle class="g" cx="25.5" cy="25.5" r="25.5"/><circle class="i" cx="25.5" cy="25.5" r="24"/></g><g class="f" transform="translate(1539.857 111.03) rotate(22)"><rect class="g" width="19" height="19"/><rect class="i" x="1.5" y="1.5" width="16" height="16"/></g></g></svg>