<svg xmlns="http://www.w3.org/2000/svg" width="342.264" height="914.848" viewBox="0 0 342.264 914.848"><defs><style>.a,.b,.c,.d,.e,.f,.h{fill:none;}.a{stroke:#dd457d;}.a,.c,.d,.e,.f{stroke-width:3px;}.c{stroke:#3ada69;}.d{stroke:#a03ada;}.e{stroke:#27e497;}.f{stroke:#c6a5ff;}.g,.i{stroke:none;}.i{fill:#60ccd8;}</style></defs><g transform="translate(-57.74 -133.029)"><g class="a" transform="translate(171 572)"><rect class="g" width="12" height="12"/><rect class="h" x="1.5" y="1.5" width="9" height="9"/></g><g class="b" transform="matrix(0.966, 0.259, -0.259, 0.966, 67.524, 290.068)"><path class="g" d="M16,0,32,28H0Z"/><path class="i" d="M 15.99999904632568 6.046697616577148 L 5.169540405273438 25 L 26.83045768737793 25 L 15.99999904632568 6.046697616577148 M 15.99999904632568 0 L 32 28 L -1.9073486328125e-06 28 L 15.99999904632568 0 Z"/></g><g class="c" transform="translate(87.003 764.002)"><circle class="g" cx="25.5" cy="25.5" r="25.5"/><circle class="h" cx="25.5" cy="25.5" r="24"/></g><g class="d" transform="translate(386.003 151.002)"><circle class="g" cx="7" cy="7" r="7"/><circle class="h" cx="7" cy="7" r="5.5"/></g><g class="e" transform="translate(377 362)"><circle class="g" cx="11.5" cy="11.5" r="11.5"/><circle class="h" cx="11.5" cy="11.5" r="10"/></g><g class="f" transform="translate(288.945 962.121) rotate(16)"><rect class="g" width="67" height="70"/><rect class="h" x="1.5" y="1.5" width="64" height="67"/></g><g class="a" transform="translate(64.857 133.03) rotate(22)"><rect class="g" width="19" height="19"/><rect class="h" x="1.5" y="1.5" width="16" height="16"/></g></g></svg>