<svg xmlns="http://www.w3.org/2000/svg" width="1821.258" height="944.848" viewBox="0 0 1821.258 944.848"><defs><style>.a,.b,.c,.d,.e,.f,.g,.j{fill:none;}.b{stroke:#6872f2;}.b,.c,.d,.e,.f,.g{stroke-width:3px;}.c{stroke:#a03ada;}.d{stroke:#45cedd;}.e{stroke:#3ada69;}.f{stroke:#dd457d;}.g{stroke:#c6a5ff;}.h,.i,.k,.l{stroke:none;}.i{fill:#60ccd8;}.k{fill:#f5ff60;}.l{fill:#d88c60;}</style></defs><g transform="translate(-849.74 -17137.029)"><g transform="translate(791.995 17026)"><g class="a" transform="matrix(0.966, 0.259, -0.259, 0.966, 1440.357, 349.78)"><path class="h" d="M13.481,0,26.961,23.591H0Z"/><path class="i" d="M 13.48056125640869 6.046699523925781 L 5.16954231262207 20.59098052978516 L 21.79158020019531 20.59098052978516 L 13.48056125640869 6.046699523925781 M 13.48056125640869 1.9073486328125e-06 L 26.96112060546875 23.59098052978516 L 1.9073486328125e-06 23.59098052978516 L 13.48056125640869 1.9073486328125e-06 Z"/></g><g class="b" transform="translate(1716.857 157.03) rotate(22)"><rect class="h" width="53" height="53"/><rect class="j" x="1.5" y="1.5" width="50" height="50"/></g><g class="c" transform="translate(1865.003 157.002)"><circle class="h" cx="7" cy="7" r="7"/><circle class="j" cx="7" cy="7" r="5.5"/></g><g class="d" transform="translate(1704.857 646.03) rotate(22)"><rect class="h" width="19" height="19"/><rect class="j" x="1.5" y="1.5" width="16" height="16"/></g><g class="a" transform="translate(1801.276 755.745) rotate(-22)"><path class="h" d="M16,0,32,28H0Z"/><path class="k" d="M 15.99999904632568 6.046697616577148 L 5.169540405273438 25 L 26.83045768737793 25 L 15.99999904632568 6.046697616577148 M 15.99999904632568 0 L 32 28 L -1.9073486328125e-06 28 L 15.99999904632568 0 Z"/></g><g class="a" transform="matrix(0.914, -0.407, 0.407, 0.914, 267.045, 678.45)"><path class="h" d="M16,0,32,28H0Z"/><path class="l" d="M 15.99999904632568 6.046697616577148 L 5.169540405273438 25 L 26.83045768737793 25 L 15.99999904632568 6.046697616577148 M 15.99999904632568 0 L 32 28 L -1.9073486328125e-06 28 L 15.99999904632568 0 Z"/></g><g class="e" transform="translate(1566.003 770.002)"><circle class="h" cx="25.5" cy="25.5" r="25.5"/><circle class="j" cx="25.5" cy="25.5" r="24"/></g><g class="f" transform="translate(1539.857 111.03) rotate(22)"><rect class="h" width="19" height="19"/><rect class="j" x="1.5" y="1.5" width="16" height="16"/></g></g><g transform="translate(792 17034)"><g class="f" transform="translate(171 572)"><rect class="h" width="12" height="12"/><rect class="j" x="1.5" y="1.5" width="9" height="9"/></g><g class="a" transform="matrix(0.966, 0.259, -0.259, 0.966, 67.524, 290.068)"><path class="h" d="M16,0,32,28H0Z"/><path class="i" d="M 15.99999904632568 6.046697616577148 L 5.169540405273438 25 L 26.83045768737793 25 L 15.99999904632568 6.046697616577148 M 15.99999904632568 0 L 32 28 L -1.9073486328125e-06 28 L 15.99999904632568 0 Z"/></g><g class="e" transform="translate(87.003 764.002)"><circle class="h" cx="25.5" cy="25.5" r="25.5"/><circle class="j" cx="25.5" cy="25.5" r="24"/></g><g class="c" transform="translate(386.003 151.002)"><circle class="h" cx="7" cy="7" r="7"/><circle class="j" cx="7" cy="7" r="5.5"/></g><g class="f" transform="translate(64.857 133.03) rotate(22)"><rect class="h" width="19" height="19"/><rect class="j" x="1.5" y="1.5" width="16" height="16"/></g></g><g class="g" transform="translate(1080.945 17996.121) rotate(16)"><rect class="h" width="67" height="70"/><rect class="j" x="1.5" y="1.5" width="64" height="67"/></g></g></svg>