<svg xmlns="http://www.w3.org/2000/svg" width="34.52" height="34.552" viewBox="0 0 34.52 34.552"><defs><style>.a{fill:#ffeb39;}</style></defs><g transform="translate(-1747.389 -35.619)"><path class="a" d="M3256.389-2700.926l8.288,8.033-2.053,11.375,10.273-5.34,10.186,5.34-1.957-11.375,8.288-8.033-11.476-1.785-5.164-10.456-5.01,10.495Z" transform="translate(-1509 2748.786)"/><path class="a" d="M10.116,0l7.12,5L0,5.306Z" transform="matrix(0.946, 0.326, -0.326, 0.946, 1749.202, 42.87)"/><path class="a" d="M10.367,0l7.089,5.032L0,5.1Z" transform="translate(1768.882 35.741) rotate(90)"/><path class="a" d="M10.34,0l6.944,4.987L0,5Z" transform="matrix(0.588, -0.809, 0.809, 0.588, 1749.646, 64.249)"/><path class="a" d="M10.37,0l6.939,5.229L0,4.942Z" transform="matrix(-0.602, -0.799, 0.799, -0.602, 1770.103, 70.17)"/><path class="a" d="M10.4,0l6.936,5.228L0,4.81Z" transform="translate(1781.909 52.505) rotate(161)"/></g></svg>