<svg xmlns="http://www.w3.org/2000/svg" width="20.604" height="12.565" viewBox="0 0 20.604 12.565"><defs><style>.a{fill:#6d6d6d;}.b{fill:#27e497;}.c{fill:#9781ff;}.d{fill:#7dedff;}.e{fill:#ff4b7c;}.f{fill:#fff070;}.g{fill:#dadada;}</style></defs><path class="a" d="M-5900.238,6761.3c1.667,1.137,3.188.086,5.068-1.26,1.144-.819,2.377-2.162,4.229-2.162,1.875,0,3.428,1.672,4.88,2.54,1.977,1.183,3.6,1.762,4.815.605,1.919-1.706-.807-8.145-2.925-10.615s-3.958.176-6.537.176-4.539-2.572-6.455-.655S-5903.011,6759.405-5900.238,6761.3Z" transform="translate(5901.197 -6749.215)"/><path class="b" d="M0,0H0A0,0,0,0,1,0,0V.932a0,0,0,0,1,0,0H0a0,0,0,0,1,0,0V0A0,0,0,0,1,0,0Z" transform="translate(9.684 6.058)"/><ellipse class="c" cx="0.725" cy="0.725" rx="0.725" ry="0.725" transform="translate(14.063 6.058)"/><ellipse class="d" cx="0.725" cy="0.725" rx="0.725" ry="0.725" transform="translate(15.617 4.608)"/><ellipse class="e" cx="0.725" cy="0.725" rx="0.725" ry="0.725" transform="translate(12.509 4.608)"/><ellipse class="f" cx="0.725" cy="0.725" rx="0.725" ry="0.725" transform="translate(14.063 3.054)"/><rect class="g" width="1.243" height="3.937" rx="0.622" transform="translate(5.05 3.468)"/><rect class="g" width="1.276" height="3.97" rx="0.638" transform="translate(7.622 4.815) rotate(90)"/></svg>