<svg xmlns="http://www.w3.org/2000/svg" width="59.383" height="45.9" viewBox="0 0 59.383 45.9"><defs><style>.a{fill:#636363;}.b{fill:#fff283;}.c{fill:#ff4b7c;}.d{fill:#5fffaa;}.e{fill:#6890ff;}.f{fill:#aeaeae;}.g,.h,.j{fill:none;}.g{stroke:#a9a9a9;stroke-width:2px;}.h{stroke:#d18645;stroke-linecap:round;}.h,.i{stroke-width:3px;}.i{fill:#5fafff;stroke:#707070;opacity:0.33;}.j{stroke:rgba(238,238,238,0.54);stroke-width:6px;}</style></defs><g transform="translate(-610.517 -774.201)"><g transform="translate(610.517 778.75)"><path class="a" d="M-2714.483,7530.4s1.254-.516,3.516.872c3.823,2.343,9.364,6.938,12.763,5.748,5.979-3.91-.307-15.4-4.523-20.695-1.909-2.4-5.938-1.148-7.819-.23a12.733,12.733,0,0,1-3.937,1.25Z" transform="translate(2730.76 -7514.936)"/><path class="a" d="M-2697.647,7527a12.3,12.3,0,0,1-3.119,2.668c-3.446,2.112-8.439,6.251-11.5,5.181-5.388-3.523.277-13.876,4.077-18.652,1.137-1.43,3.109-1.42,4.988-.965a19.862,19.862,0,0,0,2.641.194l2.361-.244Z" transform="translate(2714.483 -7512.744)"/><circle class="b" cx="1.526" cy="1.526" r="1.526" transform="translate(25.013 5.716)"/><circle class="c" cx="1.526" cy="1.526" r="1.526" transform="translate(27.455 8.158)"/><circle class="d" cx="1.526" cy="1.526" r="1.526" transform="translate(25.013 10.601)"/><circle class="e" cx="1.526" cy="1.526" r="1.526" transform="translate(22.571 8.158)"/><path class="f" d="M-2367.71,7573.217h2.217v-2.12h2.091v-2.154h-2.169v-2.076h-2.139v2.076h-2.138v2.154h2.138Z" transform="translate(2375.281 -7559.068)"/></g><g transform="translate(625.579 775.701)"><ellipse class="g" cx="16" cy="16.5" rx="16" ry="16.5" transform="translate(0.421 0.477)"/><path class="h" d="M-2108.773,6956.216l12.522,12.971" transform="translate(2138.45 -6926.908)"/><path class="i" d="M16.2,0c8.945,0,16.2,7.5,16.2,16.756S25.143,33.511,16.2,33.511,0,26.01,0,16.756,7.252,0,16.2,0Z" transform="translate(0 0)"/><path class="j" d="M0,.035A6.5,6.5,0,0,1,5.3,1.952,6.193,6.193,0,0,1,7.172,6.823" transform="matrix(0.995, -0.105, 0.105, 0.995, 18.781, 6.415)"/></g></g></svg>