<svg xmlns="http://www.w3.org/2000/svg" xmlns:xlink="http://www.w3.org/1999/xlink" width="71.356" height="71.83" viewBox="0 0 71.356 71.83"><defs><style>.a,.c{fill:#fff;}.b{fill:#d8d8d8;}.c{stroke:#d8d8d8;stroke-width:1.5px;}.d,.k,.l,.n{fill:none;}.d{stroke:#5fffaa;stroke-linecap:round;stroke-width:3px;}.e{fill:#8a8a8a;}.f{fill:#f2cd9b;}.g{fill:#979797;opacity:0.24;}.h{fill:#ff4b7c;}.i{fill:#ffee59;}.j{fill:#b9b5b5;}.k{stroke:#f1e156;}.l{stroke:#dcd16b;}.m{stroke:none;}.o{filter:url(#c);}.p{filter:url(#a);}</style><filter id="a" x="0" y="7.4" width="54.24" height="64.43" filterUnits="userSpaceOnUse"><feOffset dy="3" input="SourceAlpha"/><feGaussianBlur stdDeviation="3" result="b"/><feFlood flood-opacity="0.161"/><feComposite operator="in" in2="b"/><feComposite in="SourceGraphic"/></filter><filter id="c" x="20.986" y="7.4" width="31.116" height="31.117" filterUnits="userSpaceOnUse"><feOffset dy="3" input="SourceAlpha"/><feGaussianBlur stdDeviation="3" result="d"/><feFlood flood-opacity="0.161"/><feComposite operator="in" in2="d"/><feComposite in="SourceGraphic"/></filter></defs><g transform="translate(-3254.684 -19508.408)"><g transform="translate(3263.684 19521.809)"><g class="p" transform="matrix(1, 0, 0, 1, -9, -13.4)"><path class="a" d="M-444.83,5583.777h-22.486v46.43h36.24V5596.1Z" transform="translate(476.32 -5570.38)"/></g><rect class="b" width="18" transform="translate(10.317 14.191)"/><rect class="b" width="18" height="2" rx="0.7" transform="translate(10.317 26.191)"/><rect class="b" width="18" height="2" rx="0.7" transform="translate(10.317 32.191)"/><rect class="b" width="18" transform="translate(10.317 21.191)"/><g class="o" transform="matrix(1, 0, 0, 1, -9, -13.4)"><path class="a" d="M-446.486,5584.491l-1.36,13.116,13.117-2.4Z" transform="translate(477.83 -5571.09)"/></g><g class="c" transform="translate(4.317 13.191)"><rect class="m" width="3" height="2" rx="1"/><rect class="n" x="0.75" y="0.75" width="1.5" height="0.5" rx="0.25"/></g><g class="c" transform="translate(4.317 19.191)"><rect class="m" width="3" height="4" rx="1.5"/><rect class="n" x="0.75" y="0.75" width="1.5" height="2.5" rx="0.75"/></g><g class="c" transform="translate(4.317 25.191)"><rect class="m" width="3" height="4" rx="1.5"/><rect class="n" x="0.75" y="0.75" width="1.5" height="2.5" rx="0.75"/></g><g class="c" transform="translate(4.317 31.191)"><rect class="m" width="3" height="4" rx="1.5"/><rect class="n" x="0.75" y="0.75" width="1.5" height="2.5" rx="0.75"/></g><path class="d" d="M-624.947,5747.949l1.53,1.155,3.623-3.7" transform="translate(629.984 -5734.079)"/><path class="d" d="M-624.947,5747.949l1.53,1.155,3.623-3.7" transform="translate(629.542 -5721.229)"/><rect class="b" width="18" height="2" rx="0.7" transform="translate(10.317 20.191)"/></g><g transform="translate(3284.693 19508.408)"><path class="e" d="M-454.731,5612.355l-1.735,5.079,5.71-1.466Z" transform="translate(456.465 -5577.344)"/><path class="f" d="M-451.744,5603.442l-3.589,9.176,3.589,3.175,8.864-3.748Z" transform="translate(456.781 -5576.982)"/><path class="g" d="M-445.975,5610.328c-2.689,1.214-8.72,4.333-8.72,4.333l2.231,1.889,9.057-3.718S-443.286,5609.112-445.975,5610.328Z" transform="translate(457.308 -5577.589)"/><path class="h" d="M10.232,4.668,6.663,1.1a3.329,3.329,0,0,0-4.942,0L0,2.975l8.237,8.512,1.995-2.151a3.48,3.48,0,0,0,1.1-2.471A3.39,3.39,0,0,0,10.232,4.668Z" transform="matrix(1, -0.017, 0.017, 1, 27.949, 0.198)"/><rect class="i" width="13.318" height="29.71" rx="1" transform="matrix(0.719, 0.695, -0.695, 0.719, 25.279, 4.87)"/><rect class="j" width="13.318" height="3.466" rx="1" transform="matrix(0.719, 0.695, -0.695, 0.719, 27.7, 2.667)"/><path class="g" d="M.43,0a2.723,2.723,0,0,1,2.3,1.465,10.435,10.435,0,0,1,.486,3.8c.008.252-.026.537.11.567.468.1.61-.133.768.211a4,4,0,0,1,.066,1.316s.049.913.045,1.365a.559.559,0,0,1-.3.561l.071.17L3.853,38.3a.51.51,0,0,1-.43.563c-3.23,0-3.355.751-3.333-.924S0,.563,0,.563A.51.51,0,0,1,.43,0Z" transform="matrix(0.719, 0.695, -0.695, 0.719, 38.323, 4.819)"/><line class="k" y1="21.081" x2="20.651" transform="translate(7.215 7.663)"/><line class="l" y1="21.081" x2="20.651" transform="translate(11.948 12.395)"/></g></g></svg>