<svg xmlns="http://www.w3.org/2000/svg" width="12" height="9" viewBox="0 0 12 9"><defs><style>.a{fill:none;opacity:0.73;}.b{fill:#fff;}</style></defs><g transform="translate(-26 -2512)"><rect class="a" width="12" height="9" rx="4.5" transform="translate(26 2512)"/><path class="b" d="M4.788.212a.3.3,0,0,1,.424,0L9.488,4.488A.3.3,0,0,1,9.276,5H.724a.3.3,0,0,1-.212-.512Z" transform="translate(37 2518) rotate(180)"/><path class="b" d="M3.387.22a.3.3,0,0,1,.43,0l2.89,2.965a.3.3,0,0,1-.215.509H.711A.3.3,0,0,1,.5,3.185Z" transform="translate(33.6 2520.674) rotate(-90)"/><path class="b" d="M3.387.22a.3.3,0,0,1,.43,0l2.89,2.965a.3.3,0,0,1-.215.509H.711A.3.3,0,0,1,.5,3.185Z" transform="translate(30.395 2513.469) rotate(90)"/><path class="b" d="M8420.173-5115.348l3.149-3.3,1.387,1.394,1.331-1.394,2.577,2.708.595.625h-.7Z" transform="translate(-8392.623 7636.086)"/></g></svg>