<svg xmlns="http://www.w3.org/2000/svg" width="72.256" height="421.002" viewBox="0 0 72.256 421.002"><defs><style>.a,.b,.c,.d,.f{fill:none;}.a{stroke:#dd457d;}.a,.c,.d{stroke-width:1.2px;}.c{stroke:#3ada69;}.d{stroke:#a03ada;}.e,.g{stroke:none;}.g{fill:#60ccd8;}</style></defs><g transform="translate(-57.74 -133.029)"><g class="a" transform="translate(81.249 411.12) rotate(18)"><rect class="e" width="7" height="7"/><rect class="f" x="0.6" y="0.6" width="5.8" height="5.8"/></g><g class="b" transform="matrix(0.966, 0.259, -0.259, 0.966, 63.522, 230.102)"><path class="e" d="M9.455,0,18.91,16.546H0Z"/><path class="g" d="M 9.454982757568359 2.418678283691406 L 2.067817687988281 15.34622001647949 L 16.84214782714844 15.34622001647949 L 9.454982757568359 2.418678283691406 M 9.454982757568359 0 L 18.90996360778809 16.54622077941895 L 1.9073486328125e-06 16.54622077941895 L 9.454982757568359 0 Z"/></g><g class="c" transform="translate(74.996 524.03)"><circle class="e" cx="15" cy="15" r="15"/><circle class="f" cx="15" cy="15" r="14.4"/></g><g class="d" transform="translate(121.996 194.03)"><circle class="e" cx="4" cy="4" r="4"/><circle class="f" cx="4" cy="4" r="3.4"/></g><g class="a" transform="translate(61.946 133.03) rotate(22)"><rect class="e" width="11.228" height="11.228"/><rect class="f" x="0.6" y="0.6" width="10.028" height="10.028"/></g></g></svg>