<svg xmlns="http://www.w3.org/2000/svg" width="84.267" height="495.404" viewBox="0 0 84.267 495.404"><defs><style>.a,.b,.c,.d,.e,.h{fill:none;}.b{stroke:#fff070;}.b,.c,.d,.e{stroke-width:1.2px;}.c{stroke:#3ada69;}.d{stroke:#a03ada;}.e{stroke:#dd457d;}.f,.g{stroke:none;}.g{fill:#60ccd8;}</style></defs><g transform="translate(-57.74 -133.03)"><g class="a" transform="matrix(0.966, 0.259, -0.259, 0.966, 131.086, 615.951)"><path class="f" d="M5.653,0l5.653,9.893H0Z"/><path class="g" d="M 5.653281211853027 2.418678283691406 L 2.067816734313965 8.693241119384766 L 9.23874568939209 8.693241119384766 L 5.653281211853027 2.418678283691406 M 5.653281211853027 9.5367431640625e-07 L 11.30656147003174 9.893240928649902 L 9.5367431640625e-07 9.893240928649902 L 5.653281211853027 9.5367431640625e-07 Z"/></g><g class="b" transform="translate(99.996 376.03)"><rect class="f" width="7" height="7"/><rect class="h" x="0.6" y="0.6" width="5.8" height="5.8"/></g><g class="a" transform="matrix(0.966, 0.259, -0.259, 0.966, 63.522, 230.102)"><path class="f" d="M9.455,0,18.91,16.546H0Z"/><path class="g" d="M 9.454982757568359 2.418678283691406 L 2.067817687988281 15.34622001647949 L 16.84214782714844 15.34622001647949 L 9.454982757568359 2.418678283691406 M 9.454982757568359 0 L 18.90996360778809 16.54622077941895 L 1.9073486328125e-06 16.54622077941895 L 9.454982757568359 0 Z"/></g><g class="c" transform="translate(74.996 524.03)"><circle class="f" cx="15" cy="15" r="15"/><circle class="h" cx="15" cy="15" r="14.4"/></g><g class="d" transform="translate(116.996 181.03)"><circle class="f" cx="4" cy="4" r="4"/><circle class="h" cx="4" cy="4" r="3.4"/></g><g class="e" transform="translate(61.946 133.03) rotate(22)"><rect class="f" width="11.228" height="11.228"/><rect class="h" x="0.6" y="0.6" width="10.028" height="10.028"/></g></g></svg>