<svg xmlns="http://www.w3.org/2000/svg" xmlns:xlink="http://www.w3.org/1999/xlink" width="67.626" height="60.783" viewBox="0 0 67.626 60.783"><defs><style>.a{fill:none;}.b{isolation:isolate;clip-path:url(#a);}.c{fill:#ff4b7c;}.d{fill:#fff;}.e{fill:#6890ff;}</style><clipPath id="a"><rect class="a" x="-11" y="-6" width="67.626" height="60.783"/></clipPath></defs><g class="b" transform="translate(11 6)"><path class="c" d="M7637.036-1103.785c-1.958-3.7,0-30.138,0-30.138s1.972-19.85,22.363-19.7,23.388,19.7,23.388,19.7.111,28.79-.811,30.666c-1.668,1.1-3.21-1.835-5.451-3.683a7.049,7.049,0,0,0-2.893-1.515,16.674,16.674,0,0,0-2.668,2.182c-1.246,1.239-2.615,3.1-3.894,3.016s-2.9-2.4-4.561-3.683a7.818,7.818,0,0,0-3.281-1.515,6.445,6.445,0,0,0-2.337,1.515c-1.237,1.154-2.788,3.256-4.1,3.683-2.6.848-2.791-5.2-6.729-5.2S7639-1100.088,7637.036-1103.785Z" transform="translate(-7636.165 1153.625)"/><ellipse class="d" cx="6.338" cy="6.338" rx="6.338" ry="6.338" transform="translate(14.404 15.432)"/><ellipse class="d" cx="6.338" cy="6.338" rx="6.338" ry="6.338" transform="translate(31.142 15.432)"/><circle class="e" cx="3.123" cy="3.123" r="3.123" transform="translate(37.263 19.045)"/><circle class="e" cx="3.123" cy="3.123" r="3.123" transform="translate(20.226 19.045)"/></g></svg>