<svg xmlns="http://www.w3.org/2000/svg" width="61.889" height="97.018" viewBox="0 0 61.889 97.018"><defs><style>.a{fill:#ffc699;}.b{fill:#3bfa95;}.c{fill:#a3a3a3;opacity:0.14;}.d{fill:#3ff093;}.e{fill:#8c8c8c;}.f{fill:#fff070;}.g{fill:#efbc94;}.h{fill:#f89e46;}.i{fill:#707070;stroke:#707070;}.j{fill:#b66051;}.k{fill:#ff4b7c;}.l{fill:#bb8e62;}.m{stroke:none;}.n{fill:none;}</style></defs><g transform="translate(1215.606 -16346.752)"><rect class="a" width="6.209" height="6.52" rx="2" transform="translate(-1164.148 16401.393) rotate(-135)"/><path class="b" d="M.5,0H5.709a.5.5,0,0,1,.5.5V15.834a0,0,0,0,1,0,0H0a0,0,0,0,1,0,0V.5A.5.5,0,0,1,.5,0Z" transform="translate(-1173.148 16410.393) rotate(-135)"/><path class="c" d="M0,19.214H1.828V0H0Z" transform="translate(-1173.068 16410.281) rotate(-135)"/><path class="b" d="M5817.156,12674.633h20.157v5.3h-20.157Z" transform="translate(-7010.907 3746.193)"/><rect class="b" width="21.732" height="19.249" rx="1" transform="translate(-1194.927 16402.324)"/><path class="d" d="M5927.16,12695.151h2.642v-20.73h-2.642Z" transform="translate(-7122.009 3726.422)"/><path class="e" d="M5810.2,12675.742h21.732v-2.078H5810.2Z" transform="translate(-7005.131 3744.961)"/><rect class="f" width="3.415" transform="translate(-1182.198 16421.572)"/><rect class="f" width="3.415" height="3.726" rx="1" transform="translate(-1184.372 16417.848)"/><g transform="translate(-1215.606 16346.752)"><path class="a" d="M6.361,0H34.988a6.267,6.267,0,0,1,6.361,6.167V37a6.267,6.267,0,0,1-6.361,6.167H6.361A6.267,6.267,0,0,1,0,37V6.167A6.267,6.267,0,0,1,6.361,0Z" transform="translate(9.919 12.473)"/><path class="g" d="M6.361,0H9.018V44.528H6.361A6.361,6.361,0,0,1,0,38.166V6.361A6.361,6.361,0,0,1,6.361,0Z" transform="translate(9.919 11.115)"/><rect class="h" width="12.729" height="3.105" rx="1" transform="translate(21.3 22.664)"/><path class="b" d="M3.684.861,58.083,0a3.6,3.6,0,0,1,3.569,3.785,3.881,3.881,0,0,1-3.684,3.9l-54.4.86A3.6,3.6,0,0,1,0,4.761,3.881,3.881,0,0,1,3.684.861Z" transform="translate(0 24.564) rotate(-14)"/><path class="b" d="M7.259,0H29.035a7.259,7.259,0,0,1,7.259,7.258v7.258a7.258,7.258,0,0,1-7.259,7.258H7.259A7.259,7.259,0,0,1,0,14.516V7.258A7.258,7.258,0,0,1,7.259,0Z" transform="translate(7.009 8.78) rotate(-14)"/><path class="e" d="M5864.977,12664.664l34.639-10.422,1.62,4.185-35.716,9.239Z" transform="translate(-5855.149 -12644.848)"/><path class="f" d="M1.089,0H2.541A1.089,1.089,0,0,1,3.629,1.089V6.17A1.089,1.089,0,0,1,2.541,7.258H1.089A1.089,1.089,0,0,1,0,6.17V1.089A1.089,1.089,0,0,1,1.089,0Z" transform="translate(34.555 8.965) rotate(-13)"/><rect class="h" width="12.729" height="3.105" rx="1.5" transform="translate(39.927 22.664)"/><path class="h" d="M7.394.9V14.835l29.421.146V.9h4.535V17.268c0,1.808-2.848,3.273-6.361,3.273H6.361C2.848,20.541,0,19.075,0,17.268V.9Z" transform="translate(9.919 35.102)"/><rect class="h" width="7.658" height="7.258" rx="0.5" transform="translate(9.919 33.868)"/><rect class="h" width="4.718" height="10.524" rx="0.3" transform="translate(46.573 33.868)"/><rect class="h" width="10.38" height="7.258" rx="0.5" transform="translate(28.792 48.385)"/><g class="i" transform="translate(30.303 31.667)"><ellipse class="m" cx="1.552" cy="3.26" rx="1.552" ry="3.26"/><ellipse class="n" cx="1.552" cy="3.26" rx="1.052" ry="2.76"/></g><g class="i" transform="translate(39.927 31.667)"><ellipse class="m" cx="1.552" cy="3.26" rx="1.552" ry="3.26"/><ellipse class="n" cx="1.552" cy="3.26" rx="1.052" ry="2.76"/></g><g transform="matrix(0.998, 0.07, -0.07, 0.998, 29.424, 39.253)"><path class="j" d="M.576.211c.867-.646,3.6.362,6.588.752,2.546.333,5.36-.019,6.08.747,1.512,1.607-.8,5-6.621,4.931S-1.079,1.444.576.211Z" transform="translate(0 2.613) rotate(-11)"/><path class="k" d="M0,.967A12.3,12.3,0,0,1,5.434.039a15.322,15.322,0,0,1,5.556,2s-1.687,1.5-5.647,1.4S0,.967,0,.967Z" transform="translate(1.692 5.534) rotate(-11)"/></g></g><path class="b" d="M0,1,8.961,0,8.693,17.763H0Z" transform="translate(-1189.497 16419.895) rotate(42)"/><path class="d" d="M5927.16,12679.49h2.642v-5.068h-2.642Z" transform="translate(-7121.544 3746.429)"/><path class="b" d="M0,0H8.693V16.765h-7.5L0,15.646Z" transform="translate(-1165.697 16432.473) rotate(138)"/><path class="d" d="M0,11.273l2.377.325L3.936,0,1.387.184Z" transform="matrix(0.819, 0.574, -0.574, 0.819, -1194.961, 16423.639)"/><rect class="l" width="10.888" height="5.807" rx="2.903" transform="matrix(0.719, 0.695, -0.695, 0.719, -1201.5, 16432.029)"/><rect class="l" width="10.888" height="5.807" rx="2.903" transform="matrix(0.788, -0.616, 0.616, 0.788, -1173.212, 16437.721)"/><rect class="a" width="6.52" height="6.52" rx="2" transform="matrix(-0.891, 0.454, -0.454, -0.891, -1194.626, 16394.834)"/><path class="b" d="M.5,0H6.02a.5.5,0,0,1,.5.5V15.834a0,0,0,0,1,0,0H0a0,0,0,0,1,0,0V.5A.5.5,0,0,1,.5,0Z" transform="matrix(-0.891, 0.454, -0.454, -0.891, -1188.727, 16406.414)"/><path class="c" d="M0,19.643a9.636,9.636,0,0,0,2.457-.3C2.763,19.1,2.641,0,2.641,0H0Z" transform="matrix(-0.891, 0.454, -0.454, -0.891, -1192.209, 16408.229)"/></g></svg>