<svg xmlns="http://www.w3.org/2000/svg" width="50.589" height="77.392" viewBox="0 0 50.589 77.392"><defs><style>.a{fill:#ffc699;}.b{fill:#efbc94;}.c{fill:#f89e46;}.d{fill:#3bfa95;}.e{fill:#8c8c8c;}.f{fill:#fff070;}.g{fill:#3ff093;}.h{fill:#fff;}.h,.i{stroke:#707070;}.i,.l{fill:none;}.i{stroke-linecap:round;stroke-width:0.5px;}.j{fill:#bb8e62;}.k{stroke:none;}</style></defs><g transform="translate(-182.267 -454.073)"><rect class="a" width="5" height="5" rx="0.3" transform="translate(215 509)"/><path class="a" d="M5.2,0H28.6a5.123,5.123,0,0,1,5.2,5.041V30.248a5.123,5.123,0,0,1-5.2,5.041H5.2A5.123,5.123,0,0,1,0,30.248V5.041A5.123,5.123,0,0,1,5.2,0Z" transform="translate(190.375 464.275)"/><path class="b" d="M5.2,0H7.371V36.4H5.2A5.2,5.2,0,0,1,0,31.2V5.2A5.2,5.2,0,0,1,5.2,0Z" transform="translate(190.375 463.162)"/><rect class="c" width="8" height="2" rx="0.2" transform="translate(200 474)"/><rect class="d" width="17" height="15" rx="0.5" transform="translate(200 499)"/><path class="d" d="M3.012.7,47.478,0A2.945,2.945,0,0,1,50.4,3.094a3.172,3.172,0,0,1-3.011,3.188l-44.466.7A2.945,2.945,0,0,1,0,3.892,3.172,3.172,0,0,1,3.012.7Z" transform="translate(182.267 474.154) rotate(-14)"/><rect class="d" width="29.667" height="17.8" rx="2" transform="translate(187.996 461.25) rotate(-14)"/><path class="e" d="M5864.976,12662.775l28.313-8.521,1.327,3.418-29.2,7.553Z" transform="translate(-5674.674 -12192.498)"/><rect class="f" width="2.967" height="5.933" rx="0.3" transform="translate(210.513 461.4) rotate(-13)"/><path class="g" d="M5927.157,12689.068h2.16v-14.641h-2.16Z" transform="translate(-5726.399 -12174.867)"/><path class="d" d="M.5,0h4A.5.5,0,0,1,5,.5V12a0,0,0,0,1,0,0H0a0,0,0,0,1,0,0V.5A.5.5,0,0,1,.5,0Z" transform="translate(215 499)"/><path class="e" d="M5810.2,12675.363h17.206v-1.7H5810.2Z" transform="translate(-5610.333 -12159.563)"/><rect class="a" width="5" height="5" rx="0.5" transform="translate(197 509)"/><path class="d" d="M.5,0h4A.5.5,0,0,1,5,.5V12a0,0,0,0,1,0,0H0a0,0,0,0,1,0,0V.5A.5.5,0,0,1,.5,0Z" transform="translate(197 499)"/><path class="g" d="M5927.158,12684.613h.551v-10.187h-.551Z" transform="translate(-5710.082 -12173.185)"/><path class="g" d="M5927.157,12686.3h2.16v-11.867h-2.16Z" transform="translate(-5730.849 -12174.869)"/><rect class="f" width="4" height="4" rx="0.3" transform="translate(208 514)"/><rect class="c" width="6" height="2" rx="0.2" transform="translate(215 474)"/><path class="c" d="M6.044.9V12.291l24.049.119V.9H33.8V14.28c0,1.478-2.328,2.676-5.2,2.676H5.2c-2.872,0-5.2-1.2-5.2-2.676V.9Z" transform="translate(190.375 482.607)"/><rect class="c" width="6.26" height="5.933" rx="0.5" transform="translate(190.375 481.762)"/><rect class="c" width="3.857" height="8.603" rx="0.3" transform="translate(220.339 481.762)"/><rect class="c" width="8.485" height="5.933" rx="0.5" transform="translate(205.802 493.629)"/><g class="h" transform="translate(206 480)"><ellipse class="k" cx="1" cy="2" rx="1" ry="2"/><ellipse class="l" cx="1" cy="2" rx="0.5" ry="1.5"/></g><g class="h" transform="translate(215 480)"><ellipse class="k" cx="1" cy="2" rx="1" ry="2"/><ellipse class="l" cx="1" cy="2" rx="0.5" ry="1.5"/></g><path class="i" d="M5829.2,12664.816h10.385" transform="translate(-5623.398 -12174.698)"/><path class="d" d="M5824.211,12712.122l-5.294,10.1,4.919,3.086,6.72-8.475h4.836l6.91,8.475,5.056-3.186-6-10Z" transform="translate(-5624.254 -12196.248)"/><rect class="j" width="8.9" height="4.747" rx="0.5" transform="translate(193.342 526.719)"/><rect class="j" width="8.9" height="4.747" rx="0.5" transform="translate(214.998 526.719)"/></g></svg>