<svg xmlns="http://www.w3.org/2000/svg" xmlns:xlink="http://www.w3.org/1999/xlink" width="62.988" height="74.666" viewBox="0 0 62.988 74.666"><defs><style>.a{fill:none;}.b,.e{isolation:isolate;}.b{clip-path:url(#a);}.c{fill:#35e287;}.d{fill:#2ec977;}.e{clip-path:url(#b);}.f{fill:#3bfa95;}.g{fill:#6e6e6e;}.h{fill:#ff4b7c;}.i{fill:#fff;}.j{fill:#5fafff;}</style><clipPath id="a"><rect class="a" x="-4" y="-3" width="62.988" height="74.666"/></clipPath><clipPath id="b"><rect class="a" x="10" y="14" width="54.988" height="52.383"/></clipPath></defs><g class="b" transform="translate(4 3)"><g transform="translate(-1561.486 -17879.334)"><rect class="c" width="9" height="14" rx="2" transform="translate(1600 17927)"/><rect class="c" width="10" height="19" rx="2" transform="translate(1587 17927)"/><rect class="c" width="8" height="19" rx="2" transform="translate(1571 17927)"/><rect class="c" width="9" height="19" rx="2" transform="translate(1600 17927)"/><path class="d" d="M0,0H10a0,0,0,0,1,0,0V3A2,2,0,0,1,8,5H2A2,2,0,0,1,0,3V0A0,0,0,0,1,0,0Z" transform="translate(1587 17941)"/><path class="d" d="M0,0H8A0,0,0,0,1,8,0V3A2,2,0,0,1,6,5H2A2,2,0,0,1,0,3V0A0,0,0,0,1,0,0Z" transform="translate(1571 17941)"/><path class="d" d="M0,0H9A0,0,0,0,1,9,0V3A2,2,0,0,1,7,5H2A2,2,0,0,1,0,3V0A0,0,0,0,1,0,0Z" transform="translate(1600 17941)"/><g class="e" transform="translate(1551.486 17865.334)"><path class="f" d="M24.433,23.124a15,15,0,0,1,26.121,0L62.349,44.006A15,15,0,0,1,49.288,66.382H25.7A15,15,0,0,1,12.639,44.006Z"/></g><path class="g" d="M0,0,28.23,3.339S26.444,14.485,13.474,14.328,0,0,0,0Z" transform="matrix(0.998, -0.07, 0.07, 0.998, 1575.568, 17913.373)"/><path class="h" d="M0,1.658A30.819,30.819,0,0,1,9.749,0,13.255,13.255,0,0,1,11.1.124c5.038.691,10.448,4.292,10.448,4.292S18.588,8.165,10.715,7.928A12.23,12.23,0,0,1,0,1.658Z" transform="matrix(0.998, -0.07, 0.07, 0.998, 1578.375, 17919.564)"/><ellipse class="i" cx="8" cy="8.5" rx="8" ry="8.5" transform="translate(1582 17894)"/><circle class="j" cx="2.5" cy="2.5" r="2.5" transform="translate(1587 17899)"/><ellipse class="i" cx="8" cy="8.5" rx="8" ry="8.5" transform="translate(1582 17894)"/><circle class="j" cx="2.5" cy="2.5" r="2.5" transform="translate(1587 17899)"/></g></g></svg>