<svg xmlns="http://www.w3.org/2000/svg" width="17.26" height="17" viewBox="0 0 17.26 17"><defs><style>.a{fill:#ff4b7c;}.b{fill:#fff;font-size:4px;font-family:Roboto-Medium, Roboto;font-weight:500;}</style></defs><g transform="translate(-162 -276)"><path class="a" d="M1819.482,16237.086s2.24,1.07,2.993.922,1.74-2.7,1.74-2.7,2.772-.717,2.964-1.209a12.492,12.492,0,0,0-.466-3.113s1.477-1.77,1.4-2.648-2.334-2.18-2.334-2.18,0-2.645-.528-3.1-3.218,0-3.218,0-1.617-2.051-2.517-2.039-2.515,2.039-2.515,2.039-2.614-.625-3.227-.057-.52,3.154-.52,3.154-2.339,1.258-2.4,2.045,1.532,2.939,1.532,2.939-.993,2.424-.552,3.086,3.05,1.08,3.05,1.08.645,2.309,1.512,2.607S1819.482,16237.086,1819.482,16237.086Z" transform="translate(-1648.853 -15945.021)"/><text class="b" transform="translate(167 286)"><tspan x="0" y="0">New</tspan></text></g></svg>