<svg xmlns="http://www.w3.org/2000/svg" width="15.891" height="15.131" viewBox="0 0 15.891 15.131"><defs><style>.a{fill:#ff4b7c;}.b{fill:#fff;}</style></defs><g transform="translate(-369.213 -280.478)"><path class="a" d="M1987.909-2272.595a26.953,26.953,0,0,0,6.481-6.145c2.4-3.48,1.107-6.136,1.107-6.136a4.217,4.217,0,0,0-3.507-2.818,4.343,4.343,0,0,0-4.13,2,4.292,4.292,0,0,0-3.8-2c-2.684.042-5.675,3.932-3.162,8.066A25.486,25.486,0,0,0,1987.909-2272.595Z" transform="translate(-1610.74 2568.203)"/><ellipse class="b" cx="0.949" cy="1.899" rx="0.949" ry="1.899" transform="matrix(0.996, 0.087, -0.087, 0.996, 381.726, 284.324)"/></g></svg>