<svg xmlns="http://www.w3.org/2000/svg" width="1362" height="836" viewBox="0 0 1362 836"><defs><style>.a{fill:#5c5c5c;}.b,.c,.d,.e,.g,.n,.u{fill:none;}.c{stroke:#a03ada;}.c,.d,.e{stroke-width:1.2px;}.d{stroke:#dd457d;}.e{stroke:#6872f2;}.f{fill:#656565;}.g{stroke:#5c5c5c;stroke-width:2px;}.h,.j{fill:#636363;}.i{fill:#686868;}.j,.m{opacity:0.24;}.k{fill:#646464;}.l{fill:#6d6d6d;}.m{fill:#5e5e5e;}.n{stroke:#686868;}.o{fill:#696969;}.p{fill:#7e7e7e;}.q{fill:#666;}.r{fill:#747474;}.s,.t,.v,.w{stroke:none;}.t{fill:#60ccd8;}.v{fill:#f5ff60;}.w{fill:#3ada69;}</style></defs><g transform="translate(-4847 -21836)"><rect class="a" width="1362" height="836" transform="translate(4847 21836)"/><g transform="translate(4876.104 21958.844)"><g class="b" transform="matrix(0.966, 0.259, -0.259, 0.966, 7.404, 124.309)"><path class="s" d="M12.108,0,24.216,21.189H0Z"/><path class="t" d="M 12.10790920257568 2.418678283691406 L 2.067815780639648 19.98884201049805 L 22.14800262451172 19.98884201049805 L 12.10790920257568 2.418678283691406 M 12.10790920257568 1.9073486328125e-06 L 24.21581840515137 21.18884086608887 L 0 21.18884086608887 L 12.10790920257568 1.9073486328125e-06 Z"/></g><g class="c" transform="translate(81.896 78.157)"><ellipse class="s" cx="5.5" cy="5" rx="5.5" ry="5"/><ellipse class="u" cx="5.5" cy="5" rx="4.9" ry="4.4"/></g><g class="d" transform="translate(5.386 0) rotate(22)"><rect class="s" width="14.378" height="14.378"/><rect class="u" x="0.6" y="0.6" width="13.178" height="13.178"/></g></g><g transform="translate(5812.789 21868.281)"><g class="b" transform="matrix(0.966, 0.259, -0.259, 0.966, 3.279, 701.301)"><path class="s" d="M7.24,0l7.24,12.669H0Z"/><path class="t" d="M 7.23950719833374 2.418676376342773 L 2.067812919616699 11.46913909912109 L 12.41120147705078 11.46913909912109 L 7.23950719833374 2.418676376342773 M 7.23950719833374 -9.5367431640625e-07 L 14.47901725769043 12.66913890838623 L -2.86102294921875e-06 12.66913890838623 L 7.23950719833374 -9.5367431640625e-07 Z"/></g><g class="e" transform="translate(345.836 0) rotate(50)"><rect class="s" width="15.657" height="16.937"/><rect class="u" x="0.6" y="0.6" width="14.457" height="15.737"/></g><g class="c" transform="translate(386.211 156.719)"><circle class="s" cx="3.5" cy="3.5" r="3.5"/><circle class="u" cx="3.5" cy="3.5" r="2.9"/></g><g class="b" transform="translate(352.055 701.701) rotate(-22)"><path class="s" d="M8.593,0l8.593,15.037H0Z"/><path class="v" d="M 8.592527389526367 2.418680191040039 L 2.067813873291016 13.83692359924316 L 15.11724090576172 13.83692359924316 L 8.592527389526367 2.418680191040039 M 8.592527389526367 2.86102294921875e-06 L 17.18505668640137 15.0369234085083 L -1.9073486328125e-06 15.0369234085083 L 8.592527389526367 2.86102294921875e-06 Z"/></g></g><path class="f" d="M33.105,46.832s3.1,7.121,12.056,4.309S52.3,41.9,52.3,41.9s-.209,7.346,6.195,7.346,7.8-4.812,7.8-4.812a4.866,4.866,0,0,0,6.511,0,4.471,4.471,0,0,0,.953-6.13,5.671,5.671,0,0,0,4.21-5.327c.327-4.51-4.21-5.87-4.21-5.87a6.48,6.48,0,0,0,1.857-6.873,5.675,5.675,0,0,0-5.189-4.057A7.7,7.7,0,0,0,69.21,7.816c-3.463-4.247-7.582-2.3-7.582-2.3s-1.418-3.864-7.12-4.289a10.745,10.745,0,0,0-8.873,3.622A9.946,9.946,0,0,0,37.658.013c-5.581-.3-8.017,4.835-8.017,4.835a7.777,7.777,0,0,0-8.6-3.2,9.3,9.3,0,0,0-6.989,7.2S8.478,7.6,5.2,11.721s.581,9.254.581,9.254S1.41,21.077.2,26.84a7.041,7.041,0,0,0,3.587,8,9.1,9.1,0,0,0,4.482,9.112C13.846,47.4,19.511,43.5,19.511,43.5s1.191,6.15,7.439,7.121S33.105,46.832,33.105,46.832Z" transform="matrix(0.574, 0.819, -0.819, 0.574, 6115.166, 22454.098)"/><path class="g" d="M0,.2a4.883,4.883,0,0,1,4.725,1.1A6.656,6.656,0,0,1,6.686,6.084" transform="matrix(0.574, 0.819, -0.819, 0.574, 6134.757, 22498.066)"/><path class="g" d="M0,5.69a5.293,5.293,0,0,0,5.259-.818A4.906,4.906,0,0,0,6.844,0" transform="matrix(0.574, 0.819, -0.819, 0.574, 6103.989, 22507.738)"/><path class="g" d="M0,18.4a5.025,5.025,0,0,0,3.669-3.319,5.415,5.415,0,0,0-.8-4.725A6.855,6.855,0,0,0,6.484,5.127,5.533,5.533,0,0,0,4.072,0" transform="matrix(0.574, 0.819, -0.819, 0.574, 6133.704, 22517.953)"/><path class="g" d="M3.829,38.955c0-.458-5.359-4.77-3.4-10.522s6.208-6.468,6.208-6.468a9.229,9.229,0,0,1,.653-9.474C10.625,7.718,15.2,9.614,15.2,9.614s-1.7-5.1,4.509-8.366,10.455.915,10.455.915" transform="matrix(0.574, 0.819, -0.819, 0.574, 6121.801, 22469.219)"/><path class="h" d="M2.605,0,0,7.628l8.576-2.2Z" transform="matrix(-0.454, 0.891, -0.891, -0.454, 6138.595, 21991.514)"/><path class="i" d="M5.389,0,0,13.781l5.389,4.768L18.7,12.922Z" transform="matrix(-0.454, 0.891, -0.891, -0.454, 6149.052, 21999.283)"/><path class="j" d="M13.1.367C9.057,2.188,0,6.873,0,6.873L3.35,9.709l13.6-5.583S17.135-1.459,13.1.367Z" transform="matrix(-0.454, 0.891, -0.891, -0.454, 6140.182, 21996.727)"/><rect class="k" width="20.001" height="44.617" rx="2" transform="matrix(-0.946, 0.326, -0.326, -0.946, 6161.692, 22045.891)"/><rect class="l" width="20.001" height="5.205" rx="1" transform="matrix(-0.946, 0.326, -0.326, -0.946, 6162.989, 22050.631)"/><path class="m" d="M.646,0A4.089,4.089,0,0,1,4.1,2.2c.77,1.552.665,4.082.73,5.7.012.379-.039.807.165.851.7.151.917-.2,1.153.317a6.011,6.011,0,0,1,.1,1.977s.073,1.37.067,2.05a.84.84,0,0,1-.444.842l.107.256L5.787,57.519a.766.766,0,0,1-.646.845C.289,58.365.1,59.492.135,56.977S0,.845,0,.845A.766.766,0,0,1,.646,0Z" transform="matrix(-0.946, 0.326, -0.326, -0.946, 6152.868, 22063.381)"/><line class="n" y1="31.659" x2="31.013" transform="matrix(-0.454, 0.891, -0.891, -0.454, 6170.273, 22019.816)"/><line class="n" y1="31.659" x2="31.013" transform="matrix(-0.454, 0.891, -0.891, -0.454, 6160.713, 22022.924)"/><path class="f" d="M1884.153,21087.143s3.661,8.4,14.221,5.082,8.417-10.9,8.417-10.9-.247,8.666,7.307,8.666,9.2-5.676,9.2-5.676,3.749,3.416,7.68,0a5.273,5.273,0,0,0,1.123-7.23,6.69,6.69,0,0,0,4.966-6.285c.385-5.32-4.966-6.926-4.966-6.926a7.643,7.643,0,0,0,2.191-8.107,6.691,6.691,0,0,0-6.121-4.781,9.094,9.094,0,0,0-1.433-9.863c-4.085-5.012-8.943-2.711-8.943-2.711s-1.672-4.561-8.4-5.062a12.669,12.669,0,0,0-10.467,4.273,11.729,11.729,0,0,0-9.408-5.7c-6.583-.357-9.457,5.7-9.457,5.7s-3.066-5.348-10.15-3.771-8.244,8.488-8.244,8.488-6.568-1.475-10.433,3.389.685,10.918.685,10.918-5.158.121-6.589,6.918a8.3,8.3,0,0,0,4.231,9.432,10.73,10.73,0,0,0,5.286,10.748c6.584,4.074,13.265-.531,13.265-.531s1.4,7.256,8.775,8.4S1884.153,21087.143,1884.153,21087.143Z" transform="translate(3521.559 1014.1)"/><path class="g" d="M2219.684,21104.857a5.764,5.764,0,0,1,5.574,1.3,7.845,7.845,0,0,1,2.313,5.633" transform="translate(3221.838 952.202)"/><path class="g" d="M2174.658,21309.3a6.244,6.244,0,0,0,6.2-.965,5.788,5.788,0,0,0,1.87-5.748" transform="translate(3266.544 783.684)"/><path class="g" d="M1977.963,21103.494c0-.539-6.321-5.625-4.008-12.41s7.323-7.631,7.323-7.631a10.886,10.886,0,0,1,.771-11.176c3.931-5.627,9.327-3.391,9.327-3.391s-2-6.014,5.318-9.869,12.333,1.08,12.333,1.08" transform="translate(3405.74 992.271)"/><ellipse class="f" cx="12.233" cy="12.233" rx="12.233" ry="12.233" transform="translate(4919.069 22150.553) rotate(-1)"/><path class="f" d="M.476,2.77H9.688s.023.415.186-.713C9.9,1.815,10.4,0,10.4,0H0S.129.59.252,1.216A13.229,13.229,0,0,1,.476,2.77Z" transform="translate(4925.914 22172.775) rotate(-1)"/><path class="o" d="M0,0H10.351a0,0,0,0,1,0,0V2.352A5.175,5.175,0,0,1,5.175,7.528h0A5.175,5.175,0,0,1,0,2.352V0A0,0,0,0,1,0,0Z" transform="translate(4925.831 22174.9) rotate(-1)"/><rect class="i" width="3.764" height="8.469" rx="1.882" transform="translate(4928.247 22137.215) rotate(-1)"/><rect class="i" width="3.168" height="7.128" rx="1.584" transform="matrix(0.719, 0.695, -0.695, 0.719, 4945.014, 22142.227)"/><rect class="i" width="3.168" height="7.128" rx="1.584" transform="matrix(0.695, -0.719, 0.719, 0.695, 4915.011, 22146.098)"/><rect class="i" width="3.168" height="6.019" rx="1.584" transform="translate(4910.127 22158.465) rotate(-78)"/><rect class="i" width="3.168" height="6.019" rx="1.584" transform="matrix(0.242, 0.97, -0.97, 0.242, 4955.867, 22153.529)"/><ellipse class="p" cx="1.882" cy="3.764" rx="1.882" ry="3.764" transform="translate(4926.708 22153.963) rotate(27)"/><path class="q" d="M6048.331,20920.01l4.126-8.527,6.4,2.027a5.427,5.427,0,0,1,1.328-1.7,4.546,4.546,0,0,1,1.882-.766l1.181-6.289,10.045-.6,1.063,5.91a4.183,4.183,0,0,1,1.569.621,5.1,5.1,0,0,1,1.207,1.33l7.327-1.951,5.2,8.33-5.2,4.609a5.9,5.9,0,0,1,.277,1.756,10.358,10.358,0,0,1-.277,2.086l5.672,3.424-4.018,9.219-6.323-2.07a8.757,8.757,0,0,1-1.706,1.357,7.047,7.047,0,0,1-1.9.713l-.886,6.793h-10.221l-1.359-5.965a4.385,4.385,0,0,1-2.068-.492,5.5,5.5,0,0,1-1.6-1.635l-6.2,2.127-5.059-8.51,5.059-4.49a4.775,4.775,0,0,1-.486-1.912,5.347,5.347,0,0,1,.486-1.988Z" transform="translate(-946.345 997.093)"/><circle class="a" cx="8" cy="8" r="8" transform="translate(5115 21914)"/><path class="q" d="M0,8.958,2.332,4.136,5.949,5.28A3.089,3.089,0,0,1,6.7,4.323a2.57,2.57,0,0,1,1.064-.433L8.431.334,14.109,0l.6,3.34a2.378,2.378,0,0,1,.888.351,2.9,2.9,0,0,1,.682.751l4.141-1.1,2.939,4.709-2.939,2.605a3.346,3.346,0,0,1,.157.991,5.869,5.869,0,0,1-.157,1.18l3.206,1.937-2.271,5.21L17.783,18.8a5.063,5.063,0,0,1-.965.767,3.978,3.978,0,0,1-1.073.4l-.5,3.841H9.467L8.7,20.44a2.461,2.461,0,0,1-1.169-.277,3.109,3.109,0,0,1-.9-.925l-3.507,1.2L.261,15.631l2.86-2.538a2.694,2.694,0,0,1-.275-1.081,3.022,3.022,0,0,1,.275-1.123Z" transform="matrix(0.875, -0.485, 0.485, 0.875, 5045.046, 21918.701)"/><ellipse class="a" cx="4.532" cy="4.532" rx="4.532" ry="4.532" transform="matrix(0.875, -0.485, 0.485, 0.875, 5055.037, 21921.611)"/><path class="q" d="M0,8.958,2.332,4.136,5.949,5.28A3.092,3.092,0,0,1,6.7,4.323a2.573,2.573,0,0,1,1.064-.433L8.431.334,14.109,0l.6,3.34a2.376,2.376,0,0,1,.887.351,2.893,2.893,0,0,1,.682.751l4.141-1.1,2.939,4.709-2.939,2.605a3.349,3.349,0,0,1,.157.991,5.867,5.867,0,0,1-.157,1.18l3.206,1.937-2.271,5.21L17.783,18.8a5.066,5.066,0,0,1-.965.767,3.982,3.982,0,0,1-1.073.4l-.5,3.841H9.467L8.7,20.44a2.462,2.462,0,0,1-1.169-.277,3.109,3.109,0,0,1-.9-.925l-3.507,1.2L.261,15.631l2.86-2.538a2.7,2.7,0,0,1-.275-1.081,3.023,3.023,0,0,1,.275-1.123Z" transform="matrix(0.883, -0.469, 0.469, 0.883, 5129.266, 21888.23)"/><ellipse class="a" cx="4.532" cy="4.532" rx="4.532" ry="4.532" transform="matrix(0.883, -0.469, 0.469, 0.883, 5140.468, 21891.326)"/><path class="f" d="M28.882,40.857S31.59,47.07,39.4,44.617s6.225-8.063,6.225-8.063-.182,6.409,5.4,6.409,6.8-4.2,6.8-4.2a4.245,4.245,0,0,0,5.68,0,3.9,3.9,0,0,0,.831-5.349,4.946,4.946,0,0,0,3.673-4.647c.285-3.934-3.673-5.12-3.673-5.12a5.655,5.655,0,0,0,1.62-6,4.951,4.951,0,0,0-4.527-3.54,6.722,6.722,0,0,0-1.06-7.293c-3.022-3.705-6.615-2.007-6.615-2.007S52.528,1.44,47.553,1.071a9.375,9.375,0,0,0-7.741,3.158A8.678,8.678,0,0,0,32.853.011c-4.869-.264-6.995,4.218-6.995,4.218A6.786,6.786,0,0,0,18.351,1.44a8.112,8.112,0,0,0-6.1,6.279S7.4,6.627,4.538,10.227s.507,8.072.507,8.072S1.23,18.39.171,23.417A6.143,6.143,0,0,0,3.3,30.393a7.934,7.934,0,0,0,3.91,7.948c4.869,3.017,9.811-.391,9.811-.391s1.039,5.366,6.49,6.213S28.882,40.857,28.882,40.857Z" transform="matrix(0.574, 0.819, -0.819, 0.574, 5843.178, 21870.355)"/><path class="g" d="M0,.178a4.258,4.258,0,0,1,4.122.964,5.807,5.807,0,0,1,1.71,4.168" transform="matrix(0.574, 0.819, -0.819, 0.574, 5858.686, 21908.717)"/><path class="g" d="M0,4.964a4.618,4.618,0,0,0,4.588-.713A4.28,4.28,0,0,0,5.971,0" transform="matrix(0.574, 0.819, -0.819, 0.574, 5829.319, 21914.951)"/><path class="g" d="M0,16.05a4.384,4.384,0,0,0,3.2-2.9,4.725,4.725,0,0,0-.7-4.121A5.978,5.978,0,0,0,5.657,4.474,4.828,4.828,0,0,0,3.552,0" transform="matrix(0.574, 0.819, -0.819, 0.574, 5852.157, 21926.064)"/><path class="g" d="M3.341,33.983c0-.4-4.675-4.16-2.965-9.178s5.416-5.644,5.416-5.644a8.05,8.05,0,0,1,.57-8.264,5.8,5.8,0,0,1,6.9-2.511s-1.482-4.446,3.934-7.3a7.8,7.8,0,0,1,9.121.8" transform="matrix(0.574, 0.819, -0.819, 0.574, 5845.139, 21883.549)"/><path class="g" d="M.039,6.668S-.249,3,.741,1.492A4.008,4.008,0,0,1,3.854,0" transform="matrix(0.574, 0.819, -0.819, 0.574, 5823.416, 21888.912)"/><path class="q" d="M6048.331,20916.982l3.338-6.9,5.176,1.641a4.384,4.384,0,0,1,1.074-1.371,3.671,3.671,0,0,1,1.522-.619l.955-5.088,8.125-.482.86,4.781a3.388,3.388,0,0,1,1.27.5,4.149,4.149,0,0,1,.977,1.076l5.926-1.578,4.206,6.738-4.206,3.729a4.77,4.77,0,0,1,.224,1.42,8.375,8.375,0,0,1-.224,1.688l4.588,2.77-3.25,7.457-5.115-1.674a7.111,7.111,0,0,1-1.379,1.1,5.717,5.717,0,0,1-1.535.576l-.717,5.5h-8.268l-1.1-4.826a3.548,3.548,0,0,1-1.672-.4,4.447,4.447,0,0,1-1.291-1.322l-5.019,1.721-4.092-6.883,4.092-3.633a3.861,3.861,0,0,1-.394-1.547,4.323,4.323,0,0,1,.394-1.607Z" transform="translate(117.661 1713.324)"/><ellipse class="a" cx="6.5" cy="6" rx="6.5" ry="6" transform="translate(6177 22629)"/><path class="q" d="M0,7.246l1.886-3.9,2.926.926A2.5,2.5,0,0,1,5.419,3.5a2.079,2.079,0,0,1,.86-.35L6.82.27,11.413,0,11.9,2.7a1.923,1.923,0,0,1,.718.284,2.342,2.342,0,0,1,.552.608l3.35-.891L18.9,6.511,16.519,8.619a2.707,2.707,0,0,1,.127.8,4.747,4.747,0,0,1-.127.955l2.594,1.567-1.837,4.215-2.891-.946a4.1,4.1,0,0,1-.78.621,3.218,3.218,0,0,1-.868.325l-.405,3.107H7.658l-.621-2.729a1.991,1.991,0,0,1-.945-.224,2.515,2.515,0,0,1-.73-.748l-2.837.973L.211,12.644,2.524,10.59A2.179,2.179,0,0,1,2.3,9.716a2.444,2.444,0,0,1,.222-.908Z" transform="matrix(0.875, -0.485, 0.485, 0.875, 6143.089, 22631.73)"/><ellipse class="a" cx="3.666" cy="3.666" rx="3.666" ry="3.666" transform="matrix(0.875, -0.485, 0.485, 0.875, 6151.171, 22634.084)"/><path class="q" d="M0,7.246l1.886-3.9,2.926.926A2.5,2.5,0,0,1,5.419,3.5a2.082,2.082,0,0,1,.86-.35L6.82.27,11.413,0,11.9,2.7a1.922,1.922,0,0,1,.718.284,2.34,2.34,0,0,1,.552.607l3.35-.891L18.9,6.511,16.519,8.619a2.709,2.709,0,0,1,.127.8,4.746,4.746,0,0,1-.127.954l2.594,1.567-1.837,4.215-2.891-.946a4.1,4.1,0,0,1-.78.62,3.221,3.221,0,0,1-.868.325l-.405,3.107H7.658l-.621-2.729a1.992,1.992,0,0,1-.945-.224,2.515,2.515,0,0,1-.73-.748l-2.837.973L.211,12.644l2.313-2.053A2.18,2.18,0,0,1,2.3,9.716a2.445,2.445,0,0,1,.222-.908Z" transform="matrix(0.883, -0.469, 0.469, 0.883, 6182.902, 22607.41)"/><ellipse class="a" cx="3.666" cy="3.666" rx="3.666" ry="3.666" transform="matrix(0.883, -0.469, 0.469, 0.883, 6191.426, 22609.592)"/><ellipse class="f" cx="21.859" cy="21.859" rx="21.859" ry="21.859" transform="translate(6167.887 22343.051) rotate(111)"/><path class="f" d="M.85,4.947H17.311s.04.742.332-1.273c.049-.433.932-3.674.932-3.674H0S.232,1.052.45,2.17A23.714,23.714,0,0,1,.85,4.947Z" transform="translate(6126.482 22339.514) rotate(111)"/><path class="o" d="M0,0H18.5a0,0,0,0,1,0,0V4.2a9.248,9.248,0,0,1-9.248,9.248h0A9.248,9.248,0,0,1,0,4.2V0A0,0,0,0,1,0,0Z" transform="translate(6123.308 22337.957) rotate(111)"/><rect class="i" width="6.726" height="15.133" rx="3.363" transform="translate(6183.841 22367.184) rotate(111)"/><rect class="i" width="5.661" height="12.736" rx="2.83" transform="matrix(-0.914, 0.407, -0.407, -0.914, 6164.313, 22391.605)"/><rect class="i" width="5.66" height="12.736" rx="2.83" transform="matrix(0.407, 0.914, -0.914, 0.407, 6177.982, 22339.311)"/><rect class="i" width="5.66" height="10.755" rx="2.83" transform="matrix(0.829, 0.559, -0.559, 0.829, 6160.761, 22322.938)"/><rect class="i" width="5.661" height="10.755" rx="2.83" transform="translate(6140.577 22396.447) rotate(-172)"/><ellipse class="r" cx="3.363" cy="6.726" rx="3.363" ry="6.726" transform="translate(6157.127 22353.426) rotate(139)"/><ellipse class="f" cx="17.306" cy="17.306" rx="17.306" ry="17.306" transform="matrix(0.974, 0.225, -0.225, 0.974, 4889.659, 22518.143)"/><path class="f" d="M.673,3.917H13.706s.032.588.263-1.008c.039-.343.738-2.909.738-2.909H0S.184.833.356,1.718A18.775,18.775,0,0,1,.673,3.917Z" transform="matrix(0.974, 0.225, -0.225, 0.974, 4891.448, 22550.992)"/><path class="o" d="M0,0H14.643a0,0,0,0,1,0,0V3.328A7.322,7.322,0,0,1,7.322,10.65h0A7.322,7.322,0,0,1,0,3.328V0A0,0,0,0,1,0,0Z" transform="matrix(0.974, 0.225, -0.225, 0.974, 4890.609, 22553.875)"/><rect class="i" width="5.325" height="11.981" rx="2.662" transform="matrix(0.974, 0.225, -0.225, 0.974, 4906.822, 22502.975)"/><rect class="i" width="4.482" height="10.084" rx="2.241" transform="matrix(0.53, 0.848, -0.848, 0.53, 4928.12, 22515.594)"/><rect class="i" width="4.482" height="10.084" rx="2.241" transform="matrix(0.848, -0.53, 0.53, 0.848, 4885.613, 22510.641)"/><rect class="i" width="4.482" height="8.515" rx="2.241" transform="matrix(0.438, -0.899, 0.899, 0.438, 4874.676, 22525.945)"/><rect class="i" width="4.482" height="8.515" rx="2.241" transform="translate(4934.53 22533.67) rotate(90)"/><ellipse class="p" cx="2.662" cy="5.325" rx="2.662" ry="5.325" transform="translate(4898.978 22525.436) rotate(41)"/><path class="q" d="M0,19.831,5.163,9.157,13.17,11.7a6.788,6.788,0,0,1,1.661-2.122,5.658,5.658,0,0,1,2.355-.957L18.665.743,31.234,0l1.331,7.4a5.188,5.188,0,0,1,1.963.777,6.434,6.434,0,0,1,1.51,1.662L45.208,7.4,51.714,17.82l-6.506,5.773a7.394,7.394,0,0,1,.345,2.194,12.975,12.975,0,0,1-.345,2.608l7.1,4.289L47.279,44.22l-7.913-2.588a11.04,11.04,0,0,1-2.135,1.695,8.766,8.766,0,0,1-2.374.893l-1.11,8.5H20.958l-1.7-7.465a5.457,5.457,0,0,1-2.588-.619,6.856,6.856,0,0,1-2-2.044L6.909,45.257.579,34.608l6.33-5.62A5.978,5.978,0,0,1,6.3,26.594a6.637,6.637,0,0,1,.609-2.483Z" transform="matrix(0.469, -0.883, 0.883, 0.469, 5262.043, 22345.873)"/><ellipse class="a" cx="9.576" cy="9.578" rx="9.576" ry="9.578" transform="matrix(0.469, -0.883, 0.883, 0.469, 5286.812, 22339.506)"/><path class="q" d="M0,11.21,2.918,5.176,7.445,6.607a3.865,3.865,0,0,1,.939-1.2,3.216,3.216,0,0,1,1.331-.541L10.551.418,17.656,0l.752,4.18a2.975,2.975,0,0,1,1.111.439,3.623,3.623,0,0,1,.854.94L25.555,4.18l3.678,5.893-3.678,3.26a4.187,4.187,0,0,1,.2,1.24,7.344,7.344,0,0,1-.2,1.477l4.012,2.424-2.842,6.52-4.472-1.463a6.336,6.336,0,0,1-1.207.96,4.978,4.978,0,0,1-1.342.5L19.077,29.8H11.846l-.961-4.221a3.079,3.079,0,0,1-1.463-.347,3.891,3.891,0,0,1-1.129-1.158l-4.389,1.5L.327,19.561l3.579-3.177a3.371,3.371,0,0,1-.344-1.353,3.782,3.782,0,0,1,.344-1.405Z" transform="matrix(-0.017, -1, 1, -0.017, 5247.284, 22388.318)"/><ellipse class="a" cx="5.672" cy="5.672" rx="5.672" ry="5.672" transform="matrix(-0.017, -1, 1, -0.017, 5256.588, 22378.684)"/><path class="q" d="M0,11.21,2.918,5.176,7.445,6.607a3.869,3.869,0,0,1,.939-1.2,3.22,3.22,0,0,1,1.331-.541L10.551.418,17.656,0l.752,4.18a2.973,2.973,0,0,1,1.111.439,3.62,3.62,0,0,1,.854.94L25.555,4.18l3.678,5.893-3.678,3.26a4.191,4.191,0,0,1,.2,1.24,7.342,7.342,0,0,1-.2,1.477l4.012,2.424-2.842,6.52-4.472-1.463a6.34,6.34,0,0,1-1.207.96,4.983,4.983,0,0,1-1.342.5L19.077,29.8H11.846l-.961-4.221a3.081,3.081,0,0,1-1.463-.347,3.89,3.89,0,0,1-1.129-1.158l-4.389,1.5L.327,19.561l3.579-3.177a3.373,3.373,0,0,1-.344-1.353,3.783,3.783,0,0,1,.344-1.405Z" transform="translate(5237.422 22315.254) rotate(-90)"/><path class="q" d="M0,17.881,4.655,8.256l7.22,2.291a6.121,6.121,0,0,1,1.5-1.913A5.1,5.1,0,0,1,15.5,7.771L16.829.67,28.162,0l1.2,6.671a4.677,4.677,0,0,1,1.77.7,5.8,5.8,0,0,1,1.362,1.5l8.267-2.2,5.866,9.4-5.866,5.2a6.667,6.667,0,0,1,.311,1.978,11.7,11.7,0,0,1-.311,2.351l6.4,3.867-4.534,10.4-7.135-2.334a9.954,9.954,0,0,1-1.925,1.528,7.9,7.9,0,0,1-2.14.805l-1,7.666H18.9l-1.533-6.731a4.92,4.92,0,0,1-2.334-.558,6.181,6.181,0,0,1-1.8-1.843l-7,2.4L.522,31.2,6.23,26.137a5.39,5.39,0,0,1-.549-2.158A5.984,5.984,0,0,1,6.23,21.74Z" transform="translate(6161.951 22144.234) rotate(104)"/><ellipse class="a" cx="8.634" cy="9.21" rx="8.634" ry="9.21" transform="translate(6143.201 22155.924) rotate(104)"/><path class="q" d="M0,10.108,2.631,4.667,6.712,5.958a3.485,3.485,0,0,1,.847-1.079,2.9,2.9,0,0,1,1.2-.488L9.513.377,15.92,0,16.6,3.769a2.683,2.683,0,0,1,1,.4,3.267,3.267,0,0,1,.77.848l4.673-1.244,3.316,5.313-3.316,2.94a3.775,3.775,0,0,1,.177,1.118,6.622,6.622,0,0,1-.177,1.332l3.618,2.186L24.1,22.536l-4.032-1.319a5.713,5.713,0,0,1-1.089.866,4.489,4.489,0,0,1-1.21.454L17.2,26.87h-6.52l-.867-3.806A2.777,2.777,0,0,1,8.5,22.751a3.508,3.508,0,0,1-1.018-1.044L3.521,23.064.295,17.637l3.227-2.864a3.04,3.04,0,0,1-.31-1.22,3.41,3.41,0,0,1,.31-1.267Z" transform="matrix(0.259, 0.966, -0.966, 0.259, 6150.404, 22108.434)"/><ellipse class="a" cx="5.114" cy="5.114" rx="5.114" ry="5.114" transform="matrix(0.259, 0.966, -0.966, 0.259, 6144.492, 22118.574)"/><path class="q" d="M0,10.108,2.631,4.667,6.712,5.958a3.488,3.488,0,0,1,.847-1.079,2.9,2.9,0,0,1,1.2-.488L9.513.377,15.92,0,16.6,3.769a2.681,2.681,0,0,1,1,.4,3.264,3.264,0,0,1,.77.847l4.673-1.244,3.316,5.314-3.316,2.94a3.779,3.779,0,0,1,.177,1.118,6.62,6.62,0,0,1-.177,1.331l3.618,2.186L24.1,22.536l-4.032-1.319a5.716,5.716,0,0,1-1.089.865,4.493,4.493,0,0,1-1.21.454L17.2,26.87h-6.52l-.867-3.806A2.778,2.778,0,0,1,8.5,22.751a3.508,3.508,0,0,1-1.018-1.044L3.521,23.064.295,17.637l3.227-2.864a3.041,3.041,0,0,1-.31-1.22,3.411,3.411,0,0,1,.31-1.267Z" transform="translate(6169.884 22170.521) rotate(76)"/><ellipse class="a" cx="5.114" cy="5.114" rx="5.114" ry="5.114" transform="translate(6164.055 22181.32) rotate(76)"/><path class="h" d="M1.246,0,0,4.4,4.918,3.314Z" transform="matrix(1, -0.017, 0.017, 1, 5682.988, 22284.922)"/><path class="i" d="M3.715,0,0,9.5l3.715,3.287,9.177-3.88Z" transform="matrix(1, -0.017, 0.017, 1, 5684.15, 22275.48)"/><path class="j" d="M9.028.253C6.244,1.508,0,4.738,0,4.738L2.309,6.693l9.376-3.849S11.812-1.005,9.028.253Z" transform="matrix(1, -0.017, 0.017, 1, 5686.348, 22281.707)"/><path class="o" d="M10.593,4.832l-3.7-3.7a3.446,3.446,0,0,0-5.116,0L0,3.079l8.527,8.812,2.065-2.227A3.6,3.6,0,0,0,11.73,7.106,3.509,3.509,0,0,0,10.593,4.832Z" transform="matrix(0.999, -0.035, 0.035, 0.999, 5709.5, 22249.098)"/><rect class="k" width="13.789" height="30.759" rx="2" transform="matrix(0.731, 0.682, -0.682, 0.731, 5707.006, 22253.982)"/><rect class="l" width="13.788" height="3.588" rx="1" transform="matrix(0.731, 0.682, -0.682, 0.731, 5709.116, 22251.656)"/><path class="m" d="M.445,0a2.849,2.849,0,0,1,2.38,1.453,9.938,9.938,0,0,1,.5,3.766c.008.25-.027.533.114.562.484.1.632-.132.795.209a3.8,3.8,0,0,1,.068,1.305s.05.9.046,1.354a.554.554,0,0,1-.306.556l.074.169-.129,28.6a.511.511,0,0,1-.445.558c-3.344,0-3.474.744-3.451-.916S0,.558,0,.558A.511.511,0,0,1,.445,0Z" transform="matrix(0.731, 0.682, -0.682, 0.731, 5720.496, 22254.811)"/><line class="n" y1="21.826" x2="21.38" transform="matrix(1, -0.017, 0.017, 1, 5686.79, 22256.053)"/><line class="n" y1="21.826" x2="21.38" transform="matrix(1, -0.017, 0.017, 1, 5694.51, 22262.012)"/><path class="h" d="M2.253-.234,0,6.065,6.624,3.91Z" transform="translate(5435.458 22626.441) rotate(-166)"/><path class="i" d="M4.47,0,0,11.43l4.47,3.955,11.04-4.667Z" transform="translate(5430.6 22637.031) rotate(-166)"/><path class="j" d="M10.862.3C7.512,1.815,0,5.7,0,5.7L2.778,8.053l11.28-4.63S14.211-1.21,10.862.3Z" transform="translate(5428.141 22630.068) rotate(-166)"/><path class="o" d="M12.744,5.814,8.3,1.368a4.146,4.146,0,0,0-6.156,0L0,3.7l10.259,10.6,2.484-2.679a4.335,4.335,0,0,0,1.368-3.078A4.222,4.222,0,0,0,12.744,5.814Z" transform="translate(5392.186 22659.924) rotate(-167)"/><rect class="k" width="16.589" height="37.005" rx="2" transform="translate(5397.141 22655.08) rotate(-122)"/><rect class="l" width="16.588" height="4.317" rx="1" transform="translate(5393.655 22657.018) rotate(-122)"/><path class="m" d="M.536,0A3.419,3.419,0,0,1,3.4,1.764c.639,1.244.552,3.274.605,4.574.01.3-.032.647.137.682.583.121.76-.16.956.254a4.664,4.664,0,0,1,.082,1.585s.061,1.1.056,1.644a.673.673,0,0,1-.368.675l.088.205L4.8,46.128a.619.619,0,0,1-.536.678c-4.023,0-4.179.9-4.151-1.113S0,.678,0,.678A.619.619,0,0,1,.536,0Z" transform="translate(5380.65 22651.213) rotate(-122)"/><line class="n" y1="26.258" x2="25.722" transform="translate(5420.504 22659.15) rotate(-166)"/><line class="n" y1="26.258" x2="25.722" transform="translate(5413.378 22650.006) rotate(-166)"/><g transform="translate(4847.075 21958.844)"><g class="b" transform="matrix(0.966, 0.259, -0.259, 0.966, 36.434, 124.309)"><path class="s" d="M12.108,0,24.216,21.189H0Z"/><path class="t" d="M 12.10790920257568 2.418678283691406 L 2.067815780639648 19.98884201049805 L 22.14800262451172 19.98884201049805 L 12.10790920257568 2.418678283691406 M 12.10790920257568 1.9073486328125e-06 L 24.21581840515137 21.18884086608887 L 0 21.18884086608887 L 12.10790920257568 1.9073486328125e-06 Z"/></g><g class="b" transform="matrix(0.999, -0.035, 0.035, 0.999, 0, 415.355)"><path class="s" d="M5.644,0a19.209,19.209,0,1,1,0,38.418A38.077,38.077,0,0,1,0,37.575L1.359.477A32.149,32.149,0,0,1,5.644,0Z"/><path class="w" d="M 5.643499374389648 1.199993133544922 C 4.731882095336914 1.199993133544922 3.41033935546875 1.371685028076172 2.521894454956055 1.504947662353516 L 1.236297607421875 36.60617828369141 C 2.571287155151367 36.86977386474609 4.574583053588867 37.21754455566406 5.643499374389648 37.21754455566406 C 10.45382022857666 37.21754455566406 14.97622013092041 35.34430313110352 18.37763023376465 31.94289398193359 C 21.77903938293457 28.54149436950684 23.65227890014648 24.01909446716309 23.65227890014648 19.20877456665039 C 23.65227890014648 14.3984546661377 21.77903938293457 9.876054763793945 18.37763023376465 6.474643707275391 C 14.97622013092041 3.073234558105469 10.45382022857666 1.199993133544922 5.643499374389648 1.199993133544922 M 5.643499374389648 -3.814697265625e-06 C 16.25222015380859 -3.814697265625e-06 24.85227966308594 8.600065231323242 24.85227966308594 19.20877456665039 C 24.85227966308594 29.81748580932617 16.25222015380859 38.41754531860352 5.643499374389648 38.41754531860352 C 3.81879997253418 38.41754531860352 0 37.57515335083008 0 37.57515335083008 L 1.358730316162109 0.4771347045898438 C 1.358730316162109 0.4771347045898438 4.034900665283203 -3.814697265625e-06 5.643499374389648 -3.814697265625e-06 Z"/></g><g class="c" transform="translate(110.925 78.157)"><ellipse class="s" cx="5.5" cy="5" rx="5.5" ry="5"/><ellipse class="u" cx="5.5" cy="5" rx="4.9" ry="4.4"/></g><g class="d" transform="translate(34.416 0) rotate(22)"><rect class="s" width="14.378" height="14.378"/><rect class="u" x="0.6" y="0.6" width="13.178" height="13.178"/></g><path class="a" d="M.078.149a12.338,12.338,0,0,1,3.758-.68,14.159,14.159,0,0,1,3.925.68L7.389,34.41a16.468,16.468,0,0,1-3.553.408A26.544,26.544,0,0,1-.276,34.41Z" transform="translate(1.107 417.321)"/></g><path class="g" d="M.045,7.641s-.33-4.207.8-5.933A4.59,4.59,0,0,1,4.418,0" transform="matrix(0.574, 0.819, -0.819, 0.574, 6095.434, 22474.09)"/><path class="o" d="M15.545,7.092,10.122,1.669a5.058,5.058,0,0,0-7.509,0L0,4.519,12.515,17.451l3.031-3.268a5.288,5.288,0,0,0,1.669-3.754A5.15,5.15,0,0,0,15.545,7.092Z" transform="matrix(-0.438, 0.899, -0.899, -0.438, 6166.443, 22052.648)"/><rect class="l" width="20.001" height="5.205" rx="1" transform="matrix(-0.946, 0.326, -0.326, -0.946, 6162.989, 22050.631)"/><ellipse class="a" cx="3.666" cy="3.666" rx="3.666" ry="3.666" transform="matrix(0.883, -0.469, 0.469, 0.883, 6191.426, 22609.592)"/><ellipse class="a" cx="5.672" cy="5.672" rx="5.672" ry="5.672" transform="translate(5247.09 22305.939) rotate(-90)"/><ellipse class="a" cx="5.114" cy="5.114" rx="5.114" ry="5.114" transform="translate(6164.055 22181.32) rotate(76)"/><path class="g" d="M1877.494,21288.68s-.39-4.963.948-7,4.21-2.014,4.21-2.014" transform="translate(3492.065 798.67)"/></g></svg>