<svg xmlns="http://www.w3.org/2000/svg" width="1362" height="836" viewBox="0 0 1362 836"><defs><style>.a{fill:#5c5c5c;}.b{fill:#656565;}.c,.j{fill:none;}.c{stroke:#5c5c5c;stroke-width:2px;}.d,.f{fill:#636363;}.e{fill:#686868;}.f,.i{opacity:0.24;}.g{fill:#646464;}.h{fill:#6d6d6d;}.i{fill:#5e5e5e;}.j{stroke:#686868;}.k{fill:#696969;}.l{fill:#7e7e7e;}.m{fill:#666;}.n{fill:#747474;}</style></defs><g transform="translate(-4847 -21851)"><rect class="a" width="1362" height="836" transform="translate(4847 21851)"/><path class="b" d="M33.105,46.832s3.1,7.121,12.056,4.309S52.3,41.9,52.3,41.9s-.209,7.346,6.195,7.346,7.8-4.812,7.8-4.812a4.866,4.866,0,0,0,6.511,0,4.471,4.471,0,0,0,.953-6.13,5.671,5.671,0,0,0,4.21-5.327c.327-4.51-4.21-5.87-4.21-5.87a6.48,6.48,0,0,0,1.857-6.873,5.675,5.675,0,0,0-5.189-4.057A7.7,7.7,0,0,0,69.21,7.816c-3.463-4.247-7.582-2.3-7.582-2.3s-1.418-3.864-7.12-4.289a10.745,10.745,0,0,0-8.873,3.622A9.946,9.946,0,0,0,37.658.013c-5.581-.3-8.017,4.835-8.017,4.835a7.777,7.777,0,0,0-8.6-3.2,9.3,9.3,0,0,0-6.989,7.2S8.478,7.6,5.2,11.721s.581,9.254.581,9.254S1.41,21.077.2,26.84a7.041,7.041,0,0,0,3.587,8,9.1,9.1,0,0,0,4.482,9.112C13.846,47.4,19.511,43.5,19.511,43.5s1.191,6.15,7.439,7.121S33.105,46.832,33.105,46.832Z" transform="matrix(0.574, 0.819, -0.819, 0.574, 6115.166, 22454.098)"/><path class="c" d="M0,.2a4.883,4.883,0,0,1,4.725,1.1A6.656,6.656,0,0,1,6.686,6.084" transform="matrix(0.574, 0.819, -0.819, 0.574, 6134.757, 22498.066)"/><path class="c" d="M0,5.69a5.293,5.293,0,0,0,5.259-.818A4.906,4.906,0,0,0,6.844,0" transform="matrix(0.574, 0.819, -0.819, 0.574, 6103.989, 22507.738)"/><path class="c" d="M0,18.4a5.025,5.025,0,0,0,3.669-3.319,5.415,5.415,0,0,0-.8-4.725A6.855,6.855,0,0,0,6.484,5.127,5.533,5.533,0,0,0,4.072,0" transform="matrix(0.574, 0.819, -0.819, 0.574, 6133.704, 22517.953)"/><path class="c" d="M3.829,38.955c0-.458-5.359-4.77-3.4-10.522s6.208-6.468,6.208-6.468a9.229,9.229,0,0,1,.653-9.474C10.625,7.718,15.2,9.614,15.2,9.614s-1.7-5.1,4.509-8.366,10.455.915,10.455.915" transform="matrix(0.574, 0.819, -0.819, 0.574, 6121.801, 22469.219)"/><path class="d" d="M2.605,0,0,7.628l8.576-2.2Z" transform="matrix(-0.454, 0.891, -0.891, -0.454, 6138.595, 21991.514)"/><path class="e" d="M5.389,0,0,13.781l5.389,4.768L18.7,12.922Z" transform="matrix(-0.454, 0.891, -0.891, -0.454, 6149.052, 21999.283)"/><path class="f" d="M13.1.367C9.057,2.188,0,6.873,0,6.873L3.35,9.709l13.6-5.583S17.135-1.459,13.1.367Z" transform="matrix(-0.454, 0.891, -0.891, -0.454, 6140.182, 21996.727)"/><rect class="g" width="20.001" height="44.617" rx="2" transform="matrix(-0.946, 0.326, -0.326, -0.946, 6161.692, 22045.891)"/><rect class="h" width="20.001" height="5.205" rx="1" transform="matrix(-0.946, 0.326, -0.326, -0.946, 6162.989, 22050.631)"/><path class="i" d="M.646,0A4.089,4.089,0,0,1,4.1,2.2c.77,1.552.665,4.082.73,5.7.012.379-.039.807.165.851.7.151.917-.2,1.153.317a6.011,6.011,0,0,1,.1,1.977s.073,1.37.067,2.05a.84.84,0,0,1-.444.842l.107.256L5.787,57.519a.766.766,0,0,1-.646.845C.289,58.365.1,59.492.135,56.977S0,.845,0,.845A.766.766,0,0,1,.646,0Z" transform="matrix(-0.946, 0.326, -0.326, -0.946, 6152.868, 22063.381)"/><line class="j" y1="31.659" x2="31.013" transform="matrix(-0.454, 0.891, -0.891, -0.454, 6170.273, 22019.816)"/><line class="j" y1="31.659" x2="31.013" transform="matrix(-0.454, 0.891, -0.891, -0.454, 6160.713, 22022.924)"/><path class="b" d="M1891.487,21097.518s4.349,9.975,16.892,6.037,10-12.949,10-12.949-.293,10.293,8.679,10.293,10.929-6.742,10.929-6.742,4.453,4.059,9.123,0a6.263,6.263,0,0,0,1.334-8.588,7.946,7.946,0,0,0,5.9-7.465c.457-6.32-5.9-8.227-5.9-8.227s4.616-3.861,2.6-9.631a7.948,7.948,0,0,0-7.27-5.68,10.8,10.8,0,0,0-1.7-11.715c-4.852-5.953-10.623-3.221-10.623-3.221s-1.986-5.416-9.976-6.014a15.048,15.048,0,0,0-12.432,5.076,13.93,13.93,0,0,0-11.175-6.773c-7.82-.424-11.233,6.773-11.233,6.773s-3.641-6.352-12.056-4.479-9.792,10.082-9.792,10.082-7.8-1.752-12.392,4.025.814,12.969.814,12.969-6.127.143-7.826,8.217a9.864,9.864,0,0,0,5.026,11.2,12.744,12.744,0,0,0,6.279,12.766c7.82,4.84,15.756-.631,15.756-.631s1.668,8.619,10.423,9.979S1891.487,21097.518,1891.487,21097.518Z" transform="translate(3521.559 1014.098)"/><path class="c" d="M2219.684,21104.9a6.844,6.844,0,0,1,6.621,1.547,9.317,9.317,0,0,1,2.747,6.689" transform="translate(3235.897 954.231)"/><path class="c" d="M2174.658,21310.566a7.414,7.414,0,0,0,7.368-1.146,6.872,6.872,0,0,0,2.221-6.826" transform="translate(3280.542 791.245)"/><path class="c" d="M1978.811,21112.125c0-.641-7.508-6.682-4.761-14.742s8.7-9.064,8.7-9.064a12.928,12.928,0,0,1,.915-13.273c4.669-6.684,11.079-4.027,11.079-4.027s-2.381-7.143,6.317-11.723,14.648,1.283,14.648,1.283" transform="translate(3408.092 992.986)"/><ellipse class="b" cx="15.283" cy="15.284" rx="15.283" ry="15.284" transform="translate(4921.299 22153.896) rotate(-1)"/><path class="b" d="M.594,3.461H12.1s.028.519.232-.891c.034-.3.652-2.57.652-2.57H0S.162.737.314,1.519A16.528,16.528,0,0,1,.594,3.461Z" transform="translate(4929.85 22181.66) rotate(-1)"/><path class="k" d="M0,0H12.932a0,0,0,0,1,0,0V2.939A6.466,6.466,0,0,1,6.466,9.405h0A6.466,6.466,0,0,1,0,2.939V0A0,0,0,0,1,0,0Z" transform="translate(4929.747 22184.316) rotate(-1)"/><rect class="e" width="4.703" height="10.581" rx="2.351" transform="translate(4932.766 22137.23) rotate(-1)"/><rect class="e" width="3.958" height="8.905" rx="1.979" transform="matrix(0.719, 0.695, -0.695, 0.719, 4953.713, 22143.492)"/><rect class="e" width="3.958" height="8.905" rx="1.979" transform="matrix(0.695, -0.719, 0.719, 0.695, 4916.229, 22148.33)"/><rect class="e" width="3.958" height="7.52" rx="1.979" transform="translate(4910.127 22163.781) rotate(-78)"/><rect class="e" width="3.958" height="7.52" rx="1.979" transform="matrix(0.242, 0.97, -0.97, 0.242, 4967.273, 22157.615)"/><ellipse class="l" cx="2.351" cy="4.703" rx="2.351" ry="4.703" transform="translate(4930.843 22158.156) rotate(27)"/><path class="m" d="M6048.331,20920.01l4.126-8.527,6.4,2.027a5.427,5.427,0,0,1,1.328-1.7,4.546,4.546,0,0,1,1.882-.766l1.181-6.289,10.045-.6,1.063,5.91a4.183,4.183,0,0,1,1.569.621,5.1,5.1,0,0,1,1.207,1.33l7.327-1.951,5.2,8.33-5.2,4.609a5.9,5.9,0,0,1,.277,1.756,10.358,10.358,0,0,1-.277,2.086l5.672,3.424-4.018,9.219-6.323-2.07a8.757,8.757,0,0,1-1.706,1.357,7.047,7.047,0,0,1-1.9.713l-.886,6.793h-10.221l-1.359-5.965a4.385,4.385,0,0,1-2.068-.492,5.5,5.5,0,0,1-1.6-1.635l-6.2,2.127-5.059-8.51,5.059-4.49a4.775,4.775,0,0,1-.486-1.912,5.347,5.347,0,0,1,.486-1.988Z" transform="translate(-946.345 997.093)"/><circle class="a" cx="8" cy="8" r="8" transform="translate(5115 21914)"/><path class="m" d="M0,8.958,2.332,4.136,5.949,5.28A3.089,3.089,0,0,1,6.7,4.323a2.57,2.57,0,0,1,1.064-.433L8.431.334,14.109,0l.6,3.34a2.378,2.378,0,0,1,.888.351,2.9,2.9,0,0,1,.682.751l4.141-1.1,2.939,4.709-2.939,2.605a3.346,3.346,0,0,1,.157.991,5.869,5.869,0,0,1-.157,1.18l3.206,1.937-2.271,5.21L17.783,18.8a5.063,5.063,0,0,1-.965.767,3.978,3.978,0,0,1-1.073.4l-.5,3.841H9.467L8.7,20.44a2.461,2.461,0,0,1-1.169-.277,3.109,3.109,0,0,1-.9-.925l-3.507,1.2L.261,15.631l2.86-2.538a2.694,2.694,0,0,1-.275-1.081,3.022,3.022,0,0,1,.275-1.123Z" transform="matrix(0.875, -0.485, 0.485, 0.875, 5045.046, 21918.701)"/><ellipse class="a" cx="4.532" cy="4.532" rx="4.532" ry="4.532" transform="matrix(0.875, -0.485, 0.485, 0.875, 5055.037, 21921.611)"/><path class="m" d="M0,8.958,2.332,4.136,5.949,5.28A3.092,3.092,0,0,1,6.7,4.323a2.573,2.573,0,0,1,1.064-.433L8.431.334,14.109,0l.6,3.34a2.376,2.376,0,0,1,.887.351,2.893,2.893,0,0,1,.682.751l4.141-1.1,2.939,4.709-2.939,2.605a3.349,3.349,0,0,1,.157.991,5.867,5.867,0,0,1-.157,1.18l3.206,1.937-2.271,5.21L17.783,18.8a5.066,5.066,0,0,1-.965.767,3.982,3.982,0,0,1-1.073.4l-.5,3.841H9.467L8.7,20.44a2.462,2.462,0,0,1-1.169-.277,3.109,3.109,0,0,1-.9-.925l-3.507,1.2L.261,15.631l2.86-2.538a2.7,2.7,0,0,1-.275-1.081,3.023,3.023,0,0,1,.275-1.123Z" transform="matrix(0.883, -0.469, 0.469, 0.883, 5129.266, 21888.23)"/><ellipse class="a" cx="4.532" cy="4.532" rx="4.532" ry="4.532" transform="matrix(0.883, -0.469, 0.469, 0.883, 5140.468, 21891.326)"/><path class="b" d="M28.882,40.857S31.59,47.07,39.4,44.617s6.225-8.063,6.225-8.063-.182,6.409,5.4,6.409,6.8-4.2,6.8-4.2a4.245,4.245,0,0,0,5.68,0,3.9,3.9,0,0,0,.831-5.349,4.946,4.946,0,0,0,3.673-4.647c.285-3.934-3.673-5.12-3.673-5.12a5.655,5.655,0,0,0,1.62-6,4.951,4.951,0,0,0-4.527-3.54,6.722,6.722,0,0,0-1.06-7.293c-3.022-3.705-6.615-2.007-6.615-2.007S52.528,1.44,47.553,1.071a9.375,9.375,0,0,0-7.741,3.158A8.678,8.678,0,0,0,32.853.011c-4.869-.264-6.995,4.218-6.995,4.218A6.786,6.786,0,0,0,18.351,1.44a8.112,8.112,0,0,0-6.1,6.279S7.4,6.627,4.538,10.227s.507,8.072.507,8.072S1.23,18.39.171,23.417A6.143,6.143,0,0,0,3.3,30.393a7.934,7.934,0,0,0,3.91,7.948c4.869,3.017,9.811-.391,9.811-.391s1.039,5.366,6.49,6.213S28.882,40.857,28.882,40.857Z" transform="matrix(0.574, 0.819, -0.819, 0.574, 5843.178, 21870.355)"/><path class="c" d="M0,.178a4.258,4.258,0,0,1,4.122.964,5.807,5.807,0,0,1,1.71,4.168" transform="matrix(0.574, 0.819, -0.819, 0.574, 5858.686, 21908.717)"/><path class="c" d="M0,4.964a4.618,4.618,0,0,0,4.588-.713A4.28,4.28,0,0,0,5.971,0" transform="matrix(0.574, 0.819, -0.819, 0.574, 5829.319, 21914.951)"/><path class="c" d="M0,16.05a4.384,4.384,0,0,0,3.2-2.9,4.725,4.725,0,0,0-.7-4.121A5.978,5.978,0,0,0,5.657,4.474,4.828,4.828,0,0,0,3.552,0" transform="matrix(0.574, 0.819, -0.819, 0.574, 5852.157, 21926.064)"/><path class="c" d="M3.341,33.983c0-.4-4.675-4.16-2.965-9.178s5.416-5.644,5.416-5.644a8.05,8.05,0,0,1,.57-8.264,5.8,5.8,0,0,1,6.9-2.511s-1.482-4.446,3.934-7.3a7.8,7.8,0,0,1,9.121.8" transform="matrix(0.574, 0.819, -0.819, 0.574, 5845.139, 21883.549)"/><path class="c" d="M.039,6.668S-.249,3,.741,1.492A4.008,4.008,0,0,1,3.854,0" transform="matrix(0.574, 0.819, -0.819, 0.574, 5823.416, 21888.912)"/><path class="m" d="M6048.331,20916.982l3.338-6.9,5.176,1.641a4.384,4.384,0,0,1,1.074-1.371,3.671,3.671,0,0,1,1.522-.619l.955-5.088,8.125-.482.86,4.781a3.388,3.388,0,0,1,1.27.5,4.149,4.149,0,0,1,.977,1.076l5.926-1.578,4.206,6.738-4.206,3.729a4.77,4.77,0,0,1,.224,1.42,8.375,8.375,0,0,1-.224,1.688l4.588,2.77-3.25,7.457-5.115-1.674a7.111,7.111,0,0,1-1.379,1.1,5.717,5.717,0,0,1-1.535.576l-.717,5.5h-8.268l-1.1-4.826a3.548,3.548,0,0,1-1.672-.4,4.447,4.447,0,0,1-1.291-1.322l-5.019,1.721-4.092-6.883,4.092-3.633a3.861,3.861,0,0,1-.394-1.547,4.323,4.323,0,0,1,.394-1.607Z" transform="translate(117.661 1713.324)"/><ellipse class="a" cx="6.5" cy="6" rx="6.5" ry="6" transform="translate(6177 22629)"/><path class="m" d="M0,7.246l1.886-3.9,2.926.926A2.5,2.5,0,0,1,5.419,3.5a2.079,2.079,0,0,1,.86-.35L6.82.27,11.413,0,11.9,2.7a1.923,1.923,0,0,1,.718.284,2.342,2.342,0,0,1,.552.608l3.35-.891L18.9,6.511,16.519,8.619a2.707,2.707,0,0,1,.127.8,4.747,4.747,0,0,1-.127.955l2.594,1.567-1.837,4.215-2.891-.946a4.1,4.1,0,0,1-.78.621,3.218,3.218,0,0,1-.868.325l-.405,3.107H7.658l-.621-2.729a1.991,1.991,0,0,1-.945-.224,2.515,2.515,0,0,1-.73-.748l-2.837.973L.211,12.644,2.524,10.59A2.179,2.179,0,0,1,2.3,9.716a2.444,2.444,0,0,1,.222-.908Z" transform="matrix(0.875, -0.485, 0.485, 0.875, 6143.089, 22631.73)"/><ellipse class="a" cx="3.666" cy="3.666" rx="3.666" ry="3.666" transform="matrix(0.875, -0.485, 0.485, 0.875, 6151.171, 22634.084)"/><path class="m" d="M0,7.246l1.886-3.9,2.926.926A2.5,2.5,0,0,1,5.419,3.5a2.082,2.082,0,0,1,.86-.35L6.82.27,11.413,0,11.9,2.7a1.922,1.922,0,0,1,.718.284,2.34,2.34,0,0,1,.552.607l3.35-.891L18.9,6.511,16.519,8.619a2.709,2.709,0,0,1,.127.8,4.746,4.746,0,0,1-.127.954l2.594,1.567-1.837,4.215-2.891-.946a4.1,4.1,0,0,1-.78.62,3.221,3.221,0,0,1-.868.325l-.405,3.107H7.658l-.621-2.729a1.992,1.992,0,0,1-.945-.224,2.515,2.515,0,0,1-.73-.748l-2.837.973L.211,12.644l2.313-2.053A2.18,2.18,0,0,1,2.3,9.716a2.445,2.445,0,0,1,.222-.908Z" transform="matrix(0.883, -0.469, 0.469, 0.883, 6182.902, 22607.41)"/><ellipse class="a" cx="3.666" cy="3.666" rx="3.666" ry="3.666" transform="matrix(0.883, -0.469, 0.469, 0.883, 6191.426, 22609.592)"/><ellipse class="b" cx="21.859" cy="21.859" rx="21.859" ry="21.859" transform="translate(5877.887 22445.051) rotate(111)"/><path class="b" d="M.85,4.947H17.311s.04.742.332-1.273c.049-.433.932-3.674.932-3.674H0S.232,1.052.45,2.17A23.714,23.714,0,0,1,.85,4.947Z" transform="translate(5836.482 22441.514) rotate(111)"/><path class="k" d="M0,0H18.5a0,0,0,0,1,0,0V4.2a9.248,9.248,0,0,1-9.248,9.248h0A9.248,9.248,0,0,1,0,4.2V0A0,0,0,0,1,0,0Z" transform="translate(5833.308 22439.957) rotate(111)"/><rect class="e" width="6.726" height="15.133" rx="3.363" transform="translate(5893.841 22469.184) rotate(111)"/><rect class="e" width="5.661" height="12.736" rx="2.83" transform="matrix(-0.914, 0.407, -0.407, -0.914, 5874.313, 22493.605)"/><rect class="e" width="5.66" height="12.736" rx="2.83" transform="matrix(0.407, 0.914, -0.914, 0.407, 5887.982, 22441.311)"/><rect class="e" width="5.66" height="10.755" rx="2.83" transform="matrix(0.829, 0.559, -0.559, 0.829, 5870.761, 22424.938)"/><rect class="e" width="5.661" height="10.755" rx="2.83" transform="translate(5850.577 22498.447) rotate(-172)"/><ellipse class="n" cx="3.363" cy="6.726" rx="3.363" ry="6.726" transform="translate(5867.127 22455.426) rotate(139)"/><ellipse class="b" cx="17.306" cy="17.306" rx="17.306" ry="17.306" transform="matrix(0.974, 0.225, -0.225, 0.974, 4889.659, 22518.143)"/><path class="b" d="M.673,3.917H13.706s.032.588.263-1.008c.039-.343.738-2.909.738-2.909H0S.184.833.356,1.718A18.775,18.775,0,0,1,.673,3.917Z" transform="matrix(0.974, 0.225, -0.225, 0.974, 4891.448, 22550.992)"/><path class="k" d="M0,0H14.643a0,0,0,0,1,0,0V3.328A7.322,7.322,0,0,1,7.322,10.65h0A7.322,7.322,0,0,1,0,3.328V0A0,0,0,0,1,0,0Z" transform="matrix(0.974, 0.225, -0.225, 0.974, 4890.609, 22553.875)"/><rect class="e" width="5.325" height="11.981" rx="2.662" transform="matrix(0.974, 0.225, -0.225, 0.974, 4906.822, 22502.975)"/><rect class="e" width="4.482" height="10.084" rx="2.241" transform="matrix(0.53, 0.848, -0.848, 0.53, 4928.12, 22515.594)"/><rect class="e" width="4.482" height="10.084" rx="2.241" transform="matrix(0.848, -0.53, 0.53, 0.848, 4885.613, 22510.641)"/><rect class="e" width="4.482" height="8.515" rx="2.241" transform="matrix(0.438, -0.899, 0.899, 0.438, 4874.676, 22525.945)"/><rect class="e" width="4.482" height="8.515" rx="2.241" transform="translate(4934.53 22533.67) rotate(90)"/><ellipse class="l" cx="2.662" cy="5.325" rx="2.662" ry="5.325" transform="translate(4898.978 22525.436) rotate(41)"/><path class="m" d="M0,19.831,5.163,9.157,13.17,11.7a6.788,6.788,0,0,1,1.661-2.122,5.658,5.658,0,0,1,2.355-.957L18.665.743,31.234,0l1.331,7.4a5.188,5.188,0,0,1,1.963.777,6.434,6.434,0,0,1,1.51,1.662L45.208,7.4,51.714,17.82l-6.506,5.773a7.394,7.394,0,0,1,.345,2.194,12.975,12.975,0,0,1-.345,2.608l7.1,4.289L47.279,44.22l-7.913-2.588a11.04,11.04,0,0,1-2.135,1.695,8.766,8.766,0,0,1-2.374.893l-1.11,8.5H20.958l-1.7-7.465a5.457,5.457,0,0,1-2.588-.619,6.856,6.856,0,0,1-2-2.044L6.909,45.257.579,34.608l6.33-5.62A5.978,5.978,0,0,1,6.3,26.594a6.637,6.637,0,0,1,.609-2.483Z" transform="matrix(0.469, -0.883, 0.883, 0.469, 5262.043, 22345.873)"/><ellipse class="a" cx="9.576" cy="9.578" rx="9.576" ry="9.578" transform="matrix(0.469, -0.883, 0.883, 0.469, 5286.812, 22339.506)"/><path class="m" d="M0,11.21,2.918,5.176,7.445,6.607a3.865,3.865,0,0,1,.939-1.2,3.216,3.216,0,0,1,1.331-.541L10.551.418,17.656,0l.752,4.18a2.975,2.975,0,0,1,1.111.439,3.623,3.623,0,0,1,.854.94L25.555,4.18l3.678,5.893-3.678,3.26a4.187,4.187,0,0,1,.2,1.24,7.344,7.344,0,0,1-.2,1.477l4.012,2.424-2.842,6.52-4.472-1.463a6.336,6.336,0,0,1-1.207.96,4.978,4.978,0,0,1-1.342.5L19.077,29.8H11.846l-.961-4.221a3.079,3.079,0,0,1-1.463-.347,3.891,3.891,0,0,1-1.129-1.158l-4.389,1.5L.327,19.561l3.579-3.177a3.371,3.371,0,0,1-.344-1.353,3.782,3.782,0,0,1,.344-1.405Z" transform="matrix(-0.017, -1, 1, -0.017, 5247.284, 22388.318)"/><ellipse class="a" cx="5.672" cy="5.672" rx="5.672" ry="5.672" transform="matrix(-0.017, -1, 1, -0.017, 5256.588, 22378.684)"/><path class="m" d="M0,11.21,2.918,5.176,7.445,6.607a3.869,3.869,0,0,1,.939-1.2,3.22,3.22,0,0,1,1.331-.541L10.551.418,17.656,0l.752,4.18a2.973,2.973,0,0,1,1.111.439,3.62,3.62,0,0,1,.854.94L25.555,4.18l3.678,5.893-3.678,3.26a4.191,4.191,0,0,1,.2,1.24,7.342,7.342,0,0,1-.2,1.477l4.012,2.424-2.842,6.52-4.472-1.463a6.34,6.34,0,0,1-1.207.96,4.983,4.983,0,0,1-1.342.5L19.077,29.8H11.846l-.961-4.221a3.081,3.081,0,0,1-1.463-.347,3.89,3.89,0,0,1-1.129-1.158l-4.389,1.5L.327,19.561l3.579-3.177a3.373,3.373,0,0,1-.344-1.353,3.783,3.783,0,0,1,.344-1.405Z" transform="translate(5237.422 22315.254) rotate(-90)"/><path class="m" d="M0,25.243,6.572,11.656,16.764,14.89a8.641,8.641,0,0,1,2.114-2.7,7.2,7.2,0,0,1,3-1.218L23.758.946l16-.946,1.695,9.417a6.6,6.6,0,0,1,2.5.989,8.189,8.189,0,0,1,1.923,2.115l11.67-3.1,8.282,13.266-8.281,7.348a9.412,9.412,0,0,1,.44,2.793,16.515,16.515,0,0,1-.44,3.319L66.58,41.6l-6.4,14.685L50.108,52.992a14.052,14.052,0,0,1-2.717,2.157,11.158,11.158,0,0,1-3.022,1.137L42.957,67.109H26.677l-2.164-9.5a6.946,6.946,0,0,1-3.294-.787,8.726,8.726,0,0,1-2.541-2.6l-9.882,3.39L.737,44.052,8.795,36.9a7.61,7.61,0,0,1-.775-3.047,8.448,8.448,0,0,1,.775-3.16Z" transform="translate(5966.639 22171.975) rotate(104)"/><ellipse class="a" cx="12.189" cy="13.001" rx="12.189" ry="13.001" transform="translate(5940.169 22188.477) rotate(104)"/><path class="m" d="M0,14.269,3.715,6.588,9.476,8.411a4.92,4.92,0,0,1,1.2-1.524A4.094,4.094,0,0,1,12.366,6.2L13.43.532,22.474,0l.958,5.32a3.787,3.787,0,0,1,1.414.559,4.612,4.612,0,0,1,1.087,1.2l6.6-1.756,4.682,7.5-4.682,4.15a5.33,5.33,0,0,1,.249,1.578,9.349,9.349,0,0,1-.249,1.88l5.107,3.086-3.618,8.3-5.692-1.863a8.066,8.066,0,0,1-1.537,1.222,6.337,6.337,0,0,1-1.708.641l-.8,6.118h-9.2L13.855,32.56a3.92,3.92,0,0,1-1.862-.441,4.953,4.953,0,0,1-1.437-1.474L4.971,32.56.416,24.9l4.555-4.044a4.291,4.291,0,0,1-.438-1.722,4.814,4.814,0,0,1,.438-1.789Z" transform="matrix(0.259, 0.966, -0.966, 0.259, 5950.339, 22121.434)"/><ellipse class="a" cx="7.219" cy="7.22" rx="7.219" ry="7.22" transform="matrix(0.259, 0.966, -0.966, 0.259, 5941.993, 22135.75)"/><path class="m" d="M0,14.269,3.715,6.588,9.476,8.411a4.925,4.925,0,0,1,1.2-1.524A4.1,4.1,0,0,1,12.366,6.2L13.43.532,22.474,0l.957,5.32a3.784,3.784,0,0,1,1.414.559,4.608,4.608,0,0,1,1.087,1.2l6.6-1.756,4.682,7.5-4.682,4.15a5.335,5.335,0,0,1,.249,1.578,9.346,9.346,0,0,1-.249,1.88l5.107,3.086-3.618,8.3-5.692-1.863a8.07,8.07,0,0,1-1.537,1.222,6.343,6.343,0,0,1-1.708.641l-.8,6.118h-9.2L13.855,32.56a3.922,3.922,0,0,1-1.862-.442,4.952,4.952,0,0,1-1.437-1.474L4.971,32.56.416,24.9l4.555-4.044a4.294,4.294,0,0,1-.438-1.723,4.816,4.816,0,0,1,.438-1.789Z" transform="translate(5977.839 22209.084) rotate(76)"/><ellipse class="a" cx="7.219" cy="7.22" rx="7.219" ry="7.22" transform="translate(5969.61 22224.328) rotate(76)"/><path class="d" d="M1.246,0,0,4.4,4.918,3.314Z" transform="matrix(0.53, -0.848, 0.848, 0.53, 5705.603, 22294.736)"/><path class="e" d="M3.715,0,0,9.5l3.715,3.287,9.177-3.88Z" transform="matrix(0.53, -0.848, 0.848, 0.53, 5698.317, 22288.619)"/><path class="f" d="M9.028.253C6.244,1.508,0,4.738,0,4.738L2.309,6.693l9.376-3.849S11.812-1.005,9.028.253Z" transform="matrix(0.53, -0.848, 0.848, 0.53, 5704.736, 22290.168)"/><path class="k" d="M10.593,4.832l-3.7-3.7a3.446,3.446,0,0,0-5.116,0L0,3.079l8.527,8.812,2.065-2.227A3.6,3.6,0,0,0,11.73,7.106,3.509,3.509,0,0,0,10.593,4.832Z" transform="translate(5689.997 22252.99) rotate(-59)"/><rect class="g" width="13.789" height="30.759" rx="2" transform="matrix(0.97, -0.242, 0.242, 0.97, 5692.736, 22257.742)"/><rect class="h" width="13.788" height="3.588" rx="1" transform="matrix(0.97, -0.242, 0.242, 0.97, 5691.934, 22254.705)"/><path class="i" d="M.445,0a2.849,2.849,0,0,1,2.38,1.453,9.938,9.938,0,0,1,.5,3.766c.008.25-.027.533.114.562.484.1.632-.132.795.209a3.8,3.8,0,0,1,.068,1.305s.05.9.046,1.354a.554.554,0,0,1-.306.556l.074.169-.129,28.6a.511.511,0,0,1-.445.558c-3.344,0-3.474.744-3.451-.916S0,.558,0,.558A.511.511,0,0,1,.445,0Z" transform="matrix(0.97, -0.242, 0.242, 0.97, 5700.777, 22246.881)"/><line class="j" y1="21.826" x2="21.38" transform="matrix(0.53, -0.848, 0.848, 0.53, 5683.461, 22275.824)"/><line class="j" y1="21.826" x2="21.38" transform="matrix(0.53, -0.848, 0.848, 0.53, 5692.664, 22272.596)"/><path class="d" d="M2.253-.234,0,6.065,6.624,3.91Z" transform="translate(5435.458 22626.441) rotate(-166)"/><path class="e" d="M4.47,0,0,11.43l4.47,3.955,11.04-4.667Z" transform="translate(5430.6 22637.031) rotate(-166)"/><path class="f" d="M10.862.3C7.512,1.815,0,5.7,0,5.7L2.778,8.053l11.28-4.63S14.211-1.21,10.862.3Z" transform="translate(5428.141 22630.068) rotate(-166)"/><path class="k" d="M12.744,5.814,8.3,1.368a4.146,4.146,0,0,0-6.156,0L0,3.7l10.259,10.6,2.484-2.679a4.335,4.335,0,0,0,1.368-3.078A4.222,4.222,0,0,0,12.744,5.814Z" transform="translate(5392.186 22659.924) rotate(-167)"/><rect class="g" width="16.589" height="37.005" rx="2" transform="translate(5397.141 22655.08) rotate(-122)"/><rect class="h" width="16.588" height="4.317" rx="1" transform="translate(5393.655 22657.018) rotate(-122)"/><path class="i" d="M.536,0A3.419,3.419,0,0,1,3.4,1.764c.639,1.244.552,3.274.605,4.574.01.3-.032.647.137.682.583.121.76-.16.956.254a4.664,4.664,0,0,1,.082,1.585s.061,1.1.056,1.644a.673.673,0,0,1-.368.675l.088.205L4.8,46.128a.619.619,0,0,1-.536.678c-4.023,0-4.179.9-4.151-1.113S0,.678,0,.678A.619.619,0,0,1,.536,0Z" transform="translate(5380.65 22651.213) rotate(-122)"/><line class="j" y1="26.258" x2="25.722" transform="translate(5420.504 22659.15) rotate(-166)"/><line class="j" y1="26.258" x2="25.722" transform="translate(5413.378 22650.006) rotate(-166)"/><path class="c" d="M.045,7.641s-.33-4.207.8-5.933A4.59,4.59,0,0,1,4.418,0" transform="matrix(0.574, 0.819, -0.819, 0.574, 6095.434, 22474.09)"/><path class="k" d="M15.545,7.092,10.122,1.669a5.058,5.058,0,0,0-7.509,0L0,4.519,12.515,17.451l3.031-3.268a5.288,5.288,0,0,0,1.669-3.754A5.15,5.15,0,0,0,15.545,7.092Z" transform="matrix(-0.438, 0.899, -0.899, -0.438, 6166.443, 22052.648)"/><rect class="h" width="20.001" height="5.205" rx="1" transform="matrix(-0.946, 0.326, -0.326, -0.946, 6162.989, 22050.631)"/><ellipse class="a" cx="3.666" cy="3.666" rx="3.666" ry="3.666" transform="matrix(0.883, -0.469, 0.469, 0.883, 6191.426, 22609.592)"/><ellipse class="a" cx="5.672" cy="5.672" rx="5.672" ry="5.672" transform="translate(5247.09 22305.939) rotate(-90)"/><ellipse class="a" cx="7.219" cy="7.22" rx="7.219" ry="7.22" transform="translate(5969.61 22224.328) rotate(76)"/><path class="c" d="M1877.5,21290.373s-.463-5.895,1.127-8.314,5-2.393,5-2.393" transform="translate(3492.6 804.743)"/></g></svg>