<svg xmlns="http://www.w3.org/2000/svg" width="716.636" height="107.805" viewBox="0 0 716.636 107.805"><defs><style>.a{fill:none;}.b,.d{fill:#c371f9;}.c,.d{stroke:none;}</style></defs><g transform="translate(1008 -19940.945)"><g class="a" transform="translate(-1008 19955.033)"><path class="c" d="M716.636,10V89.748c0,2.191-12.783,3.968-28.551,3.968H28.551C12.783,93.716,0,91.94,0,89.748V10Z"/><path class="d" d="M 1 11.00002288818359 L 1 89.61213684082031 C 1.140380859375 89.74253845214844 1.6636962890625 90.11940002441406 3.35400390625 90.58084106445313 C 4.87774658203125 90.99684143066406 6.92681884765625 91.36956787109375 9.4444580078125 91.68856811523438 C 14.67169189453125 92.35102081298828 21.457275390625 92.71583557128906 28.5511474609375 92.71583557128906 L 688.084716796875 92.71583557128906 C 695.1786499023438 92.71583557128906 701.9641723632813 92.35102081298828 707.1915283203125 91.68856811523438 C 709.7091674804688 91.36956787109375 711.7582397460938 90.99684143066406 713.281982421875 90.58084106445313 C 714.9722900390625 90.11940002441406 715.49560546875 89.74253845214844 715.635986328125 89.61213684082031 L 715.635986328125 11.00002288818359 L 1 11.00002288818359 M 0 10.00002288818359 L 716.635986328125 10.00002288818359 L 716.635986328125 89.748291015625 C 716.635986328125 91.93947601318359 703.8531494140625 93.71583557128906 688.084716796875 93.71583557128906 L 28.5511474609375 93.71583557128906 C 12.7828369140625 93.71583557128906 0 91.93947601318359 0 89.748291015625 L 0 10.00002288818359 Z"/></g><path class="b" d="M28.551,0H688.085c15.768,0,28.551,2.17,28.551,4.847v18.9H0V4.847C0,2.17,12.783,0,28.551,0Z" transform="translate(-1008 19940.945)"/></g></svg>